Nepomuk-Bold.220409-1801.ufo
<glyph name="dollar" format="2">
  <advance width="594"/>
  <unicode hex="0024"/>
  <outline>
    <contour>
      <point x="231" y="-9" type="line"/>
      <point x="155" y="5"/>
      <point x="53" y="92"/>
      <point x="53" y="170" type="qcurve" smooth="yes"/>
      <point x="53" y="212"/>
      <point x="99" y="266"/>
      <point x="134" y="266" type="qcurve" smooth="yes"/>
      <point x="157" y="266"/>
      <point x="188" y="234" name="hr01"/>
      <point x="188" y="215" type="qcurve" smooth="yes"/>
      <point x="188" y="188"/>
      <point x="169" y="163"/>
      <point x="144" y="148" type="qcurve" smooth="yes"/>
      <point x="127" y="138"/>
      <point x="117" y="124" name="hr02"/>
      <point x="117" y="111" type="qcurve" smooth="yes"/>
      <point x="117" y="82"/>
      <point x="180" y="36"/>
      <point x="231" y="25" type="qcurve"/>
      <point x="231" y="328" type="line"/>
      <point x="177" y="361" type="line" smooth="yes"/>
      <point x="78" y="423" name="hr03"/>
      <point x="78" y="540" type="qcurve" smooth="yes"/>
      <point x="78" y="622"/>
      <point x="164" y="718"/>
      <point x="231" y="735" type="qcurve"/>
      <point x="231" y="815" type="line"/>
      <point x="264" y="815" type="line"/>
      <point x="264" y="742" type="line"/>
      <point x="289" y="745"/>
      <point x="311" y="745" type="qcurve" smooth="yes"/>
      <point x="326" y="745"/>
      <point x="350" y="743" type="qcurve"/>
      <point x="350" y="815" type="line"/>
      <point x="383" y="815" type="line"/>
      <point x="383" y="738" type="line"/>
      <point x="454" y="724"/>
      <point x="541" y="643"/>
      <point x="541" y="580" type="qcurve" smooth="yes"/>
      <point x="541" y="537"/>
      <point x="500" y="469"/>
      <point x="467" y="469" type="qcurve" smooth="yes"/>
      <point x="440" y="469"/>
      <point x="409" y="498"/>
      <point x="409" y="520" type="qcurve" smooth="yes"/>
      <point x="409" y="540"/>
      <point x="432" y="568"/>
      <point x="449" y="577" type="qcurve" smooth="yes"/>
      <point x="470" y="587"/>
      <point x="487" y="603" name="hr04"/>
      <point x="487" y="617" type="qcurve" smooth="yes"/>
      <point x="487" y="644"/>
      <point x="431" y="692"/>
      <point x="383" y="705" type="qcurve"/>
      <point x="383" y="409" type="line"/>
      <point x="423" y="384" type="line" smooth="yes"/>
      <point x="478" y="349"/>
      <point x="539" y="257"/>
      <point x="539" y="194" type="qcurve" smooth="yes"/>
      <point x="539" y="112"/>
      <point x="453" y="11"/>
      <point x="383" y="-7" type="qcurve"/>
      <point x="383" y="-86" type="line"/>
      <point x="350" y="-86" type="line"/>
      <point x="350" y="-13" type="line"/>
      <point x="329" y="-16"/>
      <point x="308" y="-16" type="qcurve" smooth="yes"/>
      <point x="280" y="-16"/>
      <point x="264" y="-14" type="qcurve"/>
      <point x="264" y="-86" type="line"/>
      <point x="231" y="-86" type="line"/>
    </contour>
    <contour>
      <point x="350" y="710" type="line"/>
      <point x="331" y="713"/>
      <point x="307" y="713" type="qcurve" smooth="yes"/>
      <point x="282" y="713"/>
      <point x="264" y="709" type="qcurve"/>
      <point x="264" y="482" type="line"/>
      <point x="350" y="429" type="line"/>
    </contour>
    <contour>
      <point x="231" y="698" type="line"/>
      <point x="197" y="685"/>
      <point x="156" y="635"/>
      <point x="156" y="603" type="qcurve" smooth="yes"/>
      <point x="156" y="547"/>
      <point x="231" y="503" type="qcurve"/>
    </contour>
    <contour>
      <point x="308" y="16" type="qcurve" smooth="yes"/>
      <point x="332" y="16"/>
      <point x="350" y="19" type="qcurve"/>
      <point x="350" y="254" type="line"/>
      <point x="264" y="307" type="line"/>
      <point x="264" y="18" type="line"/>
      <point x="293" y="16"/>
    </contour>
    <contour>
      <point x="383" y="28" type="line"/>
      <point x="422" y="42"/>
      <point x="457" y="95" name="hr05"/>
      <point x="457" y="124" type="qcurve" smooth="yes"/>
      <point x="457" y="165"/>
      <point x="414" y="215"/>
      <point x="383" y="233" type="qcurve"/>
    </contour>
  </outline>
</glyph>
<glyph name="ampersand" format="2">
  <advance width="805"/>
  <unicode hex="0026"/>
  <outline>
    <contour>
      <point x="254" y="-18" type="qcurve" smooth="yes"/>
      <point x="162" y="-18"/>
      <point x="45" y="67"/>
      <point x="45" y="144" type="qcurve" smooth="yes"/>
      <point x="45" y="210"/>
      <point x="141" y="326"/>
      <point x="236" y="391" type="qcurve" smooth="yes"/>
      <point x="259" y="408" type="line"/>
      <point x="248" y="425" type="line" smooth="yes"/>
      <point x="220" y="468"/>
      <point x="197" y="531"/>
      <point x="197" y="580" type="qcurve" smooth="yes"/>
      <point x="197" y="632"/>
      <point x="245" y="709"/>
      <point x="324" y="749"/>
      <point x="370" y="749" type="qcurve" smooth="yes"/>
      <point x="413" y="749"/>
      <point x="467" y="709"/>
      <point x="492" y="651"/>
      <point x="492" y="622" type="qcurve" smooth="yes"/>
      <point x="492" y="567"/>
      <point x="431" y="487"/>
      <point x="372" y="443" type="qcurve"/>
      <point x="552" y="173" type="line"/>
      <point x="583" y="210"/>
      <point x="622" y="297"/>
      <point x="622" y="326" type="qcurve" smooth="yes"/>
      <point x="622" y="345"/>
      <point x="599" y="367"/>
      <point x="583" y="367" type="qcurve" smooth="yes"/>
      <point x="544" y="367" type="line"/>
      <point x="544" y="399" type="line"/>
      <point x="760" y="399" type="line"/>
      <point x="760" y="367" type="line"/>
      <point x="752" y="367" type="line" smooth="yes"/>
      <point x="696" y="367"/>
      <point x="662" y="293" type="qcurve" smooth="yes"/>
      <point x="615" y="197"/>
      <point x="571" y="145" type="qcurve"/>
      <point x="602" y="94"/>
      <point x="646" y="43"/>
      <point x="671" y="43" type="qcurve" smooth="yes"/>
      <point x="691" y="43"/>
      <point x="723" y="78"/>
      <point x="737" y="108" type="qcurve"/>
      <point x="758" y="97" type="line"/>
      <point x="743" y="56"/>
      <point x="670" y="-18"/>
      <point x="617" y="-18" type="qcurve" smooth="yes"/>
      <point x="584" y="-18"/>
      <point x="513" y="26"/>
      <point x="488" y="62" type="qcurve"/>
      <point x="451" y="32"/>
      <point x="317" y="-18"/>
    </contour>
    <contour>
      <point x="352" y="474" type="qcurve"/>
      <point x="398" y="509"/>
      <point x="446" y="578"/>
      <point x="446" y="630" type="qcurve" smooth="yes"/>
      <point x="446" y="667"/>
      <point x="404" y="716"/>
      <point x="371" y="716" type="qcurve" smooth="yes"/>
      <point x="339" y="716"/>
      <point x="291" y="673"/>
      <point x="291" y="637" type="qcurve" smooth="yes"/>
      <point x="291" y="594"/>
      <point x="313" y="538"/>
    </contour>
    <contour>
      <point x="348" y="43" type="qcurve" smooth="yes"/>
      <point x="383" y="43"/>
      <point x="445" y="69"/>
      <point x="470" y="90" type="qcurve"/>
      <point x="280" y="378" type="line"/>
      <point x="245" y="346"/>
      <point x="207" y="299"/>
      <point x="188" y="240"/>
      <point x="188" y="198" type="qcurve" smooth="yes"/>
      <point x="188" y="151"/>
      <point x="237" y="80"/>
      <point x="311" y="43"/>
    </contour>
  </outline>
</glyph>
<glyph name="quotesingle" format="2">
  <advance width="210"/>
  <unicode hex="0027"/>
  <outline>
    <contour>
      <point x="132" y="387" type="line"/>
      <point x="136" y="417" type="line" smooth="yes"/>
      <point x="139" y="439"/>
      <point x="143" y="464"/>
      <point x="147" y="489" type="curve" smooth="yes"/>
      <point x="156" y="549"/>
      <point x="165" y="611"/>
      <point x="165" y="642" type="curve" smooth="yes"/>
      <point x="165" y="667"/>
      <point x="145" y="692"/>
      <point x="105" y="692" type="curve" smooth="yes"/>
      <point x="65" y="692"/>
      <point x="45" y="667"/>
      <point x="45" y="642" type="curve" smooth="yes"/>
      <point x="45" y="611"/>
      <point x="54" y="549"/>
      <point x="63" y="489" type="curve" smooth="yes"/>
      <point x="67" y="464"/>
      <point x="71" y="439"/>
      <point x="74" y="417" type="curve" smooth="yes"/>
      <point x="78" y="387" type="line"/>
    </contour>
  </outline>
</glyph>
<glyph name="asterisk" format="2">
  <advance width="514"/>
  <unicode hex="002A"/>
  <outline>
    <contour>
      <point x="261" y="297" type="curve" smooth="yes"/>
      <point x="234" y="297"/>
      <point x="214" y="318"/>
      <point x="214" y="343" type="curve" smooth="yes"/>
      <point x="214" y="360"/>
      <point x="219" y="377"/>
      <point x="229" y="393" type="curve"/>
      <point x="242" y="417"/>
      <point x="249" y="441" name="hr01"/>
      <point x="249" y="464" type="curve" smooth="yes"/>
      <point x="249" y="476"/>
      <point x="248" y="479"/>
      <point x="241" y="479" type="curve" smooth="yes"/>
      <point x="238" y="479"/>
      <point x="233" y="477"/>
      <point x="226" y="473" type="curve"/>
      <point x="209" y="460"/>
      <point x="193" y="443"/>
      <point x="178" y="420" type="curve" smooth="yes"/>
      <point x="159" y="392"/>
      <point x="140" y="378"/>
      <point x="119" y="378" type="curve" smooth="yes"/>
      <point x="92" y="378"/>
      <point x="72" y="400" name="hr02"/>
      <point x="72" y="425" type="curve" smooth="yes"/>
      <point x="72" y="458"/>
      <point x="99" y="478"/>
      <point x="142" y="478" type="curve" smooth="yes"/>
      <point x="174" y="478"/>
      <point x="199" y="484"/>
      <point x="218" y="496" type="curve"/>
      <point x="221" y="497"/>
      <point x="228" y="502"/>
      <point x="228" y="507" type="curve" smooth="yes"/>
      <point x="228" y="512"/>
      <point x="221" y="517"/>
      <point x="218" y="518" type="curve"/>
      <point x="199" y="530"/>
      <point x="174" y="536"/>
      <point x="142" y="536" type="curve" smooth="yes"/>
      <point x="99" y="536"/>
      <point x="72" y="556"/>
      <point x="72" y="589" type="curve" smooth="yes"/>
      <point x="72" y="614"/>
      <point x="92" y="636"/>
      <point x="119" y="636" type="curve" smooth="yes"/>
      <point x="140" y="636"/>
      <point x="159" y="622"/>
      <point x="178" y="594" type="curve" smooth="yes"/>
      <point x="193" y="571"/>
      <point x="209" y="554"/>
      <point x="226" y="541" type="curve"/>
      <point x="233" y="537"/>
      <point x="238" y="535"/>
      <point x="241" y="535" type="curve" smooth="yes"/>
      <point x="248" y="535"/>
      <point x="249" y="538" name="hr03"/>
      <point x="249" y="550" type="curve" smooth="yes"/>
      <point x="249" y="573"/>
      <point x="242" y="597"/>
      <point x="229" y="621" type="curve"/>
      <point x="219" y="637"/>
      <point x="214" y="654" name="hr04"/>
      <point x="214" y="671" type="curve" smooth="yes"/>
      <point x="214" y="696"/>
      <point x="234" y="717"/>
      <point x="261" y="717" type="curve" smooth="yes"/>
      <point x="289" y="717"/>
      <point x="308" y="696"/>
      <point x="308" y="671" type="curve" smooth="yes"/>
      <point x="308" y="654"/>
      <point x="303" y="637"/>
      <point x="293" y="621" type="curve"/>
      <point x="280" y="597"/>
      <point x="273" y="573" name="hr05"/>
      <point x="273" y="550" type="curve" smooth="yes"/>
      <point x="273" y="538"/>
      <point x="274" y="535"/>
      <point x="282" y="535" type="curve" smooth="yes"/>
      <point x="285" y="535"/>
      <point x="290" y="537"/>
      <point x="296" y="541" type="curve" smooth="yes"/>
      <point x="313" y="554"/>
      <point x="329" y="571"/>
      <point x="344" y="594" type="curve" smooth="yes"/>
      <point x="363" y="622"/>
      <point x="383" y="636"/>
      <point x="403" y="636" type="curve" smooth="yes"/>
      <point x="430" y="636"/>
      <point x="451" y="614" name="hr06"/>
      <point x="451" y="589" type="curve" smooth="yes"/>
      <point x="451" y="556"/>
      <point x="424" y="536"/>
      <point x="380" y="536" type="curve" smooth="yes"/>
      <point x="348" y="536"/>
      <point x="323" y="530"/>
      <point x="304" y="518" type="curve"/>
      <point x="301" y="517"/>
      <point x="294" y="512"/>
      <point x="294" y="507" type="curve" smooth="yes"/>
      <point x="294" y="502"/>
      <point x="301" y="497"/>
      <point x="304" y="496" type="curve"/>
      <point x="323" y="484"/>
      <point x="348" y="478"/>
      <point x="380" y="478" type="curve" smooth="yes"/>
      <point x="424" y="478"/>
      <point x="451" y="458"/>
      <point x="451" y="425" type="curve" smooth="yes"/>
      <point x="451" y="400"/>
      <point x="430" y="378"/>
      <point x="403" y="378" type="curve" smooth="yes"/>
      <point x="383" y="378"/>
      <point x="363" y="392"/>
      <point x="344" y="420" type="curve" smooth="yes"/>
      <point x="329" y="443"/>
      <point x="313" y="460"/>
      <point x="296" y="473" type="curve" smooth="yes"/>
      <point x="290" y="477"/>
      <point x="285" y="479"/>
      <point x="282" y="479" type="curve" smooth="yes"/>
      <point x="274" y="479"/>
      <point x="273" y="476" name="hr07"/>
      <point x="273" y="464" type="curve" smooth="yes"/>
      <point x="273" y="441"/>
      <point x="280" y="417"/>
      <point x="293" y="393" type="curve"/>
      <point x="303" y="377"/>
      <point x="308" y="360" name="hr08"/>
      <point x="308" y="343" type="curve" smooth="yes"/>
      <point x="308" y="318"/>
      <point x="289" y="297"/>
    </contour>
  </outline>
</glyph>
<glyph name="one" format="2">
  <advance width="450"/>
  <unicode hex="0031"/>
  <outline>
    <contour>
      <point x="206" y="680" type="line"/>
      <point x="38" y="451" type="line"/>
      <point x="80" y="418" type="line"/>
      <point x="191" y="543" type="line"/>
      <point x="190" y="541"/>
      <point x="190" y="537"/>
      <point x="190" y="533" type="curve" smooth="yes"/>
      <point x="190" y="85" type="line" smooth="yes"/>
      <point x="190" y="50"/>
      <point x="179" y="35"/>
      <point x="155" y="35" type="curve" smooth="yes"/>
      <point x="90" y="35" type="line"/>
      <point x="90" y="0" type="line"/>
      <point x="415" y="0" type="line"/>
      <point x="415" y="35" type="line"/>
      <point x="350" y="35" type="line" smooth="yes"/>
      <point x="326" y="35"/>
      <point x="315" y="50"/>
      <point x="315" y="85" type="curve" smooth="yes"/>
      <point x="315" y="680" type="line"/>
    </contour>
  </outline>
</glyph>
<glyph name="five" format="2">
  <advance width="565"/>
  <unicode hex="0035"/>
  <outline>
    <contour>
      <point x="150" y="72" type="curve" smooth="yes"/>
      <point x="150" y="81"/>
      <point x="153" y="89"/>
      <point x="160" y="90" type="curve" smooth="yes"/>
      <point x="203" y="97"/>
      <point x="234" y="126" name="hr01"/>
      <point x="234" y="164" type="curve" smooth="yes"/>
      <point x="234" y="207"/>
      <point x="196" y="239"/>
      <point x="144" y="239" type="curve" smooth="yes"/>
      <point x="93" y="239" name="hr02"/>
      <point x="45" y="204" name="hr03"/>
      <point x="45" y="146" type="curve" smooth="yes"/>
      <point x="45" y="60"/>
      <point x="128" y="-12"/>
      <point x="259" y="-12" type="curve" smooth="yes"/>
      <point x="421" y="-12"/>
      <point x="520" y="93"/>
      <point x="520" y="212" type="curve" smooth="yes"/>
      <point x="520" y="353"/>
      <point x="392" y="426"/>
      <point x="283" y="426" type="curve" smooth="yes"/>
      <point x="233" y="426"/>
      <point x="190" y="415"/>
      <point x="158" y="401" type="curve" name="hr04"/>
      <point x="158" y="575" type="line"/>
      <point x="194" y="571"/>
      <point x="231" y="567"/>
      <point x="265" y="567" type="curve" smooth="yes"/>
      <point x="361" y="567"/>
      <point x="440" y="590"/>
      <point x="470" y="664" type="curve"/>
      <point x="472" y="671"/>
      <point x="473" y="675"/>
      <point x="473" y="676" type="curve"/>
      <point x="473" y="679"/>
      <point x="466" y="681"/>
      <point x="452" y="681" type="curve" smooth="yes"/>
      <point x="446" y="681"/>
      <point x="441" y="680"/>
      <point x="436" y="679" type="curve" smooth="yes"/>
      <point x="395" y="669"/>
      <point x="356" y="662"/>
      <point x="306" y="662" type="curve" smooth="yes"/>
      <point x="258" y="662"/>
      <point x="191" y="669"/>
      <point x="93" y="688" type="curve"/>
      <point x="93" y="354" type="line" smooth="yes"/>
      <point x="93" y="342"/>
      <point x="96" y="338"/>
      <point x="112" y="338" type="curve" smooth="yes"/>
      <point x="123" y="338"/>
      <point x="127" y="340"/>
      <point x="133" y="344" type="curve" smooth="yes"/>
      <point x="175" y="373"/>
      <point x="214" y="392"/>
      <point x="252" y="392" type="curve" smooth="yes"/>
      <point x="353" y="392"/>
      <point x="374" y="327"/>
      <point x="374" y="212" type="curve" smooth="yes"/>
      <point x="374" y="82"/>
      <point x="332" y="22"/>
      <point x="251" y="22" type="curve" smooth="yes"/>
      <point x="225" y="22"/>
      <point x="150" y="34" name="hr05"/>
    </contour>
  </outline>
</glyph>
<glyph name="eight" format="2">
  <advance width="584"/>
  <unicode hex="0038"/>
  <outline>
    <contour>
      <point x="183" y="572" type="curve" smooth="yes"/>
      <point x="183" y="617"/>
      <point x="225" y="655"/>
      <point x="290" y="655" type="curve" smooth="yes"/>
      <point x="376" y="655"/>
      <point x="411" y="607"/>
      <point x="411" y="533" type="curve" smooth="yes"/>
      <point x="411" y="474"/>
      <point x="393" y="432"/>
      <point x="348" y="402" type="curve"/>
      <point x="283" y="435"/>
      <point x="183" y="487"/>
    </contour>
    <contour>
      <point x="428" y="131" type="curve" smooth="yes"/>
      <point x="428" y="74" name="hr01"/>
      <point x="385" y="25"/>
      <point x="290" y="25" type="curve" smooth="yes"/>
      <point x="176" y="25"/>
      <point x="145" y="100"/>
      <point x="145" y="166" type="curve" smooth="yes"/>
      <point x="145" y="239"/>
      <point x="175" y="285"/>
      <point x="244" y="319" type="curve"/>
      <point x="248" y="316"/>
      <point x="249" y="316"/>
      <point x="253" y="314" type="curve" smooth="yes"/>
      <point x="256" y="312"/>
      <point x="260" y="310"/>
      <point x="265" y="307" type="curve" smooth="yes"/>
      <point x="348" y="265"/>
      <point x="428" y="222"/>
    </contour>
    <contour>
      <point x="202" y="341" type="curve"/>
      <point x="204" y="341" type="line"/>
      <point x="112" y="300"/>
      <point x="35" y="245"/>
      <point x="35" y="161" type="curve" smooth="yes"/>
      <point x="35" y="73"/>
      <point x="139" y="-12"/>
      <point x="290" y="-12" type="curve" smooth="yes"/>
      <point x="431" y="-12"/>
      <point x="549" y="80"/>
      <point x="549" y="183" type="curve" smooth="yes"/>
      <point x="549" y="273"/>
      <point x="474" y="330"/>
      <point x="391" y="380" type="curve"/>
      <point x="390" y="380" type="line"/>
      <point x="463" y="418"/>
      <point x="517" y="466"/>
      <point x="517" y="533" type="curve" smooth="yes"/>
      <point x="517" y="626" name="hr02"/>
      <point x="417" y="692"/>
      <point x="290" y="692" type="curve" smooth="yes"/>
      <point x="167" y="692"/>
      <point x="64" y="606"/>
      <point x="64" y="518" type="curve" smooth="yes"/>
      <point x="64" y="436"/>
      <point x="127" y="385"/>
    </contour>
  </outline>
</glyph>
<glyph name="at" format="2">
  <advance width="840"/>
  <unicode hex="0040"/>
  <outline>
    <contour>
      <point x="414" y="-18" type="curve" smooth="yes"/>
      <point x="345" y="-18"/>
      <point x="283" y="-3"/>
      <point x="227" y="29" type="curve" smooth="yes"/>
      <point x="115" y="91"/>
      <point x="45" y="208"/>
      <point x="45" y="355" type="curve" smooth="yes"/>
      <point x="45" y="426"/>
      <point x="62" y="492"/>
      <point x="96" y="552" type="curve" smooth="yes"/>
      <point x="130" y="612"/>
      <point x="177" y="660"/>
      <point x="236" y="695" type="curve" smooth="yes"/>
      <point x="295" y="730"/>
      <point x="361" y="748"/>
      <point x="432" y="748" type="curve" smooth="yes"/>
      <point x="505" y="748"/>
      <point x="569" y="732"/>
      <point x="624" y="700" type="curve" smooth="yes"/>
      <point x="733" y="635"/>
      <point x="795" y="522"/>
      <point x="795" y="395" type="curve" smooth="yes"/>
      <point x="795" y="358"/>
      <point x="786" y="320"/>
      <point x="768" y="279" type="curve" smooth="yes"/>
      <point x="749" y="238"/>
      <point x="723" y="203"/>
      <point x="688" y="175" type="curve" smooth="yes"/>
      <point x="653" y="147"/>
      <point x="610" y="133"/>
      <point x="561" y="133" type="curve" smooth="yes"/>
      <point x="510" y="133"/>
      <point x="471" y="163"/>
      <point x="466" y="211" type="curve"/>
      <point x="462" y="212" type="line"/>
      <point x="448" y="193"/>
      <point x="430" y="176"/>
      <point x="407" y="159" type="curve" smooth="yes"/>
      <point x="384" y="142"/>
      <point x="358" y="133"/>
      <point x="329" y="133" type="curve" smooth="yes"/>
      <point x="296" y="133"/>
      <point x="267" y="144"/>
      <point x="242" y="166" type="curve" smooth="yes" name="hr01"/>
      <point x="217" y="188"/>
      <point x="205" y="219"/>
      <point x="205" y="260" type="curve" smooth="yes"/>
      <point x="205" y="303"/>
      <point x="211" y="346"/>
      <point x="222" y="389" type="curve" smooth="yes"/>
      <point x="233" y="432"/>
      <point x="248" y="466"/>
      <point x="269" y="493" type="curve" smooth="yes"/>
      <point x="325" y="562"/>
      <point x="386" y="592"/>
      <point x="442" y="592" type="curve" smooth="yes"/>
      <point x="477" y="592"/>
      <point x="503" y="565"/>
      <point x="511" y="536" type="curve"/>
      <point x="515" y="536" type="line"/>
      <point x="526" y="580" type="line"/>
      <point x="636" y="580" type="line"/>
      <point x="561" y="263" type="line"/>
      <point x="558" y="245"/>
      <point x="556" y="230"/>
      <point x="556" y="219" type="curve" smooth="yes"/>
      <point x="556" y="184"/>
      <point x="577" y="166"/>
      <point x="593" y="166" type="curve" smooth="yes"/>
      <point x="621" y="166"/>
      <point x="645" y="179"/>
      <point x="664" y="204" type="curve" smooth="yes"/>
      <point x="702" y="255"/>
      <point x="721" y="335"/>
      <point x="721" y="407" type="curve" smooth="yes"/>
      <point x="721" y="597"/>
      <point x="598" y="715"/>
      <point x="422" y="715" type="curve" smooth="yes"/>
      <point x="367" y="715"/>
      <point x="316" y="700"/>
      <point x="270" y="669" type="curve" smooth="yes"/>
      <point x="177" y="608"/>
      <point x="119" y="492"/>
      <point x="119" y="352" type="curve" smooth="yes"/>
      <point x="119" y="147"/>
      <point x="239" y="14"/>
      <point x="436" y="14" type="curve" smooth="yes"/>
      <point x="501" y="14"/>
      <point x="564" y="43"/>
      <point x="608" y="72" type="curve"/>
      <point x="624" y="44" type="line"/>
      <point x="580" y="12"/>
      <point x="507" y="-18"/>
    </contour>
    <contour>
      <point x="353" y="158" type="curve" smooth="yes"/>
      <point x="378" y="158" name="hr02"/>
      <point x="402" y="176"/>
      <point x="423" y="213" type="curve" smooth="yes"/>
      <point x="444" y="250"/>
      <point x="460" y="293"/>
      <point x="470" y="343" type="curve"/>
      <point x="487" y="412"/>
      <point x="495" y="459"/>
      <point x="495" y="486" type="curve" smooth="yes"/>
      <point x="495" y="535"/>
      <point x="478" y="567"/>
      <point x="453" y="567" type="curve" smooth="yes"/>
      <point x="412" y="567"/>
      <point x="381" y="533"/>
      <point x="349" y="444" type="curve" smooth="yes"/>
      <point x="340" y="417"/>
      <point x="332" y="384"/>
      <point x="325" y="344" type="curve" smooth="yes"/>
      <point x="318" y="304"/>
      <point x="315" y="265"/>
      <point x="315" y="228" type="curve" smooth="yes"/>
      <point x="315" y="187"/>
      <point x="334" y="158"/>
    </contour>
  </outline>
</glyph>
<glyph name="H" format="2">
  <advance width="745"/>
  <unicode hex="0048"/>
  <outline>
    <contour>
      <point x="626" y="595" type="line" smooth="yes"/>
      <point x="626" y="640"/>
      <point x="630" y="645"/>
      <point x="661" y="645" type="curve" smooth="yes"/>
      <point x="706" y="645" type="line"/>
      <point x="706" y="680" type="line"/>
      <point x="411" y="680" type="line"/>
      <point x="411" y="645" type="line"/>
      <point x="466" y="645" type="line" smooth="yes"/>
      <point x="497" y="645"/>
      <point x="501" y="640"/>
      <point x="501" y="595" type="curve" smooth="yes"/>
      <point x="501" y="361" type="line"/>
      <point x="253" y="361" type="line"/>
      <point x="253" y="595" type="line" smooth="yes"/>
      <point x="253" y="640"/>
      <point x="257" y="645"/>
      <point x="288" y="645" type="curve" smooth="yes"/>
      <point x="343" y="645" type="line"/>
      <point x="343" y="680" type="line"/>
      <point x="48" y="680" type="line"/>
      <point x="48" y="645" type="line"/>
      <point x="93" y="645" type="line" smooth="yes"/>
      <point x="124" y="645"/>
      <point x="128" y="640"/>
      <point x="128" y="595" type="curve" smooth="yes"/>
      <point x="128" y="85" type="line" smooth="yes"/>
      <point x="128" y="40"/>
      <point x="124" y="35"/>
      <point x="93" y="35" type="curve" smooth="yes"/>
      <point x="48" y="35" type="line"/>
      <point x="48" y="0" type="line"/>
      <point x="343" y="0" type="line"/>
      <point x="343" y="35" type="line"/>
      <point x="288" y="35" type="line" smooth="yes"/>
      <point x="257" y="35"/>
      <point x="253" y="40"/>
      <point x="253" y="85" type="curve" smooth="yes"/>
      <point x="253" y="325" type="line"/>
      <point x="501" y="325" type="line"/>
      <point x="501" y="85" type="line" smooth="yes"/>
      <point x="501" y="40"/>
      <point x="497" y="35"/>
      <point x="466" y="35" type="curve" smooth="yes"/>
      <point x="411" y="35" type="line"/>
      <point x="411" y="0" type="line"/>
      <point x="706" y="0" type="line"/>
      <point x="706" y="35" type="line"/>
      <point x="661" y="35" type="line" smooth="yes"/>
      <point x="630" y="35"/>
      <point x="626" y="40"/>
      <point x="626" y="85" type="curve" smooth="yes"/>
    </contour>
  </outline>
</glyph>
<glyph name="K" format="2">
  <advance width="754"/>
  <unicode hex="004B"/>
  <outline>
    <contour>
      <point x="264" y="85" type="curve" smooth="yes"/>
      <point x="263" y="236" type="line"/>
      <point x="260" y="236" type="line"/>
      <point x="322" y="307" type="line"/>
      <point x="474" y="88" type="line" smooth="yes"/>
      <point x="482" y="76"/>
      <point x="486" y="65"/>
      <point x="486" y="54" type="curve" smooth="yes"/>
      <point x="486" y="42"/>
      <point x="482" y="37"/>
      <point x="464" y="37" type="curve" smooth="yes"/>
      <point x="426" y="37" type="line"/>
      <point x="426" y="0" type="line"/>
      <point x="733" y="0" type="line"/>
      <point x="733" y="37" type="line"/>
      <point x="693" y="37" type="line" smooth="yes"/>
      <point x="649" y="37"/>
      <point x="654" y="42"/>
      <point x="610" y="104" type="curve" smooth="yes"/>
      <point x="540" y="202"/>
      <point x="470" y="299"/>
      <point x="399" y="397" type="curve"/>
      <point x="561" y="581" type="line" smooth="yes"/>
      <point x="600" y="626"/>
      <point x="652" y="645"/>
      <point x="679" y="645" type="curve" smooth="yes"/>
      <point x="706" y="645" type="line"/>
      <point x="706" y="680" type="line"/>
      <point x="415" y="680" type="line"/>
      <point x="415" y="645" type="line"/>
      <point x="458" y="645" type="line" smooth="yes"/>
      <point x="489" y="645"/>
      <point x="502" y="638" name="hr01"/>
      <point x="502" y="624" type="curve" smooth="yes"/>
      <point x="502" y="607"/>
      <point x="489" y="589"/>
      <point x="469" y="566" type="curve" smooth="yes"/>
      <point x="433" y="525"/>
      <point x="396" y="483"/>
      <point x="360" y="442" type="curve" smooth="yes"/>
      <point x="326" y="403"/>
      <point x="296" y="365"/>
      <point x="263" y="327" type="curve"/>
      <point x="263" y="595" type="line" smooth="yes"/>
      <point x="263" y="640"/>
      <point x="267" y="645"/>
      <point x="298" y="645" type="curve" smooth="yes"/>
      <point x="349" y="645" type="line"/>
      <point x="349" y="680" type="line"/>
      <point x="58" y="680" type="line"/>
      <point x="58" y="645" type="line"/>
      <point x="103" y="645" type="line" smooth="yes"/>
      <point x="134" y="645"/>
      <point x="138" y="640" name="hr02"/>
      <point x="138" y="595" type="curve" smooth="yes"/>
      <point x="138" y="85" type="line" smooth="yes"/>
      <point x="138" y="40"/>
      <point x="134" y="35"/>
      <point x="103" y="35" type="curve" smooth="yes"/>
      <point x="48" y="35" type="line"/>
      <point x="48" y="0" type="line"/>
      <point x="349" y="0" type="line"/>
      <point x="349" y="35" type="line"/>
      <point x="298" y="35" type="line" smooth="yes"/>
      <point x="267" y="35"/>
      <point x="264" y="40"/>
    </contour>
  </outline>
</glyph>
<glyph name="L" format="2">
  <advance width="601"/>
  <unicode hex="004C"/>
  <outline>
    <contour>
      <point x="48" y="0" type="line"/>
      <point x="572" y="0" type="line"/>
      <point x="577" y="270" type="line"/>
      <point x="517" y="270" type="line"/>
      <point x="495" y="149"/>
      <point x="477" y="36"/>
      <point x="326" y="36" type="curve" smooth="yes"/>
      <point x="297" y="36" type="line" smooth="yes"/>
      <point x="276" y="36"/>
      <point x="253" y="53"/>
      <point x="253" y="84" type="curve" smooth="yes"/>
      <point x="253" y="595" type="line" smooth="yes"/>
      <point x="253" y="640"/>
      <point x="257" y="645"/>
      <point x="288" y="645" type="curve" smooth="yes"/>
      <point x="343" y="645" type="line"/>
      <point x="343" y="680" type="line"/>
      <point x="58" y="680" type="line"/>
      <point x="58" y="645" type="line"/>
      <point x="93" y="645" type="line" smooth="yes"/>
      <point x="124" y="645"/>
      <point x="128" y="640"/>
      <point x="128" y="595" type="curve" smooth="yes"/>
      <point x="128" y="85" type="line" smooth="yes"/>
      <point x="128" y="40"/>
      <point x="124" y="35"/>
      <point x="93" y="35" type="curve" smooth="yes"/>
      <point x="48" y="35" type="line"/>
    </contour>
  </outline>
</glyph>
<glyph name="N" format="2">
  <advance width="754"/>
  <unicode hex="004E"/>
  <anchor x="389" y="730" name="t.asciicircum_1"/>
  <outline>
    <contour>
      <point x="640" y="595" type="line" smooth="yes"/>
      <point x="640" y="640"/>
      <point x="644" y="645"/>
      <point x="675" y="645" type="curve" smooth="yes"/>
      <point x="730" y="645" type="line"/>
      <point x="730" y="680" type="line"/>
      <point x="478" y="680" type="line"/>
      <point x="478" y="645" type="line"/>
      <point x="533" y="645" type="line" smooth="yes"/>
      <point x="565" y="645"/>
      <point x="570" y="640"/>
      <point x="570" y="595" type="curve" smooth="yes"/>
      <point x="570" y="220" type="line"/>
      <point x="259" y="680" type="line"/>
      <point x="58" y="680" type="line"/>
      <point x="58" y="645" type="line"/>
      <point x="98" y="645" type="line" smooth="yes"/>
      <point x="136" y="645"/>
      <point x="148" y="629"/>
      <point x="148" y="568" type="curve" smooth="yes"/>
      <point x="148" y="85" type="line" smooth="yes"/>
      <point x="148" y="40"/>
      <point x="144" y="35"/>
      <point x="113" y="35" type="curve" smooth="yes"/>
      <point x="48" y="35" type="line"/>
      <point x="48" y="0" type="line"/>
      <point x="318" y="0" type="line"/>
      <point x="318" y="35" type="line"/>
      <point x="253" y="35" type="line" smooth="yes"/>
      <point x="222" y="35"/>
      <point x="218" y="40"/>
      <point x="218" y="85" type="curve" smooth="yes"/>
      <point x="218" y="498" type="line" smooth="yes"/>
      <point x="218" y="520"/>
      <point x="218" y="536"/>
      <point x="218" y="536" type="curve"/>
      <point x="217" y="536"/>
      <point x="221" y="529"/>
      <point x="232" y="511" type="curve"/>
      <point x="585" y="-12" type="line"/>
      <point x="639" y="-12" type="line"/>
    </contour>
  </outline>
</glyph>
<glyph name="O" format="2">
  <advance width="676"/>
  <unicode hex="004F"/>
  <anchor x="346" y="730" name="t.asciicircum_1"/>
  <anchor x="346" y="750" name="t.dieresis"/>
  <outline>
    <contour>
      <point x="195" y="340" type="curve" smooth="yes"/>
      <point x="195" y="590"/>
      <point x="265" y="660"/>
      <point x="346" y="660" type="curve" smooth="yes"/>
      <point x="427" y="660"/>
      <point x="496" y="590"/>
      <point x="496" y="340" type="curve" smooth="yes"/>
      <point x="496" y="90"/>
      <point x="427" y="20"/>
      <point x="346" y="20" type="curve" smooth="yes"/>
      <point x="265" y="20"/>
      <point x="195" y="90"/>
    </contour>
    <contour>
      <point x="48" y="340" type="curve" smooth="yes"/>
      <point x="48" y="146"/>
      <point x="156" y="-12"/>
      <point x="346" y="-12" type="curve" smooth="yes"/>
      <point x="536" y="-12"/>
      <point x="643" y="146"/>
      <point x="643" y="340" type="curve" smooth="yes"/>
      <point x="643" y="535"/>
      <point x="536" y="692"/>
      <point x="346" y="692" type="curve" smooth="yes"/>
      <point x="156" y="692"/>
      <point x="48" y="535"/>
    </contour>
  </outline>
</glyph>
<glyph name="T" format="2">
  <advance width="665"/>
  <unicode hex="0054"/>
  <outline>
    <contour>
      <point x="438" y="644" type="curve" smooth="yes"/>
      <point x="451" y="644" type="line" smooth="yes"/>
      <point x="514" y="644"/>
      <point x="543" y="558"/>
      <point x="572" y="430" type="curve" name="hr01"/>
      <point x="632" y="430" type="line"/>
      <point x="626" y="680" type="line"/>
      <point x="54" y="680" type="line"/>
      <point x="48" y="430" type="line"/>
      <point x="108" y="430" type="line"/>
      <point x="137" y="558"/>
      <point x="166" y="644" name="hr02"/>
      <point x="229" y="644" type="curve" smooth="yes"/>
      <point x="242" y="644" type="line" smooth="yes"/>
      <point x="266" y="644"/>
      <point x="277" y="629"/>
      <point x="277" y="594" type="curve" smooth="yes"/>
      <point x="278" y="85" type="line" smooth="yes"/>
      <point x="278" y="50"/>
      <point x="267" y="35"/>
      <point x="243" y="35" type="curve" smooth="yes"/>
      <point x="188" y="35" type="line"/>
      <point x="188" y="0" type="line"/>
      <point x="493" y="0" type="line"/>
      <point x="493" y="35" type="line"/>
      <point x="438" y="35" type="line" smooth="yes"/>
      <point x="414" y="35"/>
      <point x="403" y="50"/>
      <point x="403" y="85" type="curve" smooth="yes"/>
      <point x="403" y="594" type="line" smooth="yes"/>
      <point x="403" y="629"/>
      <point x="414" y="644"/>
    </contour>
  </outline>
</glyph>
<glyph name="U" format="2">
  <advance width="719"/>
  <unicode hex="0055"/>
  <anchor x="391" y="730" name="t.asciicircum_1"/>
  <anchor x="391" y="750" name="t.dieresis"/>
  <outline>
    <contour>
      <point x="595" y="595" type="line" smooth="yes"/>
      <point x="595" y="640"/>
      <point x="599" y="645"/>
      <point x="630" y="645" type="curve" smooth="yes"/>
      <point x="695" y="645" type="line"/>
      <point x="695" y="680" type="line"/>
      <point x="434" y="680" type="line"/>
      <point x="434" y="645" type="line"/>
      <point x="499" y="645" type="line" smooth="yes"/>
      <point x="530" y="645"/>
      <point x="534" y="640"/>
      <point x="534" y="595" type="curve" smooth="yes"/>
      <point x="534" y="274" type="line" smooth="yes"/>
      <point x="534" y="154"/>
      <point x="508" y="31"/>
      <point x="385" y="31" type="curve" smooth="yes"/>
      <point x="282" y="31"/>
      <point x="263" y="128"/>
      <point x="263" y="288" type="curve" smooth="yes"/>
      <point x="263" y="595" type="line" smooth="yes"/>
      <point x="263" y="640"/>
      <point x="267" y="645"/>
      <point x="298" y="645" type="curve" smooth="yes"/>
      <point x="353" y="645" type="line"/>
      <point x="353" y="680" type="line"/>
      <point x="48" y="680" type="line"/>
      <point x="48" y="645" type="line"/>
      <point x="93" y="645" type="line" smooth="yes"/>
      <point x="124" y="645"/>
      <point x="128" y="640"/>
      <point x="128" y="595" type="curve" smooth="yes"/>
      <point x="128" y="269" type="line" smooth="yes"/>
      <point x="128" y="69"/>
      <point x="213" y="-12"/>
      <point x="363" y="-12" type="curve" smooth="yes"/>
      <point x="563" y="-12"/>
      <point x="594" y="118"/>
      <point x="594" y="257" type="curve" smooth="yes"/>
    </contour>
  </outline>
</glyph>
<glyph name="V" format="2">
  <advance width="744"/>
  <unicode hex="0056"/>
  <anchor x="443" y="720" name="t.asciicircum_1"/>
  <anchor x="443" y="750" name="t.dieresis"/>
  <outline>
    <contour>
      <point x="403" y="173" type="line"/>
      <point x="456" y="309"/>
      <point x="507" y="443"/>
      <point x="558" y="579" type="curve"/>
      <point x="565" y="595"/>
      <point x="568" y="608"/>
      <point x="568" y="619" type="curve" smooth="yes"/>
      <point x="568" y="643"/>
      <point x="553" y="645"/>
      <point x="525" y="645" type="curve" smooth="yes"/>
      <point x="468" y="645" type="line"/>
      <point x="468" y="680" type="line"/>
      <point x="720" y="680" type="line"/>
      <point x="720" y="645" type="line"/>
      <point x="683" y="645" type="line" smooth="yes"/>
      <point x="647" y="645"/>
      <point x="637" y="643"/>
      <point x="614" y="584" type="curve" smooth="yes"/>
      <point x="382" y="-12" type="line"/>
      <point x="332" y="-12" type="line"/>
      <point x="124" y="574" type="line" smooth="yes"/>
      <point x="99" y="643"/>
      <point x="93" y="645"/>
      <point x="57" y="645" type="curve" smooth="yes"/>
      <point x="28" y="645" type="line"/>
      <point x="28" y="680" type="line"/>
      <point x="336" y="680" type="line"/>
      <point x="336" y="645" type="line"/>
      <point x="287" y="645" type="line" smooth="yes"/>
      <point x="264" y="645"/>
      <point x="253" y="641"/>
      <point x="253" y="618" type="curve" smooth="yes"/>
      <point x="253" y="604"/>
      <point x="257" y="589"/>
      <point x="264" y="570" type="curve" smooth="yes"/>
    </contour>
  </outline>
</glyph>
<glyph name="X" format="2">
  <advance width="717"/>
  <unicode hex="0058"/>
  <outline>
    <contour>
      <point x="287" y="35" type="line"/>
      <point x="268" y="35"/>
      <point x="189" y="23"/>
      <point x="189" y="57" type="curve" smooth="yes"/>
      <point x="189" y="92"/>
      <point x="306" y="243"/>
      <point x="333" y="282" type="curve"/>
      <point x="443" y="108" type="line" smooth="yes"/>
      <point x="452" y="93"/>
      <point x="462" y="76"/>
      <point x="462" y="58" type="curve" smooth="yes"/>
      <point x="462" y="25"/>
      <point x="406" y="35"/>
      <point x="385" y="35" type="curve"/>
      <point x="385" y="0" type="line"/>
      <point x="707" y="0" type="line"/>
      <point x="707" y="35" type="line"/>
      <point x="662" y="35" type="line" smooth="yes"/>
      <point x="624" y="35"/>
      <point x="619" y="51"/>
      <point x="599" y="81" type="curve" smooth="yes"/>
      <point x="534" y="179"/>
      <point x="472" y="280"/>
      <point x="409" y="380" type="curve"/>
      <point x="408" y="380" type="line"/>
      <point x="554" y="588" type="line" smooth="yes"/>
      <point x="598" y="651"/>
      <point x="600" y="645"/>
      <point x="673" y="645" type="curve"/>
      <point x="673" y="680" type="line"/>
      <point x="415" y="680" type="line"/>
      <point x="415" y="645" type="line"/>
      <point x="431" y="645"/>
      <point x="505" y="651"/>
      <point x="505" y="628" type="curve" smooth="yes"/>
      <point x="505" y="599"/>
      <point x="406" y="469"/>
      <point x="383" y="436" type="curve"/>
      <point x="365" y="464"/>
      <point x="249" y="596"/>
      <point x="263" y="628" type="curve" smooth="yes"/>
      <point x="273" y="651"/>
      <point x="331" y="645"/>
      <point x="347" y="645" type="curve"/>
      <point x="347" y="680" type="line"/>
      <point x="45" y="680" type="line"/>
      <point x="45" y="645" type="line"/>
      <point x="86" y="645" type="line" smooth="yes"/>
      <point x="117" y="645"/>
      <point x="130" y="618"/>
      <point x="145" y="595" type="curve" smooth="yes"/>
      <point x="199" y="510"/>
      <point x="253" y="425"/>
      <point x="307" y="339" type="curve"/>
      <point x="308" y="339" type="line"/>
      <point x="136" y="93" type="line" smooth="yes"/>
      <point x="91" y="29"/>
      <point x="91" y="35"/>
      <point x="15" y="35" type="curve"/>
      <point x="15" y="0" type="line"/>
      <point x="287" y="0" type="line"/>
    </contour>
  </outline>
</glyph>
<glyph name="Y" format="2">
  <advance width="692"/>
  <unicode hex="0059"/>
  <anchor x="380" y="730" name="t.asciicircum_1"/>
  <anchor x="380" y="750" name="t.dieresis"/>
  <outline>
    <contour>
      <point x="295" y="85" type="line" smooth="yes"/>
      <point x="295" y="21"/>
      <point x="256" y="35"/>
      <point x="205" y="35" type="curve"/>
      <point x="205" y="0" type="line"/>
      <point x="497" y="0" type="line"/>
      <point x="497" y="35" type="line"/>
      <point x="446" y="35"/>
      <point x="407" y="21"/>
      <point x="407" y="85" type="curve" smooth="yes"/>
      <point x="407" y="319" type="line"/>
      <point x="559" y="590" type="line" smooth="yes"/>
      <point x="596" y="657"/>
      <point x="598" y="645"/>
      <point x="675" y="645" type="curve"/>
      <point x="675" y="680" type="line"/>
      <point x="443" y="680" type="line"/>
      <point x="443" y="645" type="line"/>
      <point x="458" y="645"/>
      <point x="519" y="654"/>
      <point x="519" y="631" type="curve" smooth="yes"/>
      <point x="519" y="604"/>
      <point x="406" y="415"/>
      <point x="385" y="377" type="curve"/>
      <point x="261" y="600" type="line"/>
      <point x="262" y="600" type="line"/>
      <point x="257" y="608"/>
      <point x="255" y="617"/>
      <point x="255" y="627" type="curve" smooth="yes"/>
      <point x="255" y="655"/>
      <point x="307" y="645"/>
      <point x="325" y="645" type="curve"/>
      <point x="325" y="680" type="line"/>
      <point x="19" y="680" type="line"/>
      <point x="19" y="645" type="line"/>
      <point x="70" y="645" type="line" smooth="yes"/>
      <point x="106" y="645"/>
      <point x="111" y="629"/>
      <point x="127" y="600" type="curve" smooth="yes"/>
      <point x="183" y="498"/>
      <point x="237" y="396"/>
      <point x="295" y="295" type="curve"/>
    </contour>
  </outline>
</glyph>
<glyph name="asciicircum" format="2">
  <advance width="307"/>
  <unicode hex="005E"/>
  <anchor x="154" y="530" name="_t.asciicircum_1"/>
  <outline>
    <contour>
      <point x="109" y="702" type="line"/>
      <point x="84" y="652"/>
      <point x="25" y="578"/>
      <point x="-13" y="542" type="curve"/>
      <point x="-2" y="512" type="line"/>
      <point x="43" y="540"/>
      <point x="110" y="584"/>
      <point x="154" y="620" type="curve"/>
      <point x="197" y="584"/>
      <point x="264" y="540"/>
      <point x="309" y="512" type="curve"/>
      <point x="320" y="542" type="line"/>
      <point x="282" y="578"/>
      <point x="223" y="652"/>
      <point x="198" y="702" type="curve"/>
    </contour>
  </outline>
</glyph>
<glyph name="e" format="2">
  <advance width="499"/>
  <unicode hex="0065"/>
  <anchor x="260" y="530" name="t.asciicircum_1"/>
  <anchor x="260" y="530" name="t.dieresis"/>
  <outline>
    <contour>
      <point x="171" y="237" type="line"/>
      <point x="463" y="237" type="line"/>
      <point x="463" y="251" type="line" smooth="yes"/>
      <point x="463" y="351"/>
      <point x="401" y="462"/>
      <point x="260" y="462" type="curve" smooth="yes"/>
      <point x="121" y="462"/>
      <point x="33" y="355"/>
      <point x="33" y="225" type="curve" smooth="yes"/>
      <point x="33" y="95"/>
      <point x="120" y="-12"/>
      <point x="260" y="-12" type="curve" smooth="yes"/>
      <point x="345" y="-12"/>
      <point x="430" y="43"/>
      <point x="458" y="130" type="curve"/>
      <point x="399" y="150" type="line"/>
      <point x="371" y="66"/>
      <point x="315" y="25"/>
      <point x="272" y="25" type="curve" smooth="yes"/>
      <point x="218" y="25"/>
      <point x="171" y="75"/>
      <point x="171" y="224" type="curve" smooth="yes"/>
    </contour>
    <contour>
      <point x="329" y="312" type="curve" smooth="yes"/>
      <point x="329" y="275"/>
      <point x="319" y="267"/>
      <point x="296" y="267" type="curve" smooth="yes"/>
      <point x="171" y="267" type="line"/>
      <point x="181" y="380"/>
      <point x="214" y="436"/>
      <point x="260" y="436" type="curve" smooth="yes"/>
      <point x="302" y="436"/>
      <point x="329" y="380"/>
    </contour>
  </outline>
</glyph>
<glyph name="k" format="2">
  <advance width="560"/>
  <unicode hex="006B"/>
  <outline>
    <contour>
      <point x="213" y="680" type="line"/>
      <point x="13" y="680" type="line"/>
      <point x="13" y="645" type="line"/>
      <point x="58" y="645" type="line" smooth="yes"/>
      <point x="89" y="645"/>
      <point x="93" y="640"/>
      <point x="93" y="595" type="curve" smooth="yes"/>
      <point x="93" y="85" type="line" smooth="yes"/>
      <point x="93" y="40"/>
      <point x="89" y="35"/>
      <point x="58" y="35" type="curve" smooth="yes"/>
      <point x="23" y="35" type="line"/>
      <point x="23" y="0" type="line"/>
      <point x="269" y="0" type="line"/>
      <point x="269" y="35" type="line"/>
      <point x="244" y="35" type="line" smooth="yes"/>
      <point x="213" y="35"/>
      <point x="209" y="40"/>
      <point x="209" y="85" type="curve" smooth="yes"/>
      <point x="209" y="138" type="line"/>
      <point x="206" y="138" type="line"/>
      <point x="273" y="213" type="line"/>
      <point x="349" y="85" type="line" smooth="yes"/>
      <point x="355" y="75"/>
      <point x="358" y="65" name="hr01"/>
      <point x="358" y="55" type="curve" smooth="yes"/>
      <point x="358" y="40"/>
      <point x="349" y="35"/>
      <point x="338" y="35" type="curve" smooth="yes"/>
      <point x="299" y="35" type="line"/>
      <point x="299" y="0" type="line"/>
      <point x="557" y="0" type="line"/>
      <point x="557" y="35" type="line"/>
      <point x="526" y="35" type="line" smooth="yes"/>
      <point x="504" y="35"/>
      <point x="501" y="40"/>
      <point x="479" y="77" type="curve" smooth="yes"/>
      <point x="437" y="151"/>
      <point x="393" y="224"/>
      <point x="349" y="297" type="curve"/>
      <point x="348" y="297" type="line"/>
      <point x="414" y="372" type="line" smooth="yes"/>
      <point x="446" y="408"/>
      <point x="457" y="415"/>
      <point x="488" y="415" type="curve" smooth="yes"/>
      <point x="529" y="415" type="line"/>
      <point x="529" y="450" type="line"/>
      <point x="287" y="450" type="line"/>
      <point x="287" y="415" type="line"/>
      <point x="330" y="415" type="line" smooth="yes"/>
      <point x="346" y="415"/>
      <point x="354" y="411" name="hr02"/>
      <point x="354" y="400" type="curve" smooth="yes"/>
      <point x="354" y="389"/>
      <point x="348" y="378"/>
      <point x="336" y="365" type="curve" smooth="yes"/>
      <point x="292" y="317"/>
      <point x="256" y="276"/>
      <point x="213" y="228" type="curve"/>
    </contour>
  </outline>
</glyph>
<glyph name="q" format="2">
  <advance width="533"/>
  <unicode hex="0071"/>
  <outline>
    <contour>
      <point x="359" y="82" type="line"/>
      <point x="344" y="82" type="line"/>
      <point x="344" y="-145" type="line" smooth="yes"/>
      <point x="344" y="-190"/>
      <point x="340" y="-195"/>
      <point x="309" y="-195" type="curve" smooth="yes"/>
      <point x="244" y="-195" type="line"/>
      <point x="244" y="-230" type="line"/>
      <point x="539" y="-230" type="line"/>
      <point x="539" y="-195" type="line"/>
      <point x="494" y="-195" type="line" smooth="yes"/>
      <point x="463" y="-195"/>
      <point x="459" y="-190"/>
      <point x="459" y="-145" type="curve" smooth="yes"/>
      <point x="459" y="462" type="line"/>
      <point x="405" y="462" type="line"/>
      <point x="355" y="365" type="line"/>
      <point x="369" y="365" type="line"/>
      <point x="362" y="365" type="line"/>
      <point x="376" y="365" type="line"/>
      <point x="348" y="423"/>
      <point x="311" y="462"/>
      <point x="234" y="462" type="curve" smooth="yes"/>
      <point x="129" y="462"/>
      <point x="42" y="375"/>
      <point x="42" y="225" type="curve" smooth="yes"/>
      <point x="42" y="75"/>
      <point x="124" y="-12"/>
      <point x="226" y="-12" type="curve" smooth="yes"/>
      <point x="279" y="-12"/>
      <point x="334" y="19"/>
      <point x="365" y="82" type="curve"/>
      <point x="351" y="82" type="line"/>
    </contour>
    <contour>
      <point x="175" y="225" type="curve" smooth="yes"/>
      <point x="175" y="360"/>
      <point x="208" y="431"/>
      <point x="246" y="431" type="curve" smooth="yes"/>
      <point x="291" y="431"/>
      <point x="339" y="371" name="hr01"/>
      <point x="339" y="225" type="curve" smooth="yes"/>
      <point x="339" y="121"/>
      <point x="296" y="21"/>
      <point x="243" y="21" type="curve" smooth="yes"/>
      <point x="201" y="21"/>
      <point x="175" y="90"/>
    </contour>
  </outline>
</glyph>
<glyph name="r" format="2">
  <advance width="416"/>
  <unicode hex="0072"/>
  <outline>
    <contour>
      <point x="195" y="359" type="curve"/>
      <point x="200" y="359" type="line"/>
      <point x="198" y="359" type="line"/>
      <point x="213" y="359" type="line"/>
      <point x="213" y="450" type="line"/>
      <point x="23" y="450" type="line"/>
      <point x="23" y="415" type="line"/>
      <point x="68" y="415" type="line" smooth="yes"/>
      <point x="99" y="415"/>
      <point x="103" y="410"/>
      <point x="103" y="365" type="curve" smooth="yes"/>
      <point x="103" y="85" type="line" smooth="yes"/>
      <point x="103" y="40"/>
      <point x="99" y="35"/>
      <point x="68" y="35" type="curve" smooth="yes"/>
      <point x="23" y="35" type="line"/>
      <point x="23" y="0" type="line"/>
      <point x="318" y="0" type="line"/>
      <point x="318" y="35" type="line"/>
      <point x="253" y="35" type="line" smooth="yes"/>
      <point x="222" y="35"/>
      <point x="218" y="40" name="hr01"/>
      <point x="218" y="85" type="curve" smooth="yes"/>
      <point x="218" y="259" type="line" smooth="yes"/>
      <point x="218" y="301"/>
      <point x="236" y="344"/>
      <point x="252" y="366" type="curve" smooth="yes"/>
      <point x="257" y="372"/>
      <point x="260" y="376"/>
      <point x="262" y="379" type="curve"/>
      <point x="263" y="378"/>
      <point x="264" y="377"/>
      <point x="270" y="366" type="curve" smooth="yes"/>
      <point x="283" y="345"/>
      <point x="307" y="332"/>
      <point x="342" y="332" type="curve" smooth="yes"/>
      <point x="385" y="332"/>
      <point x="413" y="361"/>
      <point x="413" y="394" type="curve" smooth="yes"/>
      <point x="413" y="433"/>
      <point x="371" y="462"/>
      <point x="325" y="462" type="curve" smooth="yes"/>
      <point x="268" y="462"/>
      <point x="222" y="416"/>
    </contour>
  </outline>
</glyph>
<glyph name="x" format="2">
  <advance width="546"/>
  <unicode hex="0078"/>
  <outline>
    <contour>
      <point x="271" y="450" type="line"/>
      <point x="28" y="450" type="line"/>
      <point x="28" y="415" type="line"/>
      <point x="54" y="415" type="line" smooth="yes"/>
      <point x="101" y="415"/>
      <point x="94" y="412"/>
      <point x="124" y="368" type="curve" smooth="yes"/>
      <point x="227" y="217" type="line"/>
      <point x="228" y="217" type="line"/>
      <point x="123" y="82" type="line" smooth="yes"/>
      <point x="90" y="39"/>
      <point x="83" y="35"/>
      <point x="28" y="35" type="curve" smooth="yes"/>
      <point x="5" y="35" type="line"/>
      <point x="5" y="0" type="line"/>
      <point x="229" y="0" type="line"/>
      <point x="229" y="35" type="line"/>
      <point x="183" y="35" type="line" smooth="yes"/>
      <point x="175" y="35"/>
      <point x="171" y="38"/>
      <point x="171" y="47" type="curve" smooth="yes"/>
      <point x="171" y="58"/>
      <point x="177" y="70"/>
      <point x="188" y="85" type="curve" smooth="yes"/>
      <point x="210" y="113"/>
      <point x="232" y="141"/>
      <point x="254" y="169" type="curve"/>
      <point x="321" y="72" type="line" smooth="yes"/>
      <point x="327" y="63"/>
      <point x="331" y="55"/>
      <point x="331" y="47" type="curve" smooth="yes"/>
      <point x="331" y="38"/>
      <point x="326" y="35"/>
      <point x="316" y="35" type="curve" smooth="yes"/>
      <point x="294" y="35" type="line"/>
      <point x="294" y="0" type="line"/>
      <point x="546" y="0" type="line"/>
      <point x="546" y="35" type="line"/>
      <point x="520" y="35" type="line" smooth="yes"/>
      <point x="480" y="35"/>
      <point x="476" y="39"/>
      <point x="452" y="74" type="curve" smooth="yes"/>
      <point x="412" y="135"/>
      <point x="371" y="195"/>
      <point x="329" y="255" type="curve"/>
      <point x="328" y="255" type="line"/>
      <point x="419" y="372" type="line" smooth="yes"/>
      <point x="449" y="410"/>
      <point x="448" y="415"/>
      <point x="495" y="415" type="curve" smooth="yes"/>
      <point x="525" y="415" type="line"/>
      <point x="525" y="450" type="line"/>
      <point x="319" y="450" type="line"/>
      <point x="319" y="415" type="line"/>
      <point x="347" y="415" type="line" smooth="yes"/>
      <point x="360" y="415"/>
      <point x="367" y="412"/>
      <point x="367" y="402" type="curve" smooth="yes"/>
      <point x="367" y="392"/>
      <point x="363" y="383"/>
      <point x="355" y="372" type="curve" smooth="yes"/>
      <point x="337" y="349"/>
      <point x="319" y="325"/>
      <point x="301" y="303" type="curve"/>
      <point x="248" y="381" type="line" smooth="yes"/>
      <point x="243" y="389"/>
      <point x="240" y="396"/>
      <point x="240" y="404" type="curve" smooth="yes"/>
      <point x="240" y="414"/>
      <point x="246" y="415"/>
      <point x="255" y="415" type="curve" smooth="yes"/>
      <point x="271" y="415" type="line"/>
    </contour>
  </outline>
</glyph>
<glyph name="y" format="2">
  <advance width="516"/>
  <unicode hex="0079"/>
  <anchor x="285" y="530" name="t.asciicircum_1"/>
  <anchor x="285" y="530" name="t.dieresis"/>
  <outline>
    <contour>
      <point x="40" y="-72" type="curve" smooth="yes"/>
      <point x="-7" y="-72"/>
      <point x="-27" y="-103"/>
      <point x="-27" y="-132" type="curve" smooth="yes"/>
      <point x="-27" y="-194" name="hr01"/>
      <point x="34" y="-225"/>
      <point x="100" y="-225" type="curve" smooth="yes"/>
      <point x="200" y="-225"/>
      <point x="220" y="-150"/>
      <point x="275" y="-19" type="curve" smooth="yes"/>
      <point x="437" y="368" type="line" smooth="yes"/>
      <point x="453" y="407"/>
      <point x="458" y="415"/>
      <point x="492" y="415" type="curve" smooth="yes"/>
      <point x="516" y="415" type="line"/>
      <point x="516" y="450" type="line"/>
      <point x="305" y="450" type="line"/>
      <point x="305" y="415" type="line"/>
      <point x="362" y="415" type="line" smooth="yes"/>
      <point x="378" y="415"/>
      <point x="388" y="414"/>
      <point x="388" y="395" type="curve" smooth="yes"/>
      <point x="388" y="382"/>
      <point x="383" y="366"/>
      <point x="373" y="344" type="curve" smooth="yes"/>
      <point x="347" y="282"/>
      <point x="320" y="218"/>
      <point x="293" y="155" type="curve"/>
      <point x="207" y="359" type="line"/>
      <point x="200" y="373"/>
      <point x="197" y="385"/>
      <point x="197" y="396" type="curve" smooth="yes"/>
      <point x="197" y="410"/>
      <point x="203" y="415"/>
      <point x="216" y="415" type="curve" smooth="yes"/>
      <point x="255" y="415" type="line"/>
      <point x="255" y="450" type="line"/>
      <point x="2" y="450" type="line"/>
      <point x="2" y="415" type="line"/>
      <point x="25" y="415" type="line" smooth="yes"/>
      <point x="53" y="415"/>
      <point x="60" y="410"/>
      <point x="77" y="371" type="curve" smooth="yes"/>
      <point x="129" y="251"/>
      <point x="181" y="130"/>
      <point x="232" y="10" type="curve"/>
      <point x="233" y="10" type="line"/>
      <point x="226" y="-5" type="line" smooth="yes"/>
      <point x="221" y="-15"/>
      <point x="216" y="-25"/>
      <point x="212" y="-34" type="curve" smooth="yes"/>
      <point x="164" y="-138"/>
      <point x="138" y="-194"/>
      <point x="101" y="-194" type="curve" smooth="yes"/>
      <point x="97" y="-194"/>
      <point x="95" y="-187"/>
      <point x="95" y="-176" type="curve" smooth="yes"/>
      <point x="95" y="-167"/>
      <point x="97" y="-162"/>
      <point x="100" y="-156" type="curve"/>
      <point x="103" y="-148" type="line" smooth="yes"/>
      <point x="106" y="-139"/>
      <point x="108" y="-131"/>
      <point x="108" y="-125" type="curve" smooth="yes"/>
      <point x="108" y="-94"/>
      <point x="74" y="-72" name="hr02"/>
    </contour>
  </outline>
</glyph>
<glyph name="bar" format="2">
  <advance width="363"/>
  <unicode hex="007C"/>
  <outline>
    <contour>
      <point x="145" y="754" type="line"/>
      <point x="145" y="-143" type="line"/>
      <point x="218" y="-143" type="line"/>
      <point x="218" y="754" type="line"/>
    </contour>
  </outline>
</glyph>
<glyph name="asciitilde" format="2">
  <advance width="321"/>
  <unicode hex="007E"/>
  <anchor x="160" y="530" name="_t.asciicircum_1"/>
  <outline>
    <contour>
      <point x="78" y="608" type="curve" smooth="yes"/>
      <point x="88" y="608"/>
      <point x="108" y="595"/>
      <point x="130" y="580" type="curve"/>
      <point x="156" y="564"/>
      <point x="185" y="546"/>
      <point x="220" y="546" type="curve" smooth="yes"/>
      <point x="282" y="546"/>
      <point x="319" y="600"/>
      <point x="334" y="641" type="curve"/>
      <point x="288" y="658" type="line"/>
      <point x="275" y="630"/>
      <point x="258" y="604"/>
      <point x="243" y="604" type="curve" smooth="yes"/>
      <point x="233" y="604"/>
      <point x="213" y="617"/>
      <point x="191" y="632" type="curve"/>
      <point x="165" y="648"/>
      <point x="136" y="666"/>
      <point x="101" y="666" type="curve" smooth="yes"/>
      <point x="39" y="666"/>
      <point x="2" y="612"/>
      <point x="-13" y="571" type="curve"/>
      <point x="33" y="554" type="line"/>
      <point x="46" y="582"/>
      <point x="63" y="608"/>
    </contour>
  </outline>
</glyph>
<glyph name="cent" format="2">
  <advance width="594"/>
  <unicode hex="00A2"/>
  <outline>
    <contour>
      <point x="301" y="-11" type="line"/>
      <point x="185" y="1"/>
      <point x="104" y="111"/>
      <point x="104" y="243" type="curve" smooth="yes"/>
      <point x="104" y="375"/>
      <point x="186" y="487"/>
      <point x="301" y="497" type="curve"/>
      <point x="301" y="608" type="line"/>
      <point x="342" y="608" type="line"/>
      <point x="342" y="497" type="line"/>
      <point x="383" y="492"/>
      <point x="414" y="477"/>
      <point x="436" y="450" type="curve" smooth="yes"/>
      <point x="458" y="423"/>
      <point x="469" y="392"/>
      <point x="469" y="359" type="curve" smooth="yes"/>
      <point x="469" y="323"/>
      <point x="445" y="287"/>
      <point x="408" y="287" type="curve" smooth="yes"/>
      <point x="377" y="287"/>
      <point x="358" y="306"/>
      <point x="358" y="337" type="curve" smooth="yes"/>
      <point x="358" y="350"/>
      <point x="366" y="366"/>
      <point x="382" y="384" type="curve" smooth="yes"/>
      <point x="393" y="397"/>
      <point x="399" y="407"/>
      <point x="399" y="416" type="curve" smooth="yes"/>
      <point x="399" y="440"/>
      <point x="381" y="468"/>
      <point x="342" y="472" type="curve"/>
      <point x="342" y="18" type="line"/>
      <point x="376" y="18"/>
      <point x="403" y="33"/>
      <point x="424" y="62" type="curve" smooth="yes"/>
      <point x="445" y="91"/>
      <point x="457" y="126"/>
      <point x="461" y="166" type="curve"/>
      <point x="487" y="166" type="line"/>
      <point x="483" y="122"/>
      <point x="470" y="83"/>
      <point x="447" y="48" type="curve" smooth="yes"/>
      <point x="424" y="13"/>
      <point x="389" y="-6"/>
      <point x="342" y="-11" type="curve"/>
      <point x="342" y="-123" type="line"/>
      <point x="301" y="-123" type="line"/>
    </contour>
    <contour>
      <point x="301" y="467" type="line"/>
      <point x="258" y="445"/>
      <point x="236" y="370"/>
      <point x="236" y="243" type="curve" smooth="yes"/>
      <point x="236" y="170"/>
      <point x="238" y="137"/>
      <point x="247" y="101" type="curve" smooth="yes"/>
      <point x="255" y="66"/>
      <point x="273" y="42"/>
      <point x="301" y="29" type="curve"/>
    </contour>
  </outline>
</glyph>
<glyph name="sterling" format="2">
  <advance width="737"/>
  <unicode hex="00A3"/>
  <outline>
    <contour>
      <point x="456" y="-18" type="curve" smooth="yes"/>
      <point x="415" y="-18"/>
      <point x="363" y="2"/>
      <point x="300" y="43" type="curve"/>
      <point x="256" y="6"/>
      <point x="211" y="-12" name="hr01"/>
      <point x="166" y="-12" type="curve" smooth="yes"/>
      <point x="109" y="-12"/>
      <point x="66" y="12"/>
      <point x="66" y="67" type="curve" smooth="yes"/>
      <point x="66" y="116"/>
      <point x="115" y="154"/>
      <point x="160" y="154" type="curve" smooth="yes"/>
      <point x="204" y="154"/>
      <point x="237" y="143"/>
      <point x="297" y="120" type="curve"/>
      <point x="301" y="135"/>
      <point x="303" y="152"/>
      <point x="303" y="169" type="curve" smooth="yes"/>
      <point x="303" y="209"/>
      <point x="295" y="255"/>
      <point x="278" y="306" type="curve"/>
      <point x="267" y="334"/>
      <point x="259" y="362"/>
      <point x="254" y="389" type="curve"/>
      <point x="239" y="390"/>
      <point x="227" y="391"/>
      <point x="220" y="391" type="curve" smooth="yes"/>
      <point x="185" y="391"/>
      <point x="171" y="385"/>
      <point x="142" y="369" type="curve"/>
      <point x="126" y="399" type="line"/>
      <point x="146" y="418"/>
      <point x="169" y="428"/>
      <point x="210" y="428" type="curve" smooth="yes"/>
      <point x="218" y="428"/>
      <point x="230" y="427"/>
      <point x="247" y="426" type="curve"/>
      <point x="244" y="450"/>
      <point x="242" y="473"/>
      <point x="242" y="496" type="curve" smooth="yes"/>
      <point x="242" y="547"/>
      <point x="253" y="592"/>
      <point x="276" y="630" type="curve" smooth="yes"/>
      <point x="321" y="706"/>
      <point x="402" y="745"/>
      <point x="494" y="745" type="curve" smooth="yes"/>
      <point x="530" y="745"/>
      <point x="562" y="738"/>
      <point x="589" y="724" type="curve" smooth="yes"/>
      <point x="643" y="695"/>
      <point x="670" y="647"/>
      <point x="670" y="603" type="curve" smooth="yes"/>
      <point x="670" y="580"/>
      <point x="662" y="560"/>
      <point x="647" y="543" type="curve" smooth="yes"/>
      <point x="631" y="525"/>
      <point x="612" y="516"/>
      <point x="591" y="516" type="curve" smooth="yes"/>
      <point x="560" y="516"/>
      <point x="529" y="539"/>
      <point x="529" y="570" type="curve" smooth="yes"/>
      <point x="529" y="598"/>
      <point x="541" y="610"/>
      <point x="561" y="627" type="curve" smooth="yes"/>
      <point x="577" y="642"/>
      <point x="582" y="652"/>
      <point x="582" y="669" type="curve" smooth="yes"/>
      <point x="582" y="692"/>
      <point x="551" y="719"/>
      <point x="494" y="719" type="curve" smooth="yes"/>
      <point x="459" y="719"/>
      <point x="433" y="703"/>
      <point x="417" y="670" type="curve" smooth="yes"/>
      <point x="401" y="637"/>
      <point x="393" y="596"/>
      <point x="393" y="549" type="curve" smooth="yes"/>
      <point x="393" y="516"/>
      <point x="396" y="465"/>
      <point x="403" y="398" type="curve"/>
      <point x="425" y="395"/>
      <point x="444" y="393" name="hr02"/>
      <point x="460" y="393" type="curve" smooth="yes"/>
      <point x="495" y="393"/>
      <point x="511" y="400"/>
      <point x="538" y="416" type="curve"/>
      <point x="554" y="385" type="line"/>
      <point x="535" y="366"/>
      <point x="507" y="356"/>
      <point x="470" y="356" type="curve" smooth="yes"/>
      <point x="451" y="356"/>
      <point x="430" y="358"/>
      <point x="408" y="361" type="curve"/>
      <point x="411" y="328"/>
      <point x="412" y="302"/>
      <point x="412" y="281" type="curve" smooth="yes"/>
      <point x="412" y="221"/>
      <point x="389" y="155"/>
      <point x="352" y="102" type="curve"/>
      <point x="405" y="87"/>
      <point x="449" y="82"/>
      <point x="504" y="82" type="curve" smooth="yes"/>
      <point x="569" y="82"/>
      <point x="631" y="124"/>
      <point x="667" y="185" type="curve"/>
      <point x="692" y="174" type="line"/>
      <point x="673" y="123"/>
      <point x="643" y="79"/>
      <point x="603" y="40" type="curve" smooth="yes"/>
      <point x="563" y="1"/>
      <point x="514" y="-18"/>
    </contour>
    <contour>
      <point x="166" y="12" type="curve" smooth="yes"/>
      <point x="203" y="12" name="hr03"/>
      <point x="241" y="32"/>
      <point x="268" y="65" type="curve"/>
      <point x="220" y="96"/>
      <point x="186" y="113"/>
      <point x="154" y="113" type="curve" smooth="yes"/>
      <point x="118" y="113"/>
      <point x="94" y="92"/>
      <point x="94" y="60" type="curve" smooth="yes"/>
      <point x="94" y="27"/>
      <point x="129" y="12"/>
    </contour>
  </outline>
</glyph>
<glyph name="currency" format="2">
  <advance width="594"/>
  <unicode hex="00A4"/>
  <outline>
    <contour>
      <point x="39" y="136" type="line"/>
      <point x="109" y="206" type="line"/>
      <point x="76" y="248"/>
      <point x="59" y="296"/>
      <point x="59" y="350" type="curve" smooth="yes"/>
      <point x="59" y="404"/>
      <point x="76" y="453"/>
      <point x="109" y="497" type="curve"/>
      <point x="39" y="566" type="line"/>
      <point x="82" y="609" type="line"/>
      <point x="152" y="540" type="line"/>
      <point x="192" y="571"/>
      <point x="244" y="590"/>
      <point x="297" y="590" type="curve" smooth="yes"/>
      <point x="350" y="590"/>
      <point x="402" y="571"/>
      <point x="442" y="540" type="curve"/>
      <point x="512" y="609" type="line"/>
      <point x="555" y="566" type="line"/>
      <point x="485" y="497" type="line"/>
      <point x="518" y="453"/>
      <point x="535" y="404"/>
      <point x="535" y="350" type="curve" smooth="yes"/>
      <point x="535" y="296"/>
      <point x="518" y="248"/>
      <point x="485" y="206" type="curve"/>
      <point x="555" y="136" type="line"/>
      <point x="512" y="93" type="line"/>
      <point x="442" y="163" type="line"/>
      <point x="400" y="130"/>
      <point x="352" y="113"/>
      <point x="297" y="113" type="curve" smooth="yes"/>
      <point x="242" y="113"/>
      <point x="194" y="130"/>
      <point x="152" y="163" type="curve"/>
      <point x="82" y="93" type="line"/>
    </contour>
    <contour>
      <point x="297" y="178" type="curve" smooth="yes"/>
      <point x="348" y="178"/>
      <point x="390" y="194"/>
      <point x="422" y="226" type="curve" smooth="yes"/>
      <point x="453" y="257"/>
      <point x="469" y="299"/>
      <point x="469" y="350" type="curve" smooth="yes"/>
      <point x="469" y="401"/>
      <point x="453" y="443"/>
      <point x="422" y="476" type="curve"/>
      <point x="390" y="508"/>
      <point x="348" y="524"/>
      <point x="297" y="524" type="curve" smooth="yes"/>
      <point x="246" y="524"/>
      <point x="204" y="508"/>
      <point x="173" y="476" type="curve" smooth="yes"/>
      <point x="141" y="443"/>
      <point x="125" y="401"/>
      <point x="125" y="350" type="curve" smooth="yes"/>
      <point x="125" y="299"/>
      <point x="141" y="257"/>
      <point x="173" y="226" type="curve"/>
      <point x="204" y="194"/>
      <point x="246" y="178"/>
    </contour>
  </outline>
</glyph>
<glyph name="guillemotleft" format="2">
  <advance width="547"/>
  <unicode hex="00AB"/>
  <outline>
    <contour>
      <point x="374" y="240" type="curve"/>
      <point x="411" y="303"/>
      <point x="460" y="393"/>
      <point x="480" y="435" type="curve"/>
      <point x="437" y="450" type="line"/>
      <point x="391" y="384"/>
      <point x="320" y="308"/>
      <point x="251" y="247" type="curve"/>
      <point x="251" y="247"/>
      <point x="251" y="248"/>
      <point x="251" y="240" type="curve" smooth="yes"/>
      <point x="251" y="232"/>
      <point x="251" y="233"/>
      <point x="251" y="233" type="curve"/>
      <point x="320" y="172"/>
      <point x="391" y="96"/>
      <point x="437" y="30" type="curve"/>
      <point x="480" y="45" type="line"/>
      <point x="460" y="87"/>
      <point x="411" y="177"/>
    </contour>
    <contour>
      <point x="184" y="240" type="curve"/>
      <point x="221" y="303"/>
      <point x="270" y="393"/>
      <point x="290" y="435" type="curve"/>
      <point x="247" y="450" type="line"/>
      <point x="201" y="384"/>
      <point x="130" y="308"/>
      <point x="61" y="247" type="curve"/>
      <point x="61" y="247"/>
      <point x="61" y="248"/>
      <point x="61" y="240" type="curve" smooth="yes"/>
      <point x="61" y="232"/>
      <point x="61" y="233"/>
      <point x="61" y="233" type="curve"/>
      <point x="130" y="172"/>
      <point x="201" y="96"/>
      <point x="247" y="30" type="curve"/>
      <point x="290" y="45" type="line"/>
      <point x="270" y="87"/>
      <point x="221" y="177"/>
    </contour>
  </outline>
</glyph>
<glyph name="threesuperior" format="2">
  <advance width="397"/>
  <unicode hex="00B3"/>
  <outline>
    <contour>
      <point x="177" y="281" type="curve" smooth="yes"/>
      <point x="97" y="281"/>
      <point x="37" y="318"/>
      <point x="37" y="377" type="curve" smooth="yes"/>
      <point x="37" y="410"/>
      <point x="66" y="440"/>
      <point x="105" y="440" type="curve" smooth="yes"/>
      <point x="138" y="440"/>
      <point x="159" y="424" name="hr01"/>
      <point x="159" y="400" type="curve" smooth="yes"/>
      <point x="159" y="381"/>
      <point x="148" y="368"/>
      <point x="127" y="359" type="curve" smooth="yes"/>
      <point x="118" y="355"/>
      <point x="109" y="348" name="hr02"/>
      <point x="109" y="340" type="curve" smooth="yes"/>
      <point x="109" y="319"/>
      <point x="133" y="305"/>
      <point x="174" y="305" type="curve" smooth="yes"/>
      <point x="222" y="305"/>
      <point x="246" y="339"/>
      <point x="246" y="411" type="curve" smooth="yes"/>
      <point x="246" y="476"/>
      <point x="217" y="507"/>
      <point x="178" y="507" type="curve" smooth="yes"/>
      <point x="110" y="507" type="line"/>
      <point x="110" y="536" type="line"/>
      <point x="176" y="536" type="line" smooth="yes"/>
      <point x="219" y="536"/>
      <point x="238" y="563" name="hr03"/>
      <point x="238" y="623" type="curve" smooth="yes"/>
      <point x="238" y="695"/>
      <point x="218" y="717"/>
      <point x="179" y="717" type="curve" smooth="yes"/>
      <point x="146" y="717"/>
      <point x="117" y="698"/>
      <point x="117" y="671" type="curve" smooth="yes"/>
      <point x="117" y="662"/>
      <point x="126" y="651"/>
      <point x="137" y="646" type="curve"/>
      <point x="153" y="637"/>
      <point x="161" y="625"/>
      <point x="161" y="610" type="curve" smooth="yes"/>
      <point x="161" y="591"/>
      <point x="142" y="574"/>
      <point x="115" y="574" type="curve" smooth="yes"/>
      <point x="80" y="574"/>
      <point x="51" y="602"/>
      <point x="51" y="638" type="curve" smooth="yes"/>
      <point x="51" y="669"/>
      <point x="64" y="694"/>
      <point x="91" y="713" type="curve" smooth="yes"/>
      <point x="118" y="732"/>
      <point x="150" y="741"/>
      <point x="188" y="741" type="curve" smooth="yes"/>
      <point x="283" y="741"/>
      <point x="348" y="699"/>
      <point x="348" y="631" type="curve" smooth="yes"/>
      <point x="348" y="572"/>
      <point x="295" y="539"/>
      <point x="227" y="526" type="curve"/>
      <point x="227" y="519" type="line"/>
      <point x="263" y="516"/>
      <point x="295" y="505"/>
      <point x="323" y="484" type="curve" smooth="yes"/>
      <point x="351" y="463"/>
      <point x="365" y="438" name="hr04"/>
      <point x="365" y="408" type="curve" smooth="yes"/>
      <point x="365" y="325"/>
      <point x="290" y="281"/>
    </contour>
  </outline>
</glyph>
<glyph name="paragraph" format="2">
  <advance width="520"/>
  <unicode hex="00B6"/>
  <outline>
    <contour>
      <point x="248" y="328" type="line"/>
      <point x="243" y="328" type="line"/>
      <point x="242" y="0" type="line"/>
      <point x="313" y="0" type="line"/>
      <point x="314" y="610" type="line" smooth="yes"/>
      <point x="314" y="640"/>
      <point x="341" y="645"/>
      <point x="348" y="645" type="curve" smooth="yes"/>
      <point x="355" y="645"/>
      <point x="372" y="640"/>
      <point x="372" y="610" type="curve" smooth="yes"/>
      <point x="371" y="0" type="line"/>
      <point x="442" y="0" type="line"/>
      <point x="443" y="595" type="line" smooth="yes"/>
      <point x="443" y="640"/>
      <point x="447" y="645"/>
      <point x="478" y="645" type="curve" smooth="yes"/>
      <point x="503" y="645" type="line"/>
      <point x="503" y="680" type="line"/>
      <point x="246" y="680" type="line" smooth="yes"/>
      <point x="117" y="680"/>
      <point x="25" y="614"/>
      <point x="25" y="504" type="curve" smooth="yes"/>
      <point x="25" y="394"/>
      <point x="117" y="328"/>
      <point x="246" y="328" type="curve"/>
    </contour>
  </outline>
</glyph>
<glyph name="onesuperior" format="2">
  <advance width="312"/>
  <unicode hex="00B9"/>
  <outline>
    <contour>
      <point x="143" y="730" type="line"/>
      <point x="45" y="596" type="line"/>
      <point x="70" y="577" type="line"/>
      <point x="134" y="650" type="line"/>
      <point x="134" y="649"/>
      <point x="134" y="646"/>
      <point x="134" y="644" type="curve" smooth="yes"/>
      <point x="134" y="382" type="line" smooth="yes"/>
      <point x="134" y="362"/>
      <point x="128" y="353"/>
      <point x="114" y="353" type="curve" smooth="yes"/>
      <point x="76" y="353" type="line"/>
      <point x="76" y="332" type="line"/>
      <point x="273" y="332" type="line"/>
      <point x="273" y="353" type="line"/>
      <point x="235" y="353" type="line" smooth="yes"/>
      <point x="221" y="353"/>
      <point x="214" y="362"/>
      <point x="214" y="382" type="curve" smooth="yes"/>
      <point x="214" y="730" type="line"/>
    </contour>
  </outline>
</glyph>
<glyph name="ordmasculine" format="2">
  <advance width="389"/>
  <unicode hex="00BA"/>
  <outline>
    <contour>
      <point x="195" y="420" type="curve" smooth="yes"/>
      <point x="117" y="420"/>
      <point x="57" y="490"/>
      <point x="57" y="574" type="curve" smooth="yes"/>
      <point x="57" y="658"/>
      <point x="117" y="729"/>
      <point x="195" y="729" type="curve" smooth="yes"/>
      <point x="271" y="729"/>
      <point x="332" y="658"/>
      <point x="332" y="574" type="curve" smooth="yes"/>
      <point x="332" y="490"/>
      <point x="271" y="420"/>
    </contour>
    <contour>
      <point x="195" y="438" type="curve" smooth="yes"/>
      <point x="228" y="438"/>
      <point x="238" y="483"/>
      <point x="238" y="574" type="curve" smooth="yes"/>
      <point x="238" y="666"/>
      <point x="228" y="711"/>
      <point x="195" y="711" type="curve" smooth="yes"/>
      <point x="159" y="711"/>
      <point x="152" y="667"/>
      <point x="152" y="574" type="curve" smooth="yes"/>
      <point x="152" y="482"/>
      <point x="159" y="438"/>
    </contour>
    <contour>
      <point x="57" y="362" type="line"/>
      <point x="57" y="395" type="line"/>
      <point x="332" y="395" type="line"/>
      <point x="332" y="362" type="line"/>
    </contour>
  </outline>
</glyph>
<glyph name="onehalf" format="2">
  <advance width="881"/>
  <unicode hex="00BD"/>
  <outline>
    <contour>
      <point x="157" y="747" type="line"/>
      <point x="50" y="600" type="line"/>
      <point x="77" y="579" type="line"/>
      <point x="148" y="659" type="line"/>
      <point x="147" y="658"/>
      <point x="147" y="655"/>
      <point x="147" y="653" type="curve"/>
      <point x="147" y="367" type="line" smooth="yes"/>
      <point x="147" y="344"/>
      <point x="140" y="335"/>
      <point x="125" y="335" type="curve" smooth="yes"/>
      <point x="83" y="335" type="line"/>
      <point x="83" y="312" type="line"/>
      <point x="291" y="312" type="line"/>
      <point x="291" y="335" type="line"/>
      <point x="249" y="335" type="line" smooth="yes"/>
      <point x="234" y="335"/>
      <point x="227" y="344"/>
      <point x="227" y="367" type="curve" smooth="yes"/>
      <point x="227" y="747" type="line"/>
    </contour>
    <contour>
      <point x="593" y="378" type="curve" smooth="yes"/>
      <point x="590" y="378"/>
      <point x="588" y="382"/>
      <point x="588" y="388" type="curve" smooth="yes"/>
      <point x="588" y="417"/>
      <point x="646" y="441"/>
      <point x="671" y="441" type="curve" smooth="yes"/>
      <point x="704" y="441"/>
      <point x="734" y="419"/>
      <point x="734" y="354" type="curve" smooth="yes"/>
      <point x="734" y="289"/>
      <point x="718" y="250"/>
      <point x="638" y="190" type="curve" smooth="yes"/>
      <point x="588" y="152"/>
      <point x="528" y="85"/>
      <point x="523" y="21" type="curve"/>
      <point x="563" y="21" type="line"/>
      <point x="575" y="57"/>
      <point x="593" y="70"/>
      <point x="610" y="70" type="curve" smooth="yes"/>
      <point x="625" y="70"/>
      <point x="640" y="58"/>
      <point x="655" y="45" type="curve" smooth="yes"/>
      <point x="673" y="30"/>
      <point x="692" y="13"/>
      <point x="732" y="13" type="curve" smooth="yes"/>
      <point x="816" y="13"/>
      <point x="832" y="101" name="hr02"/>
      <point x="832" y="147" type="curve"/>
      <point x="791" y="147" type="line"/>
      <point x="788" y="99"/>
      <point x="772" y="76"/>
      <point x="750" y="76" type="curve" smooth="yes"/>
      <point x="735" y="76"/>
      <point x="717" y="87"/>
      <point x="698" y="99" type="curve" smooth="yes"/>
      <point x="683" y="109"/>
      <point x="667" y="119"/>
      <point x="644" y="122" type="curve" smooth="yes"/>
      <point x="634" y="124"/>
      <point x="628" y="129"/>
      <point x="628" y="136" type="curve" smooth="yes"/>
      <point x="628" y="141"/>
      <point x="629" y="145"/>
      <point x="632" y="148" type="curve" smooth="yes"/>
      <point x="659" y="172"/>
      <point x="684" y="187"/>
      <point x="710" y="202" type="curve"/>
      <point x="715" y="204" type="line"/>
      <point x="771" y="235"/>
      <point x="826" y="283" name="hr03"/>
      <point x="826" y="345" type="curve" smooth="yes"/>
      <point x="826" y="416"/>
      <point x="756" y="463"/>
      <point x="678" y="463" type="curve" smooth="yes"/>
      <point x="592" y="463"/>
      <point x="530" y="401"/>
      <point x="530" y="343" type="curve" smooth="yes"/>
      <point x="530" y="304"/>
      <point x="561" y="282"/>
      <point x="593" y="282" type="curve" smooth="yes"/>
      <point x="627" y="282"/>
      <point x="651" y="302"/>
      <point x="651" y="330" type="curve" smooth="yes"/>
      <point x="651" y="357"/>
      <point x="627" y="378"/>
    </contour>
    <contour>
      <point x="172" y="0" type="line"/>
      <point x="223" y="0" type="line"/>
      <point x="667" y="766" type="line"/>
      <point x="618" y="766" type="line"/>
    </contour>
  </outline>
</glyph>
<glyph name="threequarters" format="2">
  <advance width="881"/>
  <unicode hex="00BE"/>
  <outline>
    <contour>
      <point x="211" y="545" type="curve"/>
      <point x="211" y="545" type="line"/>
      <point x="265" y="554"/>
      <point x="315" y="596"/>
      <point x="316" y="642" type="curve"/>
      <point x="315" y="702"/>
      <point x="253" y="744"/>
      <point x="178" y="744" type="curve" smooth="yes"/>
      <point x="110" y="744"/>
      <point x="48" y="695"/>
      <point x="48" y="641" type="curve" smooth="yes"/>
      <point x="48" y="611"/>
      <point x="72" y="593" name="hr01"/>
      <point x="102" y="593" type="curve" smooth="yes"/>
      <point x="132" y="593"/>
      <point x="155" y="611"/>
      <point x="155" y="636" type="curve" smooth="yes"/>
      <point x="155" y="656"/>
      <point x="137" y="674"/>
      <point x="113" y="679" type="curve"/>
      <point x="111" y="680"/>
      <point x="110" y="682" name="hr02"/>
      <point x="110" y="689" type="curve" smooth="yes"/>
      <point x="110" y="710"/>
      <point x="155" y="724" name="hr03"/>
      <point x="170" y="724" type="curve" smooth="yes"/>
      <point x="222" y="724"/>
      <point x="234" y="686"/>
      <point x="234" y="638" type="curve" smooth="yes"/>
      <point x="234" y="593" name="hr04"/>
      <point x="215" y="553"/>
      <point x="126" y="553" type="curve"/>
      <point x="126" y="536" type="line"/>
      <point x="220" y="536"/>
      <point x="244" y="490"/>
      <point x="244" y="437" type="curve" smooth="yes"/>
      <point x="244" y="375"/>
      <point x="218" y="334"/>
      <point x="164" y="334" type="curve" smooth="yes"/>
      <point x="135" y="334"/>
      <point x="112" y="347"/>
      <point x="94" y="361" type="curve"/>
      <point x="95" y="361" type="line"/>
      <point x="93" y="362"/>
      <point x="93" y="366"/>
      <point x="93" y="371" type="curve" smooth="yes"/>
      <point x="93" y="377"/>
      <point x="95" y="383"/>
      <point x="101" y="385" type="curve"/>
      <point x="126" y="390"/>
      <point x="145" y="408"/>
      <point x="145" y="431" type="curve" smooth="yes"/>
      <point x="145" y="457"/>
      <point x="120" y="479" name="hr06"/>
      <point x="88" y="479" type="curve" smooth="yes"/>
      <point x="58" y="479"/>
      <point x="25" y="460"/>
      <point x="25" y="417" type="curve" smooth="yes"/>
      <point x="25" y="363"/>
      <point x="91" y="312"/>
      <point x="172" y="312" type="curve" smooth="yes"/>
      <point x="286" y="312"/>
      <point x="334" y="372"/>
      <point x="334" y="432" type="curve" smooth="yes"/>
      <point x="334" y="485"/>
      <point x="279" y="534"/>
    </contour>
    <contour>
      <point x="761" y="139" type="line"/>
      <point x="856" y="139" type="line"/>
      <point x="856" y="165" type="line"/>
      <point x="761" y="165" type="line"/>
      <point x="761" y="369" type="line" smooth="yes"/>
      <point x="761" y="372"/>
      <point x="756" y="374"/>
      <point x="747" y="374" type="curve" smooth="yes"/>
      <point x="742" y="374"/>
      <point x="736" y="373"/>
      <point x="735" y="371" type="curve" smooth="yes"/>
      <point x="673" y="280" type="line"/>
      <point x="673" y="165" type="line"/>
      <point x="684" y="165" type="line"/>
      <point x="544" y="165" type="line"/>
      <point x="571" y="210"/>
      <point x="600" y="250"/>
      <point x="628" y="290" type="curve" smooth="yes"/>
      <point x="677" y="359"/>
      <point x="722" y="424"/>
      <point x="754" y="494" type="curve"/>
      <point x="625" y="494" type="line"/>
      <point x="606" y="380"/>
      <point x="564" y="280"/>
      <point x="495" y="162" type="curve"/>
      <point x="495" y="139" type="line"/>
      <point x="673" y="139" type="line"/>
      <point x="673" y="79" type="line" smooth="yes"/>
      <point x="673" y="54"/>
      <point x="666" y="44"/>
      <point x="649" y="44" type="curve" smooth="yes"/>
      <point x="604" y="44" type="line"/>
      <point x="604" y="19" type="line"/>
      <point x="831" y="19" type="line"/>
      <point x="831" y="44" type="line"/>
      <point x="785" y="44" type="line" smooth="yes"/>
      <point x="768" y="44"/>
      <point x="761" y="54"/>
      <point x="761" y="79" type="curve" smooth="yes"/>
    </contour>
    <contour>
      <point x="189" y="0" type="line"/>
      <point x="240" y="0" type="line"/>
      <point x="684" y="766" type="line"/>
      <point x="634" y="766" type="line"/>
    </contour>
  </outline>
</glyph>
<glyph name="Aacute" format="2">
  <advance width="724"/>
  <unicode hex="00C1"/>
  <outline>
    <contour>
      <point x="353" y="896" type="line"/>
      <point x="335" y="849"/>
      <point x="293" y="780"/>
      <point x="261" y="741" type="curve"/>
      <point x="272" y="712" type="line"/>
      <point x="341" y="751"/>
      <point x="459" y="839"/>
      <point x="500" y="879" type="curve"/>
      <point x="494" y="896" type="line"/>
    </contour>
    <contour>
      <point x="275" y="35" type="line"/>
      <point x="220" y="35" type="line" smooth="yes"/>
      <point x="192" y="35"/>
      <point x="177" y="38"/>
      <point x="177" y="61" type="curve" smooth="yes"/>
      <point x="177" y="73"/>
      <point x="180" y="86"/>
      <point x="187" y="101" type="curve"/>
      <point x="194" y="120"/>
      <point x="222" y="196"/>
      <point x="231" y="216" type="curve"/>
      <point x="449" y="216" type="line"/>
      <point x="487" y="110" type="line" smooth="yes"/>
      <point x="493" y="94"/>
      <point x="496" y="80"/>
      <point x="496" y="67" type="curve" smooth="yes"/>
      <point x="496" y="40"/>
      <point x="481" y="35"/>
      <point x="456" y="35" type="curve" smooth="yes"/>
      <point x="409" y="35" type="line"/>
      <point x="409" y="0" type="line"/>
      <point x="727" y="0" type="line"/>
      <point x="727" y="35" type="line"/>
      <point x="688" y="35" type="line" smooth="yes"/>
      <point x="652" y="35"/>
      <point x="646" y="37"/>
      <point x="621" y="106" type="curve" smooth="yes"/>
      <point x="411" y="692" type="line"/>
      <point x="345" y="692" type="line"/>
      <point x="113" y="96" type="line" smooth="yes"/>
      <point x="90" y="37"/>
      <point x="79" y="35"/>
      <point x="42" y="35" type="curve" smooth="yes"/>
      <point x="-5" y="35" type="line"/>
      <point x="-5" y="0" type="line"/>
      <point x="275" y="0" type="line"/>
    </contour>
    <contour>
      <point x="245" y="252" type="line"/>
      <point x="346" y="516" type="line"/>
      <point x="437" y="252" type="line"/>
      <point x="452" y="252" type="line"/>
    </contour>
  </outline>
</glyph>
<glyph name="Adieresis" format="2">
  <advance width="724"/>
  <unicode hex="00C4"/>
  <outline>
    <contour>
      <point x="410" y="808" type="curve" smooth="yes"/>
      <point x="410" y="779"/>
      <point x="439" y="756"/>
      <point x="477" y="756" type="curve" smooth="yes"/>
      <point x="515" y="756"/>
      <point x="544" y="779"/>
      <point x="544" y="808" type="curve" smooth="yes"/>
      <point x="544" y="837"/>
      <point x="515" y="860"/>
      <point x="477" y="860" type="curve" smooth="yes"/>
      <point x="439" y="860"/>
      <point x="410" y="837"/>
    </contour>
    <contour>
      <point x="216" y="808" type="curve" smooth="yes"/>
      <point x="216" y="779" name="hr01"/>
      <point x="245" y="756"/>
      <point x="283" y="756" type="curve" smooth="yes"/>
      <point x="321" y="756"/>
      <point x="350" y="779"/>
      <point x="350" y="808" type="curve" smooth="yes"/>
      <point x="350" y="837"/>
      <point x="321" y="860"/>
      <point x="283" y="860" type="curve" smooth="yes"/>
      <point x="245" y="860"/>
      <point x="216" y="837"/>
    </contour>
    <contour>
      <point x="275" y="35" type="line"/>
      <point x="220" y="35" type="line" smooth="yes"/>
      <point x="192" y="35"/>
      <point x="177" y="38"/>
      <point x="177" y="61" type="curve" smooth="yes"/>
      <point x="177" y="73"/>
      <point x="180" y="86"/>
      <point x="187" y="101" type="curve"/>
      <point x="194" y="120"/>
      <point x="222" y="196"/>
      <point x="231" y="216" type="curve"/>
      <point x="449" y="216" type="line"/>
      <point x="487" y="110" type="line" smooth="yes"/>
      <point x="493" y="94"/>
      <point x="496" y="80"/>
      <point x="496" y="67" type="curve" smooth="yes"/>
      <point x="496" y="40"/>
      <point x="481" y="35"/>
      <point x="456" y="35" type="curve" smooth="yes"/>
      <point x="409" y="35" type="line"/>
      <point x="409" y="0" type="line"/>
      <point x="727" y="0" type="line"/>
      <point x="727" y="35" type="line"/>
      <point x="688" y="35" type="line" smooth="yes"/>
      <point x="652" y="35"/>
      <point x="646" y="37"/>
      <point x="621" y="106" type="curve" smooth="yes"/>
      <point x="411" y="692" type="line"/>
      <point x="345" y="692" type="line"/>
      <point x="113" y="96" type="line" smooth="yes"/>
      <point x="90" y="37"/>
      <point x="79" y="35"/>
      <point x="42" y="35" type="curve" smooth="yes"/>
      <point x="-5" y="35" type="line"/>
      <point x="-5" y="0" type="line"/>
      <point x="275" y="0" type="line"/>
    </contour>
    <contour>
      <point x="245" y="252" type="line"/>
      <point x="346" y="516" type="line"/>
      <point x="437" y="252" type="line"/>
      <point x="452" y="252" type="line"/>
    </contour>
  </outline>
</glyph>
<glyph name="AE" format="2">
  <advance width="1049"/>
  <unicode hex="00C6"/>
  <anchor x="359" y="730" name="t.asciicircum_1"/>
  <anchor x="359" y="750" name="t.dieresis"/>
  <outline>
    <contour>
      <point x="435" y="0" type="line"/>
      <point x="997" y="0" type="line"/>
      <point x="1002" y="280" type="line"/>
      <point x="942" y="280" type="line"/>
      <point x="920" y="159"/>
      <point x="902" y="36"/>
      <point x="751" y="36" type="curve" smooth="yes"/>
      <point x="697" y="36" type="line" smooth="yes"/>
      <point x="679" y="36"/>
      <point x="661" y="55"/>
      <point x="661" y="79" type="curve" smooth="yes"/>
      <point x="661" y="327" type="line"/>
      <point x="646" y="327" type="line"/>
      <point x="689" y="327" type="line" smooth="yes"/>
      <point x="735" y="327"/>
      <point x="765" y="265"/>
      <point x="773" y="175" type="curve"/>
      <point x="838" y="175" type="line"/>
      <point x="838" y="512" type="line"/>
      <point x="773" y="512" type="line"/>
      <point x="765" y="422"/>
      <point x="738" y="362"/>
      <point x="689" y="362" type="curve" smooth="yes"/>
      <point x="661" y="362" type="line"/>
      <point x="661" y="604" type="line" smooth="yes"/>
      <point x="661" y="628"/>
      <point x="688" y="644"/>
      <point x="711" y="644" type="curve" smooth="yes"/>
      <point x="754" y="644" type="line" smooth="yes"/>
      <point x="848" y="644"/>
      <point x="898" y="571"/>
      <point x="925" y="445" type="curve" name="hr01"/>
      <point x="985" y="445" type="line"/>
      <point x="980" y="680" type="line"/>
      <point x="400" y="680" type="line"/>
      <point x="399" y="645" type="line"/>
      <point x="444" y="645" type="line" smooth="yes"/>
      <point x="468" y="645"/>
      <point x="480" y="643"/>
      <point x="480" y="626" type="curve" smooth="yes"/>
      <point x="480" y="613"/>
      <point x="473" y="596"/>
      <point x="459" y="572" type="curve" smooth="yes"/>
      <point x="367" y="417"/>
      <point x="277" y="261"/>
      <point x="187" y="105" type="curve" smooth="yes"/>
      <point x="156" y="52"/>
      <point x="138" y="35"/>
      <point x="70" y="35" type="curve" smooth="yes"/>
      <point x="45" y="35" type="line"/>
      <point x="45" y="0" type="line"/>
      <point x="325" y="0" type="line"/>
      <point x="325" y="35" type="line"/>
      <point x="288" y="35" type="line" smooth="yes"/>
      <point x="260" y="35"/>
      <point x="245" y="40"/>
      <point x="245" y="61" type="curve" smooth="yes"/>
      <point x="245" y="76"/>
      <point x="251" y="93"/>
      <point x="263" y="114" type="curve" smooth="yes"/>
      <point x="273" y="131"/>
      <point x="283" y="148"/>
      <point x="293" y="166" type="curve" smooth="yes"/>
      <point x="303" y="183"/>
      <point x="312" y="200"/>
      <point x="322" y="217" type="curve"/>
      <point x="309" y="217" type="line"/>
      <point x="525" y="217" type="line"/>
      <point x="525" y="85" type="line" smooth="yes"/>
      <point x="525" y="40"/>
      <point x="521" y="35"/>
      <point x="490" y="35" type="curve" smooth="yes"/>
      <point x="435" y="35" type="line"/>
    </contour>
    <contour>
      <point x="525" y="570" type="line"/>
      <point x="524" y="564"/>
      <point x="525" y="571"/>
      <point x="525" y="552" type="curve" smooth="yes"/>
      <point x="525" y="252" type="line"/>
      <point x="342" y="252" type="line"/>
    </contour>
  </outline>
</glyph>
<glyph name="Egrave" format="2">
  <advance width="673"/>
  <unicode hex="00C8"/>
  <outline>
    <contour>
      <point x="386" y="906" type="curve"/>
      <point x="245" y="906" type="line"/>
      <point x="239" y="889" type="line"/>
      <point x="280" y="849"/>
      <point x="398" y="761"/>
      <point x="467" y="722" type="curve"/>
      <point x="478" y="751" type="line"/>
      <point x="446" y="790"/>
      <point x="404" y="859"/>
    </contour>
    <contour>
      <point x="43" y="680" type="line"/>
      <point x="43" y="645" type="line"/>
      <point x="98" y="645" type="line" smooth="yes"/>
      <point x="129" y="645"/>
      <point x="133" y="640"/>
      <point x="133" y="595" type="curve" smooth="yes"/>
      <point x="133" y="85" type="line" smooth="yes"/>
      <point x="133" y="40"/>
      <point x="129" y="35"/>
      <point x="98" y="35" type="curve" smooth="yes"/>
      <point x="43" y="35" type="line"/>
      <point x="43" y="0" type="line"/>
      <point x="614" y="0" type="line"/>
      <point x="619" y="269" type="line"/>
      <point x="559" y="269" type="line"/>
      <point x="537" y="148"/>
      <point x="519" y="36"/>
      <point x="368" y="36" type="curve" smooth="yes"/>
      <point x="294" y="36" type="line" smooth="yes"/>
      <point x="276" y="36"/>
      <point x="258" y="55"/>
      <point x="258" y="79" type="curve" smooth="yes"/>
      <point x="258" y="326" type="line"/>
      <point x="306" y="326" type="line" smooth="yes"/>
      <point x="352" y="326"/>
      <point x="382" y="270"/>
      <point x="390" y="180" type="curve"/>
      <point x="455" y="180" type="line"/>
      <point x="455" y="507" type="line"/>
      <point x="390" y="507" type="line"/>
      <point x="382" y="417"/>
      <point x="355" y="362"/>
      <point x="306" y="362" type="curve" smooth="yes"/>
      <point x="258" y="362" type="line"/>
      <point x="258" y="604" type="line" smooth="yes"/>
      <point x="258" y="628"/>
      <point x="285" y="644"/>
      <point x="308" y="644" type="curve" smooth="yes"/>
      <point x="371" y="644" type="line" smooth="yes"/>
      <point x="479" y="644"/>
      <point x="515" y="576"/>
      <point x="542" y="449" type="curve"/>
      <point x="602" y="449" type="line"/>
      <point x="597" y="680" type="line"/>
    </contour>
  </outline>
</glyph>
<glyph name="Ecircumflex" format="2">
  <advance width="673"/>
  <unicode hex="00CA"/>
  <outline>
    <contour>
      <point x="314" y="902" type="line"/>
      <point x="289" y="852"/>
      <point x="230" y="778"/>
      <point x="192" y="742" type="curve"/>
      <point x="203" y="712" type="line"/>
      <point x="248" y="740"/>
      <point x="315" y="784"/>
      <point x="359" y="820" type="curve"/>
      <point x="402" y="784"/>
      <point x="469" y="740"/>
      <point x="514" y="712" type="curve"/>
      <point x="525" y="742" type="line"/>
      <point x="487" y="778"/>
      <point x="428" y="852"/>
      <point x="403" y="902" type="curve"/>
    </contour>
    <contour>
      <point x="43" y="680" type="line"/>
      <point x="43" y="645" type="line"/>
      <point x="98" y="645" type="line" smooth="yes"/>
      <point x="129" y="645"/>
      <point x="133" y="640"/>
      <point x="133" y="595" type="curve" smooth="yes"/>
      <point x="133" y="85" type="line" smooth="yes"/>
      <point x="133" y="40"/>
      <point x="129" y="35"/>
      <point x="98" y="35" type="curve" smooth="yes"/>
      <point x="43" y="35" type="line"/>
      <point x="43" y="0" type="line"/>
      <point x="614" y="0" type="line"/>
      <point x="619" y="269" type="line"/>
      <point x="559" y="269" type="line"/>
      <point x="537" y="148"/>
      <point x="519" y="36"/>
      <point x="368" y="36" type="curve" smooth="yes"/>
      <point x="294" y="36" type="line" smooth="yes"/>
      <point x="276" y="36"/>
      <point x="258" y="55"/>
      <point x="258" y="79" type="curve" smooth="yes"/>
      <point x="258" y="326" type="line"/>
      <point x="306" y="326" type="line" smooth="yes"/>
      <point x="352" y="326"/>
      <point x="382" y="270"/>
      <point x="390" y="180" type="curve"/>
      <point x="455" y="180" type="line"/>
      <point x="455" y="507" type="line"/>
      <point x="390" y="507" type="line"/>
      <point x="382" y="417"/>
      <point x="355" y="362"/>
      <point x="306" y="362" type="curve" smooth="yes"/>
      <point x="258" y="362" type="line"/>
      <point x="258" y="604" type="line" smooth="yes"/>
      <point x="258" y="628"/>
      <point x="285" y="644"/>
      <point x="308" y="644" type="curve" smooth="yes"/>
      <point x="371" y="644" type="line" smooth="yes"/>
      <point x="479" y="644"/>
      <point x="515" y="576"/>
      <point x="542" y="449" type="curve" name="hr01"/>
      <point x="602" y="449" type="line"/>
      <point x="597" y="680" type="line"/>
    </contour>
  </outline>
</glyph>
<glyph name="Iacute" format="2">
  <advance width="430"/>
  <unicode hex="00CD"/>
  <outline>
    <contour>
      <point x="297" y="927" type="line"/>
      <point x="279" y="880"/>
      <point x="237" y="811"/>
      <point x="205" y="772" type="curve"/>
      <point x="216" y="743" type="line"/>
      <point x="285" y="782"/>
      <point x="403" y="870"/>
      <point x="444" y="910" type="curve"/>
      <point x="438" y="927" type="line"/>
    </contour>
    <contour>
      <point x="277" y="595" type="line" smooth="yes"/>
      <point x="277" y="640"/>
      <point x="281" y="645"/>
      <point x="312" y="645" type="curve" smooth="yes"/>
      <point x="367" y="645" type="line"/>
      <point x="367" y="680" type="line"/>
      <point x="62" y="680" type="line"/>
      <point x="62" y="645" type="line"/>
      <point x="117" y="645" type="line" smooth="yes"/>
      <point x="148" y="645"/>
      <point x="152" y="640"/>
      <point x="152" y="595" type="curve" smooth="yes"/>
      <point x="152" y="85" type="line" smooth="yes"/>
      <point x="152" y="40"/>
      <point x="148" y="35"/>
      <point x="117" y="35" type="curve" smooth="yes"/>
      <point x="62" y="35" type="line"/>
      <point x="62" y="0" type="line"/>
      <point x="367" y="0" type="line"/>
      <point x="367" y="35" type="line"/>
      <point x="312" y="35" type="line" smooth="yes"/>
      <point x="281" y="35"/>
      <point x="277" y="49"/>
      <point x="277" y="85" type="curve" smooth="yes"/>
    </contour>
  </outline>
</glyph>
<glyph name="Icircumflex" format="2">
  <advance width="430"/>
  <unicode hex="00CE"/>
  <outline>
    <contour>
      <point x="181" y="932" type="line"/>
      <point x="156" y="882"/>
      <point x="97" y="808"/>
      <point x="59" y="772" type="curve"/>
      <point x="70" y="742" type="line"/>
      <point x="115" y="770"/>
      <point x="182" y="814"/>
      <point x="226" y="850" type="curve"/>
      <point x="269" y="814"/>
      <point x="336" y="770"/>
      <point x="381" y="742" type="curve"/>
      <point x="392" y="772" type="line"/>
      <point x="354" y="808"/>
      <point x="295" y="882"/>
      <point x="270" y="932" type="curve"/>
    </contour>
    <contour>
      <point x="277" y="595" type="line" smooth="yes"/>
      <point x="277" y="640"/>
      <point x="281" y="645"/>
      <point x="312" y="645" type="curve" smooth="yes"/>
      <point x="367" y="645" type="line"/>
      <point x="367" y="680" type="line"/>
      <point x="62" y="680" type="line"/>
      <point x="62" y="645" type="line"/>
      <point x="117" y="645" type="line" smooth="yes"/>
      <point x="148" y="645"/>
      <point x="152" y="640"/>
      <point x="152" y="595" type="curve" smooth="yes"/>
      <point x="152" y="85" type="line" smooth="yes"/>
      <point x="152" y="40"/>
      <point x="148" y="35"/>
      <point x="117" y="35" type="curve" smooth="yes"/>
      <point x="62" y="35" type="line"/>
      <point x="62" y="0" type="line"/>
      <point x="367" y="0" type="line"/>
      <point x="367" y="35" type="line"/>
      <point x="312" y="35" type="line" smooth="yes"/>
      <point x="281" y="35"/>
      <point x="277" y="49"/>
      <point x="277" y="85" type="curve" smooth="yes"/>
    </contour>
  </outline>
</glyph>
<glyph name="Idieresis" format="2">
  <advance width="430"/>
  <unicode hex="00CF"/>
  <outline>
    <contour>
      <point x="256" y="805" type="curve" smooth="yes"/>
      <point x="256" y="776"/>
      <point x="285" y="753"/>
      <point x="323" y="753" type="curve" smooth="yes"/>
      <point x="361" y="753"/>
      <point x="390" y="776"/>
      <point x="390" y="805" type="curve" smooth="yes"/>
      <point x="390" y="834"/>
      <point x="361" y="857"/>
      <point x="323" y="857" type="curve" smooth="yes"/>
      <point x="285" y="857"/>
      <point x="256" y="834"/>
    </contour>
    <contour>
      <point x="62" y="805" type="curve" smooth="yes"/>
      <point x="62" y="776"/>
      <point x="91" y="753"/>
      <point x="129" y="753" type="curve" smooth="yes"/>
      <point x="167" y="753"/>
      <point x="196" y="776"/>
      <point x="196" y="805" type="curve" smooth="yes"/>
      <point x="196" y="834"/>
      <point x="167" y="857"/>
      <point x="129" y="857" type="curve" smooth="yes"/>
      <point x="91" y="857"/>
      <point x="62" y="834"/>
    </contour>
    <contour>
      <point x="277" y="595" type="line" smooth="yes"/>
      <point x="277" y="640"/>
      <point x="281" y="645" name="hr01"/>
      <point x="312" y="645" type="curve" smooth="yes"/>
      <point x="367" y="645" type="line"/>
      <point x="367" y="680" type="line"/>
      <point x="62" y="680" type="line"/>
      <point x="62" y="645" type="line"/>
      <point x="117" y="645" type="line" smooth="yes" name="hr02"/>
      <point x="148" y="645"/>
      <point x="152" y="640"/>
      <point x="152" y="595" type="curve" smooth="yes"/>
      <point x="152" y="85" type="line" smooth="yes" name="hr03"/>
      <point x="152" y="40"/>
      <point x="148" y="35"/>
      <point x="117" y="35" type="curve" smooth="yes"/>
      <point x="62" y="35" type="line"/>
      <point x="62" y="0" type="line"/>
      <point x="367" y="0" type="line" name="hr04"/>
      <point x="367" y="35" type="line"/>
      <point x="312" y="35" type="line" smooth="yes"/>
      <point x="281" y="35"/>
      <point x="277" y="49"/>
      <point x="277" y="85" type="curve" smooth="yes"/>
    </contour>
  </outline>
</glyph>
<glyph name="Ntilde" format="2">
  <advance width="758"/>
  <unicode hex="00D1"/>
  <outline>
    <contour>
      <point x="302" y="808" type="curve" smooth="yes"/>
      <point x="312" y="808"/>
      <point x="332" y="795"/>
      <point x="354" y="780" type="curve"/>
      <point x="380" y="764"/>
      <point x="409" y="746"/>
      <point x="444" y="746" type="curve" smooth="yes"/>
      <point x="506" y="746"/>
      <point x="543" y="800"/>
      <point x="558" y="841" type="curve"/>
      <point x="512" y="858" type="line"/>
      <point x="499" y="830"/>
      <point x="482" y="804"/>
      <point x="467" y="804" type="curve" smooth="yes"/>
      <point x="457" y="804"/>
      <point x="437" y="817"/>
      <point x="415" y="832" type="curve"/>
      <point x="389" y="848"/>
      <point x="360" y="866"/>
      <point x="325" y="866" type="curve" smooth="yes"/>
      <point x="263" y="866"/>
      <point x="226" y="812"/>
      <point x="211" y="771" type="curve"/>
      <point x="257" y="754" type="line"/>
      <point x="270" y="782"/>
      <point x="287" y="808"/>
    </contour>
    <contour>
      <point x="633" y="595" type="line" smooth="yes"/>
      <point x="633" y="640"/>
      <point x="637" y="645"/>
      <point x="668" y="645" type="curve" smooth="yes"/>
      <point x="733" y="645" type="line"/>
      <point x="733" y="680" type="line"/>
      <point x="461" y="680" type="line"/>
      <point x="461" y="645" type="line"/>
      <point x="526" y="645" type="line" smooth="yes"/>
      <point x="558" y="645"/>
      <point x="563" y="640"/>
      <point x="563" y="595" type="curve" smooth="yes"/>
      <point x="563" y="220" type="line"/>
      <point x="252" y="680" type="line"/>
      <point x="41" y="680" type="line"/>
      <point x="41" y="645" type="line"/>
      <point x="81" y="645" type="line" smooth="yes"/>
      <point x="119" y="645"/>
      <point x="141" y="629"/>
      <point x="141" y="568" type="curve" smooth="yes"/>
      <point x="141" y="85" type="line" smooth="yes"/>
      <point x="141" y="40"/>
      <point x="137" y="35"/>
      <point x="106" y="35" type="curve" smooth="yes"/>
      <point x="41" y="35" type="line"/>
      <point x="41" y="0" type="line"/>
      <point x="311" y="0" type="line"/>
      <point x="311" y="35" type="line"/>
      <point x="246" y="35" type="line" smooth="yes"/>
      <point x="215" y="35"/>
      <point x="211" y="40"/>
      <point x="211" y="85" type="curve" smooth="yes"/>
      <point x="211" y="498" type="line" smooth="yes"/>
      <point x="211" y="520"/>
      <point x="211" y="536"/>
      <point x="211" y="536" type="curve"/>
      <point x="210" y="536"/>
      <point x="214" y="529"/>
      <point x="225" y="511" type="curve"/>
      <point x="578" y="-12" type="line"/>
      <point x="632" y="-12" type="line"/>
    </contour>
  </outline>
</glyph>
<glyph name="Ocircumflex" format="2">
  <advance width="682"/>
  <unicode hex="00D4"/>
  <outline>
    <contour>
      <point x="298" y="902" type="line"/>
      <point x="273" y="852"/>
      <point x="214" y="778"/>
      <point x="176" y="742" type="curve"/>
      <point x="187" y="712" type="line"/>
      <point x="232" y="740"/>
      <point x="299" y="784"/>
      <point x="343" y="820" type="curve"/>
      <point x="386" y="784"/>
      <point x="453" y="740"/>
      <point x="498" y="712" type="curve"/>
      <point x="509" y="742" type="line"/>
      <point x="471" y="778"/>
      <point x="412" y="852"/>
      <point x="387" y="902" type="curve"/>
    </contour>
    <contour>
      <point x="190" y="340" type="curve" smooth="yes"/>
      <point x="190" y="590"/>
      <point x="260" y="660"/>
      <point x="341" y="660" type="curve" smooth="yes"/>
      <point x="422" y="660"/>
      <point x="491" y="590"/>
      <point x="491" y="340" type="curve" smooth="yes"/>
      <point x="491" y="90"/>
      <point x="422" y="20"/>
      <point x="341" y="20" type="curve" smooth="yes"/>
      <point x="260" y="20"/>
      <point x="190" y="90"/>
    </contour>
    <contour>
      <point x="43" y="340" type="curve" smooth="yes"/>
      <point x="43" y="146"/>
      <point x="151" y="-12"/>
      <point x="341" y="-12" type="curve" smooth="yes"/>
      <point x="531" y="-12"/>
      <point x="638" y="146"/>
      <point x="638" y="340" type="curve" smooth="yes"/>
      <point x="638" y="535"/>
      <point x="531" y="692"/>
      <point x="341" y="692" type="curve" smooth="yes"/>
      <point x="151" y="692"/>
      <point x="43" y="535"/>
    </contour>
  </outline>
</glyph>
<glyph name="Uacute" format="2">
  <advance width="716"/>
  <unicode hex="00DA"/>
  <outline>
    <contour>
      <point x="351" y="906" type="line"/>
      <point x="333" y="859"/>
      <point x="291" y="790"/>
      <point x="259" y="751" type="curve"/>
      <point x="270" y="722" type="line"/>
      <point x="339" y="761"/>
      <point x="457" y="849"/>
      <point x="498" y="889" type="curve"/>
      <point x="492" y="906" type="line"/>
    </contour>
    <contour>
      <point x="591" y="595" type="line" smooth="yes"/>
      <point x="591" y="640"/>
      <point x="595" y="645"/>
      <point x="626" y="645" type="curve" smooth="yes"/>
      <point x="691" y="645" type="line"/>
      <point x="691" y="680" type="line"/>
      <point x="420" y="680" type="line"/>
      <point x="420" y="645" type="line"/>
      <point x="485" y="645" type="line" smooth="yes"/>
      <point x="516" y="645"/>
      <point x="520" y="640"/>
      <point x="520" y="595" type="curve" smooth="yes"/>
      <point x="520" y="274" type="line" smooth="yes"/>
      <point x="520" y="154"/>
      <point x="494" y="31"/>
      <point x="371" y="31" type="curve" smooth="yes"/>
      <point x="268" y="31"/>
      <point x="249" y="128"/>
      <point x="249" y="288" type="curve" smooth="yes"/>
      <point x="249" y="595" type="line" smooth="yes"/>
      <point x="249" y="640"/>
      <point x="253" y="645"/>
      <point x="284" y="645" type="curve" smooth="yes"/>
      <point x="339" y="645" type="line"/>
      <point x="339" y="680" type="line"/>
      <point x="24" y="680" type="line"/>
      <point x="24" y="645" type="line"/>
      <point x="79" y="645" type="line" smooth="yes"/>
      <point x="110" y="645"/>
      <point x="114" y="640"/>
      <point x="114" y="595" type="curve" smooth="yes"/>
      <point x="114" y="269" type="line" smooth="yes"/>
      <point x="114" y="69"/>
      <point x="199" y="-12"/>
      <point x="349" y="-12" type="curve" smooth="yes"/>
      <point x="549" y="-12"/>
      <point x="590" y="118"/>
      <point x="590" y="257" type="curve" smooth="yes"/>
    </contour>
  </outline>
</glyph>
<glyph name="Ucircumflex" format="2">
  <advance width="716"/>
  <unicode hex="00DB"/>
  <outline>
    <contour>
      <point x="333" y="902" type="line"/>
      <point x="308" y="852"/>
      <point x="249" y="778"/>
      <point x="211" y="742" type="curve"/>
      <point x="222" y="712" type="line"/>
      <point x="267" y="740"/>
      <point x="334" y="784"/>
      <point x="378" y="820" type="curve"/>
      <point x="421" y="784"/>
      <point x="488" y="740"/>
      <point x="533" y="712" type="curve"/>
      <point x="544" y="742" type="line"/>
      <point x="506" y="778"/>
      <point x="447" y="852"/>
      <point x="422" y="902" type="curve"/>
    </contour>
    <contour>
      <point x="591" y="595" type="line" smooth="yes"/>
      <point x="591" y="640"/>
      <point x="595" y="645"/>
      <point x="626" y="645" type="curve" smooth="yes"/>
      <point x="691" y="645" type="line"/>
      <point x="691" y="680" type="line"/>
      <point x="420" y="680" type="line"/>
      <point x="420" y="645" type="line"/>
      <point x="485" y="645" type="line" smooth="yes"/>
      <point x="516" y="645"/>
      <point x="520" y="640"/>
      <point x="520" y="595" type="curve" smooth="yes"/>
      <point x="520" y="274" type="line" smooth="yes"/>
      <point x="520" y="154"/>
      <point x="494" y="31"/>
      <point x="371" y="31" type="curve" smooth="yes"/>
      <point x="268" y="31"/>
      <point x="249" y="128"/>
      <point x="249" y="288" type="curve" smooth="yes"/>
      <point x="249" y="595" type="line" smooth="yes"/>
      <point x="249" y="640"/>
      <point x="253" y="645"/>
      <point x="284" y="645" type="curve" smooth="yes"/>
      <point x="339" y="645" type="line"/>
      <point x="339" y="680" type="line"/>
      <point x="24" y="680" type="line"/>
      <point x="24" y="645" type="line"/>
      <point x="79" y="645" type="line" smooth="yes"/>
      <point x="110" y="645"/>
      <point x="114" y="640"/>
      <point x="114" y="595" type="curve" smooth="yes"/>
      <point x="114" y="269" type="line" smooth="yes"/>
      <point x="114" y="69"/>
      <point x="199" y="-12"/>
      <point x="349" y="-12" type="curve" smooth="yes"/>
      <point x="549" y="-12"/>
      <point x="590" y="118"/>
      <point x="590" y="257" type="curve" smooth="yes"/>
    </contour>
  </outline>
</glyph>
<glyph name="Udieresis" format="2">
  <advance width="716"/>
  <unicode hex="00DC"/>
  <outline>
    <contour>
      <point x="408" y="808" type="curve" smooth="yes"/>
      <point x="408" y="779"/>
      <point x="437" y="756"/>
      <point x="475" y="756" type="curve" smooth="yes"/>
      <point x="513" y="756"/>
      <point x="542" y="779"/>
      <point x="542" y="808" type="curve" smooth="yes"/>
      <point x="542" y="837"/>
      <point x="513" y="860"/>
      <point x="475" y="860" type="curve" smooth="yes"/>
      <point x="437" y="860"/>
      <point x="408" y="837"/>
    </contour>
    <contour>
      <point x="214" y="808" type="curve" smooth="yes"/>
      <point x="214" y="779"/>
      <point x="243" y="756"/>
      <point x="281" y="756" type="curve" smooth="yes"/>
      <point x="319" y="756"/>
      <point x="348" y="779"/>
      <point x="348" y="808" type="curve" smooth="yes"/>
      <point x="348" y="837"/>
      <point x="319" y="860"/>
      <point x="281" y="860" type="curve" smooth="yes"/>
      <point x="243" y="860"/>
      <point x="214" y="837"/>
    </contour>
    <contour>
      <point x="591" y="595" type="line" smooth="yes"/>
      <point x="591" y="640"/>
      <point x="595" y="645" name="hr01"/>
      <point x="626" y="645" type="curve" smooth="yes"/>
      <point x="691" y="645" type="line"/>
      <point x="691" y="680" type="line"/>
      <point x="420" y="680" type="line"/>
      <point x="420" y="645" type="line"/>
      <point x="485" y="645" type="line" smooth="yes"/>
      <point x="516" y="645"/>
      <point x="520" y="640"/>
      <point x="520" y="595" type="curve" smooth="yes"/>
      <point x="520" y="274" type="line" smooth="yes"/>
      <point x="520" y="154"/>
      <point x="494" y="31"/>
      <point x="371" y="31" type="curve" smooth="yes"/>
      <point x="268" y="31"/>
      <point x="249" y="128"/>
      <point x="249" y="288" type="curve" smooth="yes"/>
      <point x="249" y="595" type="line" smooth="yes"/>
      <point x="249" y="640"/>
      <point x="253" y="645"/>
      <point x="284" y="645" type="curve" smooth="yes"/>
      <point x="339" y="645" type="line"/>
      <point x="339" y="680" type="line"/>
      <point x="24" y="680" type="line"/>
      <point x="24" y="645" type="line"/>
      <point x="79" y="645" type="line" smooth="yes"/>
      <point x="110" y="645"/>
      <point x="114" y="640"/>
      <point x="114" y="595" type="curve" smooth="yes"/>
      <point x="114" y="269" type="line" smooth="yes"/>
      <point x="114" y="69"/>
      <point x="199" y="-12"/>
      <point x="349" y="-12" type="curve" smooth="yes"/>
      <point x="549" y="-12"/>
      <point x="590" y="118"/>
      <point x="590" y="257" type="curve" smooth="yes"/>
    </contour>
  </outline>
</glyph>
<glyph name="germandbls" format="2">
  <advance width="587"/>
  <unicode hex="00DF"/>
  <outline>
    <contour>
      <point x="390" y="358" type="curve"/>
      <point x="402" y="358" type="line"/>
      <point x="402" y="367" type="line"/>
      <point x="392" y="367" type="line"/>
      <point x="456" y="389"/>
      <point x="508" y="443"/>
      <point x="508" y="512" type="curve" smooth="yes"/>
      <point x="508" y="613"/>
      <point x="432" y="693"/>
      <point x="317" y="693" type="curve" smooth="yes"/>
      <point x="217" y="693"/>
      <point x="111" y="643"/>
      <point x="111" y="498" type="curve" smooth="yes"/>
      <point x="111" y="85" type="line" smooth="yes"/>
      <point x="111" y="40"/>
      <point x="107" y="35"/>
      <point x="76" y="35" type="curve" smooth="yes"/>
      <point x="31" y="35" type="line"/>
      <point x="31" y="0" type="line"/>
      <point x="236" y="0" type="line"/>
      <point x="236" y="552" type="line" smooth="yes"/>
      <point x="236" y="620"/>
      <point x="263" y="667"/>
      <point x="310" y="667" type="curve" smooth="yes"/>
      <point x="374" y="667"/>
      <point x="382" y="594"/>
      <point x="382" y="508" type="curve" smooth="yes"/>
      <point x="382" y="415"/>
      <point x="340" y="373"/>
      <point x="295" y="373" type="curve" smooth="yes"/>
      <point x="270" y="373" type="line"/>
      <point x="270" y="344" type="line"/>
      <point x="299" y="344" type="line" smooth="yes"/>
      <point x="379" y="344"/>
      <point x="428" y="308" name="hr01"/>
      <point x="428" y="175" type="curve" smooth="yes"/>
      <point x="428" y="65"/>
      <point x="416" y="19"/>
      <point x="389" y="19" type="curve" smooth="yes"/>
      <point x="385" y="19"/>
      <point x="383" y="42"/>
      <point x="382" y="57" type="curve" smooth="yes"/>
      <point x="381" y="78"/>
      <point x="362" y="107" name="hr02"/>
      <point x="320" y="107" type="curve" smooth="yes"/>
      <point x="279" y="107"/>
      <point x="252" y="87"/>
      <point x="252" y="54" type="curve" smooth="yes"/>
      <point x="252" y="10"/>
      <point x="310" y="-12"/>
      <point x="380" y="-12" type="curve" smooth="yes"/>
      <point x="470" y="-12"/>
      <point x="562" y="60"/>
      <point x="562" y="174" type="curve" smooth="yes"/>
      <point x="562" y="270"/>
      <point x="489" y="338"/>
    </contour>
  </outline>
</glyph>
<glyph name="acircumflex" format="2">
  <advance width="547"/>
  <unicode hex="00E2"/>
  <outline>
    <contour>
      <point x="219" y="702" type="line"/>
      <point x="194" y="652"/>
      <point x="135" y="578"/>
      <point x="97" y="542" type="curve"/>
      <point x="108" y="512" type="line"/>
      <point x="153" y="540"/>
      <point x="220" y="584"/>
      <point x="264" y="619" type="curve"/>
      <point x="307" y="584"/>
      <point x="374" y="540"/>
      <point x="419" y="512" type="curve"/>
      <point x="430" y="542" type="line"/>
      <point x="392" y="578"/>
      <point x="333" y="652"/>
      <point x="308" y="702" type="curve"/>
    </contour>
    <contour>
      <point x="444" y="316" type="line" smooth="yes"/>
      <point x="444" y="400"/>
      <point x="375" y="462"/>
      <point x="257" y="462" type="curve" smooth="yes"/>
      <point x="123" y="462"/>
      <point x="68" y="402"/>
      <point x="68" y="357" type="curve" smooth="yes"/>
      <point x="68" y="326"/>
      <point x="88" y="296"/>
      <point x="138" y="296" type="curve" smooth="yes"/>
      <point x="173" y="296" name="hr01"/>
      <point x="199" y="317" name="hr02"/>
      <point x="199" y="343" type="curve" smooth="yes"/>
      <point x="199" y="351"/>
      <point x="193" y="362"/>
      <point x="186" y="372" type="curve"/>
      <point x="185" y="374" type="line"/>
      <point x="186" y="374" type="line"/>
      <point x="184" y="378" type="line"/>
      <point x="181" y="382"/>
      <point x="179" y="386" name="hr03"/>
      <point x="179" y="394" type="curve" smooth="yes"/>
      <point x="179" y="417"/>
      <point x="202" y="431"/>
      <point x="249" y="431" type="curve" smooth="yes"/>
      <point x="307" y="431"/>
      <point x="324" y="377"/>
      <point x="324" y="301" type="curve" smooth="yes"/>
      <point x="324" y="290" type="line"/>
      <point x="336" y="290" type="line"/>
      <point x="252" y="270" type="line" smooth="yes"/>
      <point x="138" y="242"/>
      <point x="42" y="203" name="hr04"/>
      <point x="42" y="107" type="curve" smooth="yes"/>
      <point x="42" y="39"/>
      <point x="103" y="-12"/>
      <point x="188" y="-12" type="curve" smooth="yes"/>
      <point x="260" y="-12"/>
      <point x="307" y="13"/>
      <point x="337" y="43" type="curve"/>
      <point x="352" y="8"/>
      <point x="382" y="-12"/>
      <point x="437" y="-12" type="curve" smooth="yes"/>
      <point x="493" y="-12"/>
      <point x="543" y="27"/>
      <point x="553" y="89" type="curve"/>
      <point x="499" y="102" type="line"/>
      <point x="490" y="61"/>
      <point x="479" y="34" name="hr05"/>
      <point x="465" y="34" type="curve" smooth="yes"/>
      <point x="451" y="34"/>
      <point x="444" y="55"/>
      <point x="444" y="124" type="curve" smooth="yes"/>
    </contour>
    <contour>
      <point x="173" y="118" type="curve" smooth="yes"/>
      <point x="173" y="215"/>
      <point x="218" y="230"/>
      <point x="300" y="251" type="curve" smooth="yes"/>
      <point x="308" y="253"/>
      <point x="315" y="255"/>
      <point x="324" y="257" type="curve"/>
      <point x="324" y="132" type="line" smooth="yes"/>
      <point x="324" y="81"/>
      <point x="265" y="24" name="hr06"/>
      <point x="224" y="24" type="curve" smooth="yes"/>
      <point x="188" y="24"/>
      <point x="173" y="56"/>
    </contour>
  </outline>
</glyph>
<glyph name="adieresis" format="2">
  <advance width="547"/>
  <unicode hex="00E4"/>
  <outline>
    <contour>
      <point x="294" y="588" type="curve" smooth="yes"/>
      <point x="294" y="559"/>
      <point x="323" y="536"/>
      <point x="361" y="536" type="curve" smooth="yes"/>
      <point x="399" y="536"/>
      <point x="428" y="559"/>
      <point x="428" y="588" type="curve" smooth="yes"/>
      <point x="428" y="617"/>
      <point x="399" y="640"/>
      <point x="361" y="640" type="curve" smooth="yes"/>
      <point x="323" y="640"/>
      <point x="294" y="617"/>
    </contour>
    <contour>
      <point x="100" y="588" type="curve" smooth="yes"/>
      <point x="100" y="559"/>
      <point x="129" y="536"/>
      <point x="167" y="536" type="curve" smooth="yes"/>
      <point x="205" y="536"/>
      <point x="234" y="559"/>
      <point x="234" y="588" type="curve" smooth="yes"/>
      <point x="234" y="617"/>
      <point x="205" y="640"/>
      <point x="167" y="640" type="curve" smooth="yes"/>
      <point x="129" y="640"/>
      <point x="100" y="617"/>
    </contour>
    <contour>
      <point x="444" y="316" type="line" smooth="yes"/>
      <point x="444" y="400"/>
      <point x="375" y="462" name="hr01"/>
      <point x="257" y="462" type="curve" smooth="yes"/>
      <point x="123" y="462"/>
      <point x="68" y="402"/>
      <point x="68" y="357" type="curve" smooth="yes"/>
      <point x="68" y="326"/>
      <point x="88" y="296"/>
      <point x="138" y="296" type="curve" smooth="yes"/>
      <point x="173" y="296"/>
      <point x="199" y="317"/>
      <point x="199" y="343" type="curve" smooth="yes"/>
      <point x="199" y="351" name="hr03"/>
      <point x="193" y="362"/>
      <point x="186" y="372" type="curve"/>
      <point x="185" y="374" type="line"/>
      <point x="186" y="374" type="line"/>
      <point x="184" y="378" type="line"/>
      <point x="181" y="382"/>
      <point x="179" y="386"/>
      <point x="179" y="394" type="curve" smooth="yes"/>
      <point x="179" y="417" name="hr04"/>
      <point x="202" y="431"/>
      <point x="249" y="431" type="curve" smooth="yes"/>
      <point x="307" y="431"/>
      <point x="324" y="377"/>
      <point x="324" y="301" type="curve" smooth="yes"/>
      <point x="324" y="290" type="line"/>
      <point x="336" y="290" type="line"/>
      <point x="252" y="270" type="line" smooth="yes"/>
      <point x="138" y="242"/>
      <point x="42" y="203"/>
      <point x="42" y="107" type="curve" smooth="yes"/>
      <point x="42" y="39" name="hr05"/>
      <point x="103" y="-12"/>
      <point x="188" y="-12" type="curve" smooth="yes"/>
      <point x="260" y="-12"/>
      <point x="307" y="13"/>
      <point x="337" y="43" type="curve"/>
      <point x="352" y="8"/>
      <point x="382" y="-12"/>
      <point x="437" y="-12" type="curve" smooth="yes"/>
      <point x="493" y="-12"/>
      <point x="543" y="27"/>
      <point x="553" y="89" type="curve"/>
      <point x="499" y="102" type="line"/>
      <point x="490" y="61"/>
      <point x="479" y="34"/>
      <point x="465" y="34" type="curve" smooth="yes"/>
      <point x="451" y="34" name="hr06"/>
      <point x="444" y="55"/>
      <point x="444" y="124" type="curve" smooth="yes"/>
    </contour>
    <contour>
      <point x="173" y="118" type="curve" smooth="yes"/>
      <point x="173" y="215"/>
      <point x="218" y="230"/>
      <point x="300" y="251" type="curve" smooth="yes"/>
      <point x="308" y="253"/>
      <point x="315" y="255"/>
      <point x="324" y="257" type="curve"/>
      <point x="324" y="132" type="line" smooth="yes"/>
      <point x="324" y="81"/>
      <point x="265" y="24"/>
      <point x="224" y="24" type="curve" smooth="yes"/>
      <point x="188" y="24" name="hr07"/>
      <point x="173" y="56"/>
    </contour>
  </outline>
</glyph>
<glyph name="eacute" format="2">
  <advance width="499"/>
  <unicode hex="00E9"/>
  <outline>
    <contour>
      <point x="235" y="706" type="line"/>
      <point x="216" y="659"/>
      <point x="175" y="590"/>
      <point x="142" y="551" type="curve"/>
      <point x="153" y="522" type="line"/>
      <point x="223" y="561"/>
      <point x="341" y="649"/>
      <point x="382" y="689" type="curve"/>
      <point x="376" y="706" type="line"/>
    </contour>
    <contour>
      <point x="171" y="237" type="line"/>
      <point x="156" y="237" type="line"/>
      <point x="463" y="237" type="line"/>
      <point x="463" y="251" type="line" smooth="yes"/>
      <point x="463" y="351"/>
      <point x="401" y="462"/>
      <point x="260" y="462" type="curve" smooth="yes"/>
      <point x="121" y="462"/>
      <point x="33" y="355"/>
      <point x="33" y="225" type="curve" smooth="yes"/>
      <point x="33" y="95"/>
      <point x="120" y="-12"/>
      <point x="260" y="-12" type="curve" smooth="yes"/>
      <point x="345" y="-12"/>
      <point x="430" y="43"/>
      <point x="458" y="130" type="curve"/>
      <point x="399" y="150" type="line"/>
      <point x="371" y="66"/>
      <point x="315" y="25"/>
      <point x="272" y="25" type="curve" smooth="yes"/>
      <point x="218" y="25"/>
      <point x="171" y="75"/>
      <point x="171" y="224" type="curve" smooth="yes"/>
    </contour>
    <contour>
      <point x="329" y="312" type="curve" smooth="yes"/>
      <point x="329" y="275"/>
      <point x="319" y="267"/>
      <point x="296" y="267" type="curve" smooth="yes"/>
      <point x="171" y="267" type="line"/>
      <point x="181" y="380"/>
      <point x="214" y="436"/>
      <point x="260" y="436" type="curve" smooth="yes"/>
      <point x="302" y="436"/>
      <point x="329" y="380"/>
    </contour>
  </outline>
</glyph>
<glyph name="ecircumflex" format="2">
  <advance width="499"/>
  <unicode hex="00EA"/>
  <outline>
    <contour>
      <point x="217" y="702" type="line"/>
      <point x="192" y="652"/>
      <point x="133" y="578"/>
      <point x="95" y="542" type="curve"/>
      <point x="106" y="512" type="line"/>
      <point x="151" y="540"/>
      <point x="218" y="584"/>
      <point x="262" y="619" type="curve"/>
      <point x="305" y="584"/>
      <point x="372" y="540"/>
      <point x="417" y="512" type="curve"/>
      <point x="428" y="542" type="line"/>
      <point x="390" y="578"/>
      <point x="331" y="652"/>
      <point x="306" y="702" type="curve"/>
    </contour>
    <contour>
      <point x="171" y="237" type="line"/>
      <point x="156" y="237" type="line"/>
      <point x="463" y="237" type="line"/>
      <point x="463" y="251" type="line" smooth="yes"/>
      <point x="463" y="351"/>
      <point x="401" y="462"/>
      <point x="260" y="462" type="curve" smooth="yes"/>
      <point x="121" y="462"/>
      <point x="33" y="355"/>
      <point x="33" y="225" type="curve" smooth="yes"/>
      <point x="33" y="95"/>
      <point x="120" y="-12"/>
      <point x="260" y="-12" type="curve" smooth="yes"/>
      <point x="345" y="-12"/>
      <point x="430" y="43"/>
      <point x="458" y="130" type="curve"/>
      <point x="399" y="150" type="line"/>
      <point x="371" y="66"/>
      <point x="315" y="25"/>
      <point x="272" y="25" type="curve" smooth="yes"/>
      <point x="218" y="25"/>
      <point x="171" y="75"/>
      <point x="171" y="224" type="curve" smooth="yes"/>
    </contour>
    <contour>
      <point x="329" y="312" type="curve" smooth="yes"/>
      <point x="329" y="275"/>
      <point x="319" y="267"/>
      <point x="296" y="267" type="curve" smooth="yes"/>
      <point x="171" y="267" type="line"/>
      <point x="181" y="380"/>
      <point x="214" y="436"/>
      <point x="260" y="436" type="curve" smooth="yes"/>
      <point x="302" y="436"/>
      <point x="329" y="380"/>
    </contour>
  </outline>
</glyph>
<glyph name="edieresis" format="2">
  <advance width="499"/>
  <unicode hex="00EB"/>
  <outline>
    <contour>
      <point x="292" y="588" type="curve" smooth="yes"/>
      <point x="292" y="559"/>
      <point x="321" y="536"/>
      <point x="359" y="536" type="curve" smooth="yes"/>
      <point x="397" y="536"/>
      <point x="426" y="559"/>
      <point x="426" y="588" type="curve" smooth="yes"/>
      <point x="426" y="617"/>
      <point x="397" y="640"/>
      <point x="359" y="640" type="curve" smooth="yes"/>
      <point x="321" y="640"/>
      <point x="292" y="617"/>
    </contour>
    <contour>
      <point x="98" y="588" type="curve" smooth="yes"/>
      <point x="98" y="559"/>
      <point x="127" y="536"/>
      <point x="165" y="536" type="curve" smooth="yes"/>
      <point x="203" y="536"/>
      <point x="232" y="559"/>
      <point x="232" y="588" type="curve" smooth="yes"/>
      <point x="232" y="617"/>
      <point x="203" y="640"/>
      <point x="165" y="640" type="curve" smooth="yes"/>
      <point x="127" y="640"/>
      <point x="98" y="617"/>
    </contour>
    <contour>
      <point x="171" y="237" type="line"/>
      <point x="156" y="237" type="line"/>
      <point x="463" y="237" type="line" name="hr01"/>
      <point x="463" y="251" type="line" smooth="yes"/>
      <point x="463" y="351"/>
      <point x="401" y="462"/>
      <point x="260" y="462" type="curve" smooth="yes"/>
      <point x="121" y="462"/>
      <point x="33" y="355"/>
      <point x="33" y="225" type="curve" smooth="yes"/>
      <point x="33" y="95"/>
      <point x="120" y="-12"/>
      <point x="260" y="-12" type="curve" smooth="yes"/>
      <point x="345" y="-12"/>
      <point x="430" y="43"/>
      <point x="458" y="130" type="curve"/>
      <point x="399" y="150" type="line"/>
      <point x="371" y="66"/>
      <point x="315" y="25"/>
      <point x="272" y="25" type="curve" smooth="yes"/>
      <point x="218" y="25"/>
      <point x="171" y="75"/>
      <point x="171" y="224" type="curve" smooth="yes"/>
    </contour>
    <contour>
      <point x="329" y="312" type="curve" smooth="yes"/>
      <point x="329" y="275"/>
      <point x="319" y="267"/>
      <point x="296" y="267" type="curve" smooth="yes"/>
      <point x="171" y="267" type="line"/>
      <point x="181" y="380"/>
      <point x="214" y="436"/>
      <point x="260" y="436" type="curve" smooth="yes"/>
      <point x="302" y="436"/>
      <point x="329" y="380"/>
    </contour>
  </outline>
</glyph>
<glyph name="iacute" format="2">
  <advance width="330"/>
  <unicode hex="00ED"/>
  <outline>
    <contour>
      <point x="123" y="706" type="line"/>
      <point x="104" y="659"/>
      <point x="63" y="590"/>
      <point x="30" y="551" type="curve"/>
      <point x="41" y="522" type="line"/>
      <point x="111" y="561"/>
      <point x="229" y="649"/>
      <point x="270" y="689" type="curve"/>
      <point x="264" y="706" type="line"/>
    </contour>
    <contour>
      <point x="270" y="35" type="line" smooth="yes"/>
      <point x="239" y="35"/>
      <point x="235" y="40"/>
      <point x="235" y="85" type="curve" smooth="yes"/>
      <point x="235" y="450" type="line"/>
      <point x="35" y="450" type="line"/>
      <point x="35" y="415" type="line"/>
      <point x="80" y="415" type="line" smooth="yes"/>
      <point x="111" y="415"/>
      <point x="115" y="410" name="hr01"/>
      <point x="115" y="365" type="curve" smooth="yes"/>
      <point x="115" y="85" type="line" smooth="yes"/>
      <point x="115" y="45"/>
      <point x="108" y="35"/>
      <point x="80" y="35" type="curve" smooth="yes"/>
      <point x="35" y="35" type="line"/>
      <point x="35" y="0" type="line"/>
      <point x="315" y="0" type="line"/>
      <point x="315" y="35" type="line"/>
    </contour>
  </outline>
</glyph>
<glyph name="ograve" format="2">
  <advance width="518"/>
  <unicode hex="00F2"/>
  <outline>
    <contour>
      <point x="289" y="706" type="curve"/>
      <point x="148" y="706" type="line"/>
      <point x="142" y="689" type="line"/>
      <point x="183" y="649"/>
      <point x="301" y="561"/>
      <point x="371" y="522" type="curve"/>
      <point x="382" y="551" type="line"/>
      <point x="349" y="590"/>
      <point x="308" y="659"/>
    </contour>
    <contour>
      <point x="171" y="225" type="curve" smooth="yes"/>
      <point x="171" y="375"/>
      <point x="206" y="436"/>
      <point x="260" y="436" type="curve" smooth="yes"/>
      <point x="314" y="436"/>
      <point x="349" y="375"/>
      <point x="349" y="225" type="curve" smooth="yes"/>
      <point x="349" y="75"/>
      <point x="314" y="14"/>
      <point x="260" y="14" type="curve" smooth="yes"/>
      <point x="206" y="14"/>
      <point x="171" y="75"/>
    </contour>
    <contour>
      <point x="33" y="225" type="curve" smooth="yes"/>
      <point x="33" y="95"/>
      <point x="121" y="-12"/>
      <point x="260" y="-12" type="curve" smooth="yes"/>
      <point x="399" y="-12"/>
      <point x="487" y="95"/>
      <point x="487" y="225" type="curve" smooth="yes"/>
      <point x="487" y="355"/>
      <point x="399" y="462"/>
      <point x="260" y="462" type="curve" smooth="yes"/>
      <point x="121" y="462"/>
      <point x="33" y="355"/>
    </contour>
  </outline>
</glyph>
<glyph name="oacute" format="2">
  <advance width="518"/>
  <unicode hex="00F3"/>
  <outline>
    <contour>
      <point x="235" y="706" type="line"/>
      <point x="216" y="659"/>
      <point x="175" y="590"/>
      <point x="142" y="551" type="curve"/>
      <point x="153" y="522" type="line"/>
      <point x="223" y="561"/>
      <point x="341" y="649"/>
      <point x="382" y="689" type="curve"/>
      <point x="376" y="706" type="line"/>
    </contour>
    <contour>
      <point x="171" y="225" type="curve" smooth="yes"/>
      <point x="171" y="375"/>
      <point x="206" y="436"/>
      <point x="260" y="436" type="curve" smooth="yes"/>
      <point x="314" y="436"/>
      <point x="349" y="375"/>
      <point x="349" y="225" type="curve" smooth="yes"/>
      <point x="349" y="75"/>
      <point x="314" y="14"/>
      <point x="260" y="14" type="curve" smooth="yes"/>
      <point x="206" y="14"/>
      <point x="171" y="75"/>
    </contour>
    <contour>
      <point x="33" y="225" type="curve" smooth="yes"/>
      <point x="33" y="95"/>
      <point x="121" y="-12"/>
      <point x="260" y="-12" type="curve" smooth="yes"/>
      <point x="399" y="-12"/>
      <point x="487" y="95"/>
      <point x="487" y="225" type="curve" smooth="yes"/>
      <point x="487" y="355"/>
      <point x="399" y="462"/>
      <point x="260" y="462" type="curve" smooth="yes"/>
      <point x="121" y="462"/>
      <point x="33" y="355"/>
    </contour>
  </outline>
</glyph>
<glyph name="ocircumflex" format="2">
  <advance width="518"/>
  <unicode hex="00F4"/>
  <outline>
    <contour>
      <point x="217" y="702" type="line"/>
      <point x="192" y="652"/>
      <point x="133" y="578"/>
      <point x="95" y="542" type="curve"/>
      <point x="106" y="512" type="line"/>
      <point x="151" y="540"/>
      <point x="218" y="584"/>
      <point x="262" y="619" type="curve"/>
      <point x="305" y="584"/>
      <point x="372" y="540"/>
      <point x="417" y="512" type="curve"/>
      <point x="428" y="542" type="line"/>
      <point x="390" y="578"/>
      <point x="331" y="652"/>
      <point x="306" y="702" type="curve"/>
    </contour>
    <contour>
      <point x="171" y="225" type="curve" smooth="yes"/>
      <point x="171" y="375"/>
      <point x="206" y="436"/>
      <point x="260" y="436" type="curve" smooth="yes"/>
      <point x="314" y="436"/>
      <point x="349" y="375"/>
      <point x="349" y="225" type="curve" smooth="yes"/>
      <point x="349" y="75"/>
      <point x="314" y="14"/>
      <point x="260" y="14" type="curve" smooth="yes"/>
      <point x="206" y="14"/>
      <point x="171" y="75"/>
    </contour>
    <contour>
      <point x="33" y="225" type="curve" smooth="yes"/>
      <point x="33" y="95"/>
      <point x="121" y="-12"/>
      <point x="260" y="-12" type="curve" smooth="yes"/>
      <point x="399" y="-12"/>
      <point x="487" y="95"/>
      <point x="487" y="225" type="curve" smooth="yes"/>
      <point x="487" y="355"/>
      <point x="399" y="462"/>
      <point x="260" y="462" type="curve" smooth="yes"/>
      <point x="121" y="462"/>
      <point x="33" y="355"/>
    </contour>
  </outline>
</glyph>
<glyph name="odieresis" format="2">
  <advance width="518"/>
  <unicode hex="00F6"/>
  <outline>
    <contour>
      <point x="292" y="588" type="curve" smooth="yes"/>
      <point x="292" y="559"/>
      <point x="321" y="536"/>
      <point x="359" y="536" type="curve" smooth="yes"/>
      <point x="397" y="536"/>
      <point x="426" y="559"/>
      <point x="426" y="588" type="curve" smooth="yes"/>
      <point x="426" y="617"/>
      <point x="397" y="640"/>
      <point x="359" y="640" type="curve" smooth="yes"/>
      <point x="321" y="640"/>
      <point x="292" y="617"/>
    </contour>
    <contour>
      <point x="98" y="588" type="curve" smooth="yes"/>
      <point x="98" y="559"/>
      <point x="127" y="536"/>
      <point x="165" y="536" type="curve" smooth="yes"/>
      <point x="203" y="536"/>
      <point x="232" y="559"/>
      <point x="232" y="588" type="curve" smooth="yes"/>
      <point x="232" y="617"/>
      <point x="203" y="640"/>
      <point x="165" y="640" type="curve" smooth="yes"/>
      <point x="127" y="640"/>
      <point x="98" y="617"/>
    </contour>
    <contour>
      <point x="171" y="225" type="curve" smooth="yes"/>
      <point x="171" y="375"/>
      <point x="206" y="436" name="hr01"/>
      <point x="260" y="436" type="curve" smooth="yes"/>
      <point x="314" y="436"/>
      <point x="349" y="375"/>
      <point x="349" y="225" type="curve" smooth="yes"/>
      <point x="349" y="75"/>
      <point x="314" y="14"/>
      <point x="260" y="14" type="curve" smooth="yes"/>
      <point x="206" y="14"/>
      <point x="171" y="75"/>
    </contour>
    <contour>
      <point x="33" y="225" type="curve" smooth="yes"/>
      <point x="33" y="95"/>
      <point x="121" y="-12"/>
      <point x="260" y="-12" type="curve" smooth="yes"/>
      <point x="399" y="-12"/>
      <point x="487" y="95"/>
      <point x="487" y="225" type="curve" smooth="yes"/>
      <point x="487" y="355"/>
      <point x="399" y="462"/>
      <point x="260" y="462" type="curve" smooth="yes"/>
      <point x="121" y="462"/>
      <point x="33" y="355"/>
    </contour>
  </outline>
</glyph>
<glyph name="oslash" format="2">
  <advance width="504"/>
  <unicode hex="00F8"/>
  <anchor x="252" y="530" name="t.asciicircum_1"/>
  <anchor x="252" y="530" name="t.dieresis"/>
  <outline>
    <contour>
      <point x="25" y="225" type="curve" smooth="yes"/>
      <point x="25" y="151"/>
      <point x="56" y="82"/>
      <point x="109" y="36" type="curve"/>
      <point x="112" y="36" type="line"/>
      <point x="106" y="36" type="line"/>
      <point x="54" y="-54" type="line"/>
      <point x="110" y="-86" type="line"/>
      <point x="162" y="5" type="line"/>
      <point x="187" y="-6"/>
      <point x="218" y="-12"/>
      <point x="252" y="-12" type="curve" smooth="yes"/>
      <point x="391" y="-12"/>
      <point x="479" y="95"/>
      <point x="479" y="225" type="curve" smooth="yes"/>
      <point x="479" y="299"/>
      <point x="448" y="368"/>
      <point x="395" y="414" type="curve"/>
      <point x="392" y="414" type="line"/>
      <point x="398" y="414" type="line"/>
      <point x="450" y="504" type="line"/>
      <point x="394" y="536" type="line"/>
      <point x="342" y="445" type="line"/>
      <point x="317" y="456"/>
      <point x="286" y="462"/>
      <point x="252" y="462" type="curve" smooth="yes"/>
      <point x="113" y="462"/>
      <point x="25" y="355"/>
    </contour>
    <contour>
      <point x="192" y="58" type="curve"/>
      <point x="217" y="102"/>
      <point x="243" y="145"/>
      <point x="268" y="189" type="curve" smooth="yes"/>
      <point x="290" y="228"/>
      <point x="314" y="268"/>
      <point x="336" y="307" type="curve"/>
      <point x="339" y="284"/>
      <point x="341" y="256"/>
      <point x="341" y="225" type="curve" smooth="yes"/>
      <point x="341" y="75"/>
      <point x="306" y="14"/>
      <point x="252" y="14" type="curve" smooth="yes"/>
      <point x="231" y="14"/>
      <point x="210" y="28"/>
    </contour>
    <contour>
      <point x="168" y="143" type="line"/>
      <point x="165" y="166"/>
      <point x="163" y="194"/>
      <point x="163" y="225" type="curve" smooth="yes"/>
      <point x="163" y="375"/>
      <point x="198" y="436"/>
      <point x="252" y="436" type="curve" smooth="yes"/>
      <point x="273" y="436"/>
      <point x="294" y="422"/>
      <point x="312" y="392" type="curve"/>
    </contour>
  </outline>
</glyph>
<glyph name="ugrave" format="2">
  <advance width="582"/>
  <unicode hex="00F9"/>
  <outline>
    <contour>
      <point x="317" y="706" type="curve"/>
      <point x="176" y="706" type="line"/>
      <point x="170" y="689" type="line"/>
      <point x="211" y="649"/>
      <point x="329" y="561"/>
      <point x="399" y="522" type="curve"/>
      <point x="410" y="551" type="line"/>
      <point x="377" y="590"/>
      <point x="336" y="659"/>
    </contour>
    <contour>
      <point x="396" y="96" type="curve"/>
      <point x="381" y="96" type="line"/>
      <point x="390" y="96" type="line"/>
      <point x="375" y="96" type="line"/>
      <point x="375" y="0" type="line"/>
      <point x="555" y="0" type="line"/>
      <point x="555" y="35" type="line"/>
      <point x="520" y="35" type="line" smooth="yes"/>
      <point x="489" y="35"/>
      <point x="485" y="42"/>
      <point x="485" y="87" type="curve" smooth="yes"/>
      <point x="485" y="450" type="line"/>
      <point x="289" y="450" type="line"/>
      <point x="289" y="415" type="line"/>
      <point x="334" y="415" type="line" smooth="yes"/>
      <point x="365" y="415"/>
      <point x="369" y="410"/>
      <point x="369" y="365" type="curve" smooth="yes"/>
      <point x="369" y="214" type="line" smooth="yes"/>
      <point x="369" y="154"/>
      <point x="336" y="32"/>
      <point x="262" y="32" type="curve" smooth="yes"/>
      <point x="219" y="32"/>
      <point x="203" y="68"/>
      <point x="203" y="175" type="curve" smooth="yes"/>
      <point x="203" y="450" type="line"/>
      <point x="13" y="450" type="line"/>
      <point x="13" y="415" type="line"/>
      <point x="48" y="415" type="line" smooth="yes"/>
      <point x="79" y="415"/>
      <point x="83" y="412"/>
      <point x="83" y="367" type="curve" smooth="yes"/>
      <point x="83" y="171" type="line" smooth="yes"/>
      <point x="83" y="67"/>
      <point x="116" y="-12"/>
      <point x="232" y="-12" type="curve" smooth="yes"/>
      <point x="318" y="-12"/>
      <point x="371" y="36"/>
    </contour>
  </outline>
</glyph>
<glyph name="ucircumflex" format="2">
  <advance width="582"/>
  <unicode hex="00FB"/>
  <outline>
    <contour>
      <point x="245" y="702" type="line"/>
      <point x="220" y="652"/>
      <point x="161" y="578"/>
      <point x="123" y="542" type="curve"/>
      <point x="134" y="512" type="line"/>
      <point x="179" y="540"/>
      <point x="246" y="584"/>
      <point x="290" y="619" type="curve"/>
      <point x="333" y="584"/>
      <point x="400" y="540"/>
      <point x="445" y="512" type="curve"/>
      <point x="456" y="542" type="line"/>
      <point x="418" y="578"/>
      <point x="359" y="652"/>
      <point x="334" y="702" type="curve"/>
    </contour>
    <contour>
      <point x="396" y="96" type="curve"/>
      <point x="381" y="96" type="line"/>
      <point x="390" y="96" type="line"/>
      <point x="375" y="96" type="line"/>
      <point x="375" y="0" type="line"/>
      <point x="555" y="0" type="line"/>
      <point x="555" y="35" type="line"/>
      <point x="520" y="35" type="line" smooth="yes"/>
      <point x="489" y="35"/>
      <point x="485" y="42"/>
      <point x="485" y="87" type="curve" smooth="yes"/>
      <point x="485" y="450" type="line"/>
      <point x="289" y="450" type="line"/>
      <point x="289" y="415" type="line"/>
      <point x="334" y="415" type="line" smooth="yes"/>
      <point x="365" y="415"/>
      <point x="369" y="410" name="hr01"/>
      <point x="369" y="365" type="curve" smooth="yes"/>
      <point x="369" y="214" type="line" smooth="yes"/>
      <point x="369" y="154"/>
      <point x="336" y="32"/>
      <point x="262" y="32" type="curve" smooth="yes"/>
      <point x="219" y="32"/>
      <point x="203" y="68"/>
      <point x="203" y="175" type="curve" smooth="yes"/>
      <point x="203" y="450" type="line"/>
      <point x="13" y="450" type="line"/>
      <point x="13" y="415" type="line"/>
      <point x="48" y="415" type="line" smooth="yes"/>
      <point x="79" y="415"/>
      <point x="83" y="412"/>
      <point x="83" y="367" type="curve" smooth="yes"/>
      <point x="83" y="171" type="line" smooth="yes"/>
      <point x="83" y="67"/>
      <point x="116" y="-12"/>
      <point x="232" y="-12" type="curve" smooth="yes"/>
      <point x="318" y="-12"/>
      <point x="371" y="36"/>
    </contour>
  </outline>
</glyph>
<glyph name="udieresis" format="2">
  <advance width="582"/>
  <unicode hex="00FC"/>
  <outline>
    <contour>
      <point x="300" y="588" type="curve" smooth="yes"/>
      <point x="300" y="559"/>
      <point x="329" y="536"/>
      <point x="367" y="536" type="curve" smooth="yes"/>
      <point x="405" y="536"/>
      <point x="434" y="559"/>
      <point x="434" y="588" type="curve" smooth="yes"/>
      <point x="434" y="617"/>
      <point x="405" y="640"/>
      <point x="367" y="640" type="curve" smooth="yes"/>
      <point x="329" y="640"/>
      <point x="300" y="617"/>
    </contour>
    <contour>
      <point x="106" y="588" type="curve" smooth="yes"/>
      <point x="106" y="559"/>
      <point x="135" y="536"/>
      <point x="173" y="536" type="curve" smooth="yes"/>
      <point x="211" y="536"/>
      <point x="240" y="559"/>
      <point x="240" y="588" type="curve" smooth="yes"/>
      <point x="240" y="617"/>
      <point x="211" y="640"/>
      <point x="173" y="640" type="curve" smooth="yes"/>
      <point x="135" y="640"/>
      <point x="106" y="617"/>
    </contour>
    <contour>
      <point x="396" y="96" type="curve"/>
      <point x="381" y="96" type="line"/>
      <point x="390" y="96" type="line"/>
      <point x="375" y="96" type="line"/>
      <point x="375" y="0" type="line"/>
      <point x="555" y="0" type="line"/>
      <point x="555" y="35" type="line"/>
      <point x="520" y="35" type="line" smooth="yes"/>
      <point x="489" y="35"/>
      <point x="485" y="42"/>
      <point x="485" y="87" type="curve" smooth="yes"/>
      <point x="485" y="450" type="line"/>
      <point x="289" y="450" type="line"/>
      <point x="289" y="415" type="line"/>
      <point x="334" y="415" type="line" smooth="yes"/>
      <point x="365" y="415"/>
      <point x="369" y="410"/>
      <point x="369" y="365" type="curve" smooth="yes"/>
      <point x="369" y="214" type="line" smooth="yes" name="hr02"/>
      <point x="369" y="154"/>
      <point x="336" y="32"/>
      <point x="262" y="32" type="curve" smooth="yes"/>
      <point x="219" y="32"/>
      <point x="203" y="68"/>
      <point x="203" y="175" type="curve" smooth="yes"/>
      <point x="203" y="450" type="line"/>
      <point x="13" y="450" type="line"/>
      <point x="13" y="415" type="line"/>
      <point x="48" y="415" type="line" smooth="yes"/>
      <point x="79" y="415"/>
      <point x="83" y="412"/>
      <point x="83" y="367" type="curve" smooth="yes"/>
      <point x="83" y="171" type="line" smooth="yes"/>
      <point x="83" y="67"/>
      <point x="116" y="-12"/>
      <point x="232" y="-12" type="curve" smooth="yes"/>
      <point x="318" y="-12"/>
      <point x="371" y="36"/>
    </contour>
  </outline>
</glyph>
<glyph name="yacute" format="2">
  <advance width="508"/>
  <unicode hex="00FD"/>
  <outline>
    <contour>
      <point x="250" y="706" type="line"/>
      <point x="231" y="659"/>
      <point x="190" y="590"/>
      <point x="157" y="551" type="curve"/>
      <point x="168" y="522" type="line"/>
      <point x="238" y="561"/>
      <point x="356" y="649"/>
      <point x="397" y="689" type="curve"/>
      <point x="391" y="706" type="line"/>
    </contour>
    <contour>
      <point x="33" y="-72" type="curve" smooth="yes"/>
      <point x="-14" y="-72"/>
      <point x="-34" y="-103"/>
      <point x="-34" y="-132" type="curve" smooth="yes"/>
      <point x="-34" y="-194" name="hr01"/>
      <point x="27" y="-225"/>
      <point x="93" y="-225" type="curve" smooth="yes"/>
      <point x="193" y="-225"/>
      <point x="226" y="-149"/>
      <point x="282" y="-19" type="curve" smooth="yes"/>
      <point x="444" y="368" type="line" smooth="yes"/>
      <point x="460" y="407"/>
      <point x="465" y="415"/>
      <point x="499" y="415" type="curve" smooth="yes"/>
      <point x="523" y="415" type="line"/>
      <point x="523" y="450" type="line"/>
      <point x="298" y="450" type="line"/>
      <point x="298" y="415" type="line"/>
      <point x="355" y="415" type="line" smooth="yes"/>
      <point x="371" y="415"/>
      <point x="381" y="414"/>
      <point x="381" y="395" type="curve" smooth="yes"/>
      <point x="381" y="382"/>
      <point x="376" y="366"/>
      <point x="366" y="344" type="curve" smooth="yes"/>
      <point x="340" y="282"/>
      <point x="313" y="218"/>
      <point x="286" y="155" type="curve"/>
      <point x="200" y="359" type="line"/>
      <point x="193" y="373"/>
      <point x="190" y="385"/>
      <point x="190" y="396" type="curve" smooth="yes"/>
      <point x="190" y="410"/>
      <point x="196" y="415"/>
      <point x="209" y="415" type="curve" smooth="yes"/>
      <point x="248" y="415" type="line"/>
      <point x="248" y="450" type="line"/>
      <point x="-5" y="450" type="line"/>
      <point x="-5" y="415" type="line"/>
      <point x="18" y="415" type="line" smooth="yes"/>
      <point x="46" y="415"/>
      <point x="53" y="410"/>
      <point x="70" y="371" type="curve" smooth="yes"/>
      <point x="122" y="251"/>
      <point x="174" y="130"/>
      <point x="225" y="10" type="curve"/>
      <point x="226" y="10" type="line"/>
      <point x="219" y="-5" type="line" smooth="yes"/>
      <point x="214" y="-15"/>
      <point x="209" y="-25"/>
      <point x="205" y="-34" type="curve" smooth="yes"/>
      <point x="157" y="-138"/>
      <point x="131" y="-194"/>
      <point x="94" y="-194" type="curve" smooth="yes"/>
      <point x="90" y="-194"/>
      <point x="88" y="-187"/>
      <point x="88" y="-176" type="curve" smooth="yes"/>
      <point x="88" y="-167"/>
      <point x="90" y="-162"/>
      <point x="93" y="-156" type="curve"/>
      <point x="96" y="-148" type="line" smooth="yes"/>
      <point x="99" y="-139"/>
      <point x="101" y="-131"/>
      <point x="101" y="-125" type="curve" smooth="yes"/>
      <point x="101" y="-94"/>
      <point x="67" y="-72" name="hr02"/>
    </contour>
  </outline>
</glyph>
<glyph name="ydieresis" format="2">
  <advance width="508"/>
  <unicode hex="00FF"/>
  <outline>
    <contour>
      <point x="307" y="588" type="curve" smooth="yes"/>
      <point x="307" y="559"/>
      <point x="336" y="536"/>
      <point x="374" y="536" type="curve" smooth="yes"/>
      <point x="412" y="536"/>
      <point x="441" y="559"/>
      <point x="441" y="588" type="curve" smooth="yes"/>
      <point x="441" y="617"/>
      <point x="412" y="640"/>
      <point x="374" y="640" type="curve" smooth="yes"/>
      <point x="336" y="640"/>
      <point x="307" y="617"/>
    </contour>
    <contour>
      <point x="113" y="588" type="curve" smooth="yes"/>
      <point x="113" y="559"/>
      <point x="142" y="536"/>
      <point x="180" y="536" type="curve" smooth="yes"/>
      <point x="218" y="536"/>
      <point x="247" y="559"/>
      <point x="247" y="588" type="curve" smooth="yes"/>
      <point x="247" y="617"/>
      <point x="218" y="640"/>
      <point x="180" y="640" type="curve" smooth="yes"/>
      <point x="142" y="640"/>
      <point x="113" y="617"/>
    </contour>
    <contour>
      <point x="33" y="-72" type="curve" smooth="yes"/>
      <point x="-14" y="-72"/>
      <point x="-34" y="-103"/>
      <point x="-34" y="-132" type="curve" smooth="yes"/>
      <point x="-34" y="-194"/>
      <point x="27" y="-225"/>
      <point x="93" y="-225" type="curve" smooth="yes"/>
      <point x="193" y="-225"/>
      <point x="226" y="-149"/>
      <point x="282" y="-19" type="curve" smooth="yes"/>
      <point x="444" y="368" type="line" smooth="yes"/>
      <point x="460" y="407"/>
      <point x="465" y="415"/>
      <point x="499" y="415" type="curve" smooth="yes"/>
      <point x="523" y="415" type="line"/>
      <point x="523" y="450" type="line"/>
      <point x="298" y="450" type="line"/>
      <point x="298" y="415" type="line"/>
      <point x="355" y="415" type="line" smooth="yes"/>
      <point x="371" y="415"/>
      <point x="381" y="414"/>
      <point x="381" y="395" type="curve" smooth="yes"/>
      <point x="381" y="382"/>
      <point x="376" y="366"/>
      <point x="366" y="344" type="curve" smooth="yes"/>
      <point x="340" y="282"/>
      <point x="313" y="218"/>
      <point x="286" y="155" type="curve"/>
      <point x="200" y="359" type="line"/>
      <point x="193" y="373"/>
      <point x="190" y="385"/>
      <point x="190" y="396" type="curve" smooth="yes"/>
      <point x="190" y="410"/>
      <point x="196" y="415"/>
      <point x="209" y="415" type="curve" smooth="yes"/>
      <point x="248" y="415" type="line"/>
      <point x="248" y="450" type="line"/>
      <point x="-5" y="450" type="line"/>
      <point x="-5" y="415" type="line"/>
      <point x="18" y="415" type="line" smooth="yes"/>
      <point x="46" y="415"/>
      <point x="53" y="410"/>
      <point x="70" y="371" type="curve" smooth="yes"/>
      <point x="122" y="251"/>
      <point x="174" y="130"/>
      <point x="225" y="10" type="curve"/>
      <point x="226" y="10" type="line"/>
      <point x="219" y="-5" type="line" smooth="yes"/>
      <point x="214" y="-15"/>
      <point x="209" y="-25"/>
      <point x="205" y="-34" type="curve" smooth="yes"/>
      <point x="157" y="-138"/>
      <point x="131" y="-194"/>
      <point x="94" y="-194" type="curve" smooth="yes"/>
      <point x="90" y="-194"/>
      <point x="88" y="-187"/>
      <point x="88" y="-176" type="curve" smooth="yes"/>
      <point x="88" y="-167"/>
      <point x="90" y="-162"/>
      <point x="93" y="-156" type="curve"/>
      <point x="96" y="-148" type="line" smooth="yes"/>
      <point x="99" y="-139"/>
      <point x="101" y="-131"/>
      <point x="101" y="-125" type="curve" smooth="yes"/>
      <point x="101" y="-94"/>
      <point x="67" y="-72"/>
    </contour>
  </outline>
</glyph>
<glyph name="uni0237" format="2">
  <advance width="323"/>
  <unicode hex="0237"/>
  <outline>
    <contour>
      <point x="257" y="450" type="line"/>
      <point x="57" y="450" type="line"/>
      <point x="57" y="415" type="line"/>
      <point x="102" y="415" type="line" smooth="yes"/>
      <point x="133" y="415"/>
      <point x="137" y="410"/>
      <point x="137" y="365" type="curve" smooth="yes"/>
      <point x="137" y="-117" type="line" smooth="yes"/>
      <point x="137" y="-170"/>
      <point x="120" y="-199"/>
      <point x="93" y="-199" type="curve" smooth="yes"/>
      <point x="70" y="-199"/>
      <point x="53" y="-185"/>
      <point x="53" y="-168" type="curve" smooth="yes"/>
      <point x="53" y="-154"/>
      <point x="58" y="-150"/>
      <point x="63" y="-147" type="curve" smooth="yes"/>
      <point x="78" y="-136"/>
      <point x="96" y="-123" name="hr01"/>
      <point x="96" y="-102" type="curve" smooth="yes"/>
      <point x="96" y="-68"/>
      <point x="66" y="-46"/>
      <point x="29" y="-46" type="curve" smooth="yes"/>
      <point x="-19" y="-46"/>
      <point x="-45" y="-80"/>
      <point x="-45" y="-118" type="curve" smooth="yes"/>
      <point x="-45" y="-185"/>
      <point x="25" y="-228"/>
      <point x="96" y="-228" type="curve" smooth="yes"/>
      <point x="184" y="-228"/>
      <point x="257" y="-161"/>
      <point x="257" y="-63" type="curve" smooth="yes"/>
    </contour>
  </outline>
</glyph>
<glyph name="dotaccent" format="2">
  <advance width="330"/>
  <unicode hex="02D9"/>
  <outline>
    <contour>
      <point x="91" y="616" type="curve" smooth="yes"/>
      <point x="91" y="584"/>
      <point x="123" y="558"/>
      <point x="164" y="558" type="curve" smooth="yes"/>
      <point x="205" y="558"/>
      <point x="237" y="584"/>
      <point x="237" y="616" type="curve" smooth="yes"/>
      <point x="237" y="648"/>
      <point x="205" y="674"/>
      <point x="164" y="674" type="curve" smooth="yes"/>
      <point x="123" y="674"/>
      <point x="91" y="648"/>
    </contour>
  </outline>
</glyph>
<glyph name="quoteleft" format="2">
  <advance width="236"/>
  <unicode hex="2018"/>
  <outline>
    <contour>
      <point x="123" y="558" type="curve" smooth="yes"/>
      <point x="102" y="558"/>
      <point x="93" y="566"/>
      <point x="93" y="594" type="curve" smooth="yes"/>
      <point x="93" y="647"/>
      <point x="150" y="695"/>
      <point x="213" y="710" type="curve"/>
      <point x="206" y="735" type="line"/>
      <point x="121" y="719"/>
      <point x="27" y="664"/>
      <point x="27" y="551" type="curve" smooth="yes"/>
      <point x="27" y="474"/>
      <point x="65" y="438"/>
      <point x="124" y="438" type="curve" smooth="yes"/>
      <point x="167" y="438"/>
      <point x="197" y="467" name="hr01"/>
      <point x="197" y="498" type="curve" smooth="yes"/>
      <point x="197" y="528"/>
      <point x="167" y="558"/>
    </contour>
  </outline>
</glyph>
<glyph name="quoteright" format="2">
  <advance width="223"/>
  <unicode hex="2019"/>
  <outline>
    <contour>
      <point x="111" y="601" type="curve" smooth="yes"/>
      <point x="132" y="601"/>
      <point x="141" y="594"/>
      <point x="141" y="566" type="curve" smooth="yes"/>
      <point x="141" y="513"/>
      <point x="84" y="464"/>
      <point x="21" y="449" type="curve"/>
      <point x="28" y="425" type="line"/>
      <point x="113" y="441"/>
      <point x="207" y="495"/>
      <point x="207" y="609" type="curve" smooth="yes"/>
      <point x="207" y="685"/>
      <point x="169" y="722"/>
      <point x="110" y="722" type="curve" smooth="yes"/>
      <point x="67" y="722"/>
      <point x="37" y="692" name="hr01"/>
      <point x="37" y="662" type="curve" smooth="yes"/>
      <point x="37" y="631"/>
      <point x="67" y="601"/>
    </contour>
  </outline>
</glyph>
<glyph name="quotesinglbase" format="2">
  <advance width="227"/>
  <unicode hex="201A"/>
  <outline>
    <contour>
      <point x="105" y="58" type="curve" smooth="yes"/>
      <point x="126" y="58"/>
      <point x="135" y="51"/>
      <point x="135" y="23" type="curve" smooth="yes"/>
      <point x="135" y="-30"/>
      <point x="78" y="-79"/>
      <point x="15" y="-94" type="curve"/>
      <point x="22" y="-119" type="line"/>
      <point x="107" y="-102"/>
      <point x="201" y="-48"/>
      <point x="201" y="66" type="curve" smooth="yes"/>
      <point x="201" y="142"/>
      <point x="163" y="179"/>
      <point x="104" y="179" type="curve" smooth="yes"/>
      <point x="61" y="179"/>
      <point x="31" y="149" name="hr01"/>
      <point x="31" y="119" type="curve" smooth="yes"/>
      <point x="31" y="88"/>
      <point x="61" y="58"/>
    </contour>
  </outline>
</glyph>
<glyph name="onedotenleader" format="2">
  <advance width="500"/>
  <unicode hex="2024"/>
  <outline>
    <contour>
      <point x="184" y="59" type="curve" smooth="yes"/>
      <point x="184" y="20"/>
      <point x="222" y="-12"/>
      <point x="270" y="-12" type="curve" smooth="yes"/>
      <point x="318" y="-12"/>
      <point x="356" y="20"/>
      <point x="356" y="59" type="curve" smooth="yes"/>
      <point x="356" y="98"/>
      <point x="318" y="130"/>
      <point x="270" y="130" type="curve" smooth="yes"/>
      <point x="222" y="130"/>
      <point x="184" y="98"/>
    </contour>
  </outline>
</glyph>
<glyph name="uni2035" format="2">
  <advance width="222"/>
  <unicode hex="2035"/>
  <outline>
    <contour>
      <point x="123" y="387" type="line"/>
      <point x="177" y="387" type="line"/>
      <point x="177" y="417" type="line" smooth="yes"/>
      <point x="177" y="491"/>
      <point x="174" y="596"/>
      <point x="166" y="642" type="curve" smooth="yes"/>
      <point x="162" y="667"/>
      <point x="145" y="692"/>
      <point x="103" y="692" type="curve" smooth="yes"/>
      <point x="65" y="692"/>
      <point x="45" y="673"/>
      <point x="45" y="645" type="curve" smooth="yes"/>
      <point x="45" y="639"/>
      <point x="46" y="631"/>
      <point x="48" y="621" type="curve" smooth="yes"/>
      <point x="53" y="601"/>
      <point x="63" y="572"/>
      <point x="73" y="541" type="curve" smooth="yes"/>
      <point x="77" y="530"/>
      <point x="81" y="520"/>
      <point x="84" y="509" type="curve"/>
      <point x="95" y="478"/>
      <point x="106" y="445"/>
      <point x="114" y="417" type="curve" smooth="yes"/>
    </contour>
  </outline>
</glyph>
<glyph name="uni2036" format="2">
  <advance width="402"/>
  <unicode hex="2036"/>
  <outline>
    <contour>
      <point x="303" y="387" type="line"/>
      <point x="357" y="387" type="line"/>
      <point x="357" y="417" type="line" smooth="yes"/>
      <point x="357" y="491"/>
      <point x="354" y="596"/>
      <point x="346" y="642" type="curve" smooth="yes"/>
      <point x="342" y="667"/>
      <point x="325" y="692"/>
      <point x="283" y="692" type="curve" smooth="yes"/>
      <point x="245" y="692"/>
      <point x="225" y="673"/>
      <point x="225" y="645" type="curve" smooth="yes"/>
      <point x="225" y="639"/>
      <point x="226" y="631"/>
      <point x="228" y="621" type="curve" smooth="yes"/>
      <point x="233" y="601"/>
      <point x="243" y="572"/>
      <point x="253" y="541" type="curve" smooth="yes"/>
      <point x="257" y="530"/>
      <point x="261" y="520"/>
      <point x="264" y="509" type="curve"/>
      <point x="275" y="478"/>
      <point x="286" y="445"/>
      <point x="294" y="417" type="curve" smooth="yes"/>
    </contour>
    <contour>
      <point x="123" y="387" type="line"/>
      <point x="177" y="387" type="line"/>
      <point x="177" y="417" type="line" smooth="yes"/>
      <point x="177" y="491"/>
      <point x="174" y="596"/>
      <point x="166" y="642" type="curve" smooth="yes"/>
      <point x="162" y="667"/>
      <point x="145" y="692"/>
      <point x="103" y="692" type="curve" smooth="yes"/>
      <point x="65" y="692"/>
      <point x="45" y="673"/>
      <point x="45" y="645" type="curve" smooth="yes"/>
      <point x="45" y="639"/>
      <point x="46" y="631"/>
      <point x="48" y="621" type="curve" smooth="yes"/>
      <point x="53" y="601"/>
      <point x="63" y="572"/>
      <point x="73" y="541" type="curve" smooth="yes"/>
      <point x="77" y="530"/>
      <point x="81" y="520"/>
      <point x="84" y="509" type="curve"/>
      <point x="95" y="478"/>
      <point x="106" y="445"/>
      <point x="114" y="417" type="curve" smooth="yes"/>
    </contour>
  </outline>
</glyph>
<glyph name="uni2047" format="2">
  <advance width="626"/>
  <unicode hex="2047"/>
  <outline>
    <contour>
      <point x="186" y="692" type="curve" smooth="yes"/>
      <point x="81" y="692"/>
      <point x="5" y="628"/>
      <point x="5" y="562" type="curve" smooth="yes"/>
      <point x="5" y="516"/>
      <point x="37" y="481"/>
      <point x="88" y="481" type="curve" smooth="yes"/>
      <point x="127" y="481"/>
      <point x="163" y="505" name="hr01"/>
      <point x="163" y="542" type="curve" smooth="yes"/>
      <point x="163" y="564"/>
      <point x="141" y="579"/>
      <point x="122" y="592" type="curve"/>
      <point x="120" y="593" type="line"/>
      <point x="114" y="598"/>
      <point x="108" y="602" name="hr02"/>
      <point x="108" y="616" type="curve" smooth="yes"/>
      <point x="108" y="632"/>
      <point x="128" y="664"/>
      <point x="173" y="664" type="curve" smooth="yes"/>
      <point x="207" y="664"/>
      <point x="232" y="641"/>
      <point x="232" y="556" type="curve" smooth="yes"/>
      <point x="232" y="476"/>
      <point x="207" y="429"/>
      <point x="185" y="386" type="curve" smooth="yes"/>
      <point x="161" y="341"/>
      <point x="139" y="300"/>
      <point x="139" y="244" type="curve" smooth="yes"/>
      <point x="139" y="236"/>
      <point x="140" y="228"/>
      <point x="141" y="219" type="curve"/>
      <point x="141" y="216" type="line"/>
      <point x="207" y="216" type="line"/>
      <point x="207" y="307"/>
      <point x="221" y="331"/>
      <point x="284" y="394" type="curve" smooth="yes"/>
      <point x="326" y="437"/>
      <point x="368" y="478" name="hr03"/>
      <point x="368" y="546" type="curve" smooth="yes"/>
      <point x="368" y="556"/>
      <point x="365" y="568"/>
      <point x="363" y="580" type="curve"/>
      <point x="361" y="588" type="line" smooth="yes"/>
      <point x="358" y="598"/>
      <point x="355" y="607" name="hr04"/>
      <point x="355" y="617" type="curve" smooth="yes"/>
      <point x="355" y="647"/>
      <point x="380" y="664"/>
      <point x="406" y="664" type="curve" smooth="yes"/>
      <point x="441" y="664"/>
      <point x="465" y="641"/>
      <point x="465" y="556" type="curve" smooth="yes"/>
      <point x="465" y="476"/>
      <point x="440" y="429"/>
      <point x="418" y="386" type="curve" smooth="yes"/>
      <point x="394" y="341"/>
      <point x="372" y="300"/>
      <point x="372" y="244" type="curve" smooth="yes"/>
      <point x="372" y="236"/>
      <point x="373" y="228"/>
      <point x="374" y="219" type="curve"/>
      <point x="374" y="216" type="line"/>
      <point x="440" y="216" type="line"/>
      <point x="440" y="307"/>
      <point x="454" y="331"/>
      <point x="517" y="394" type="curve" smooth="yes"/>
      <point x="559" y="437"/>
      <point x="601" y="478"/>
      <point x="601" y="546" type="curve" smooth="yes"/>
      <point x="601" y="631"/>
      <point x="526" y="692"/>
      <point x="419" y="692" type="curve" smooth="yes"/>
      <point x="371" y="692"/>
      <point x="332" y="680"/>
      <point x="302" y="661" type="curve"/>
      <point x="274" y="681"/>
      <point x="233" y="692"/>
    </contour>
    <contour>
      <point x="102" y="55" type="curve" smooth="yes"/>
      <point x="102" y="21" name="hr05"/>
      <point x="136" y="-7"/>
      <point x="179" y="-7" type="curve" smooth="yes"/>
      <point x="222" y="-7"/>
      <point x="256" y="21"/>
      <point x="256" y="55" type="curve" smooth="yes"/>
      <point x="256" y="89"/>
      <point x="222" y="117"/>
      <point x="179" y="117" type="curve" smooth="yes"/>
      <point x="136" y="117"/>
      <point x="102" y="89"/>
    </contour>
    <contour>
      <point x="335" y="55" type="curve" smooth="yes"/>
      <point x="335" y="21"/>
      <point x="369" y="-7"/>
      <point x="412" y="-7" type="curve" smooth="yes"/>
      <point x="455" y="-7"/>
      <point x="489" y="21"/>
      <point x="489" y="55" type="curve" smooth="yes"/>
      <point x="489" y="89"/>
      <point x="455" y="117"/>
      <point x="412" y="117" type="curve" smooth="yes"/>
      <point x="369" y="117"/>
      <point x="335" y="89"/>
    </contour>
  </outline>
</glyph>
<glyph name="uni2048" format="2">
  <advance width="649"/>
  <unicode hex="2048"/>
  <outline>
    <contour>
      <point x="411" y="55" type="curve" smooth="yes"/>
      <point x="411" y="21"/>
      <point x="445" y="-7"/>
      <point x="488" y="-7" type="curve" smooth="yes"/>
      <point x="531" y="-7"/>
      <point x="565" y="21"/>
      <point x="565" y="55" type="curve" smooth="yes"/>
      <point x="565" y="89"/>
      <point x="531" y="117"/>
      <point x="488" y="117" type="curve" smooth="yes"/>
      <point x="445" y="117"/>
      <point x="411" y="89"/>
    </contour>
    <contour>
      <point x="521" y="216" type="line"/>
      <point x="521" y="380" name="hr01"/>
      <point x="543" y="480"/>
      <point x="564" y="580" type="curve" smooth="yes"/>
      <point x="567" y="595"/>
      <point x="569" y="608"/>
      <point x="569" y="620" type="curve" smooth="yes"/>
      <point x="569" y="665"/>
      <point x="540" y="692"/>
      <point x="488" y="692" type="curve" smooth="yes"/>
      <point x="436" y="692"/>
      <point x="407" y="665"/>
      <point x="407" y="620" type="curve" smooth="yes"/>
      <point x="407" y="608"/>
      <point x="409" y="595"/>
      <point x="412" y="580" type="curve" smooth="yes"/>
      <point x="433" y="480"/>
      <point x="455" y="380"/>
      <point x="455" y="216" type="curve"/>
    </contour>
    <contour>
      <point x="297" y="556" type="curve" smooth="yes"/>
      <point x="297" y="641"/>
      <point x="242" y="664"/>
      <point x="191" y="664" type="curve" smooth="yes"/>
      <point x="116" y="664"/>
      <point x="78" y="634"/>
      <point x="78" y="611" type="curve" smooth="yes"/>
      <point x="78" y="607"/>
      <point x="90" y="598"/>
      <point x="105" y="587" type="curve" smooth="yes"/>
      <point x="117" y="579"/>
      <point x="133" y="569"/>
      <point x="133" y="537" type="curve" smooth="yes"/>
      <point x="133" y="500"/>
      <point x="111" y="476"/>
      <point x="88" y="476" type="curve" smooth="yes"/>
      <point x="55" y="476"/>
      <point x="35" y="511"/>
      <point x="35" y="557" type="curve" smooth="yes"/>
      <point x="35" y="630"/>
      <point x="110" y="692"/>
      <point x="204" y="692" type="curve" smooth="yes"/>
      <point x="301" y="692"/>
      <point x="373" y="638"/>
      <point x="373" y="546" type="curve" smooth="yes"/>
      <point x="373" y="462"/>
      <point x="329" y="422"/>
      <point x="285" y="384" type="curve" smooth="yes"/>
      <point x="238" y="342"/>
      <point x="191" y="300"/>
      <point x="191" y="232" type="curve" smooth="yes"/>
      <point x="191" y="228"/>
      <point x="191" y="221"/>
      <point x="192" y="216" type="curve"/>
      <point x="186" y="216" type="line"/>
      <point x="186" y="292"/>
      <point x="195" y="314"/>
      <point x="234" y="379" type="curve"/>
      <point x="266" y="429"/>
      <point x="297" y="481"/>
    </contour>
    <contour>
      <point x="117" y="55" type="curve" smooth="yes"/>
      <point x="117" y="21"/>
      <point x="151" y="-7"/>
      <point x="194" y="-7" type="curve" smooth="yes"/>
      <point x="237" y="-7"/>
      <point x="271" y="21"/>
      <point x="271" y="55" type="curve" smooth="yes"/>
      <point x="271" y="89"/>
      <point x="237" y="117"/>
      <point x="194" y="117" type="curve" smooth="yes"/>
      <point x="151" y="117"/>
      <point x="117" y="89"/>
    </contour>
  </outline>
</glyph>
<glyph name="uni2049" format="2">
  <advance width="655"/>
  <unicode hex="2049"/>
  <outline>
    <contour>
      <point x="89" y="55" type="curve" smooth="yes"/>
      <point x="89" y="21"/>
      <point x="123" y="-7"/>
      <point x="166" y="-7" type="curve" smooth="yes"/>
      <point x="209" y="-7"/>
      <point x="243" y="21"/>
      <point x="243" y="55" type="curve" smooth="yes"/>
      <point x="243" y="89"/>
      <point x="209" y="117"/>
      <point x="166" y="117" type="curve" smooth="yes"/>
      <point x="123" y="117"/>
      <point x="89" y="89"/>
    </contour>
    <contour>
      <point x="199" y="216" type="line"/>
      <point x="199" y="380" name="hr01"/>
      <point x="221" y="480"/>
      <point x="242" y="580" type="curve" smooth="yes"/>
      <point x="245" y="595"/>
      <point x="247" y="608"/>
      <point x="247" y="620" type="curve" smooth="yes"/>
      <point x="247" y="665"/>
      <point x="218" y="692"/>
      <point x="166" y="692" type="curve" smooth="yes"/>
      <point x="114" y="692"/>
      <point x="85" y="665"/>
      <point x="85" y="620" type="curve" smooth="yes"/>
      <point x="85" y="608"/>
      <point x="87" y="595"/>
      <point x="90" y="580" type="curve" smooth="yes"/>
      <point x="111" y="480"/>
      <point x="133" y="380"/>
      <point x="133" y="216" type="curve"/>
    </contour>
    <contour>
      <point x="559" y="556" type="curve" smooth="yes"/>
      <point x="559" y="641"/>
      <point x="504" y="664"/>
      <point x="453" y="664" type="curve" smooth="yes"/>
      <point x="378" y="664" name="hr04"/>
      <point x="340" y="634"/>
      <point x="340" y="611" type="curve" smooth="yes"/>
      <point x="340" y="607"/>
      <point x="352" y="598"/>
      <point x="367" y="587" type="curve" smooth="yes"/>
      <point x="379" y="579"/>
      <point x="395" y="569" name="hr06"/>
      <point x="395" y="537" type="curve" smooth="yes"/>
      <point x="395" y="500"/>
      <point x="373" y="476"/>
      <point x="350" y="476" type="curve" smooth="yes"/>
      <point x="317" y="476"/>
      <point x="297" y="511"/>
      <point x="297" y="557" type="curve" smooth="yes"/>
      <point x="297" y="630"/>
      <point x="372" y="692"/>
      <point x="466" y="692" type="curve" smooth="yes"/>
      <point x="563" y="692"/>
      <point x="635" y="638"/>
      <point x="635" y="546" type="curve" smooth="yes"/>
      <point x="635" y="462"/>
      <point x="591" y="422"/>
      <point x="547" y="384" type="curve" smooth="yes"/>
      <point x="500" y="342"/>
      <point x="453" y="300"/>
      <point x="453" y="232" type="curve" smooth="yes"/>
      <point x="453" y="228"/>
      <point x="453" y="221"/>
      <point x="454" y="216" type="curve"/>
      <point x="448" y="216" type="line"/>
      <point x="448" y="292"/>
      <point x="457" y="314"/>
      <point x="496" y="379" type="curve"/>
      <point x="528" y="429"/>
      <point x="559" y="481"/>
    </contour>
    <contour>
      <point x="379" y="55" type="curve" smooth="yes"/>
      <point x="379" y="21"/>
      <point x="413" y="-7" name="hr11"/>
      <point x="456" y="-7" type="curve" smooth="yes"/>
      <point x="499" y="-7"/>
      <point x="533" y="21"/>
      <point x="533" y="55" type="curve" smooth="yes"/>
      <point x="533" y="89"/>
      <point x="499" y="117"/>
      <point x="456" y="117" type="curve" smooth="yes"/>
      <point x="413" y="117"/>
      <point x="379" y="89"/>
    </contour>
  </outline>
</glyph>
<glyph name="uni204E" format="2">
  <advance width="568"/>
  <unicode hex="204E"/>
  <outline>
    <contour>
      <point x="315" y="358" type="line" smooth="yes"/>
      <point x="309" y="376"/>
      <point x="297" y="384"/>
      <point x="282" y="384" type="curve" smooth="yes"/>
      <point x="264" y="384"/>
      <point x="256" y="374"/>
      <point x="250" y="355" type="curve" smooth="yes"/>
      <point x="240" y="325"/>
      <point x="229" y="294"/>
      <point x="218" y="264" type="curve" smooth="yes"/>
      <point x="207" y="234"/>
      <point x="202" y="229"/>
      <point x="175" y="229" type="curve" smooth="yes"/>
      <point x="89" y="229" type="line" smooth="yes"/>
      <point x="57" y="229"/>
      <point x="45" y="224"/>
      <point x="45" y="218" type="curve" smooth="yes"/>
      <point x="45" y="215"/>
      <point x="53" y="206"/>
      <point x="67" y="195" type="curve" smooth="yes"/>
      <point x="147" y="133" type="line" smooth="yes"/>
      <point x="158" y="125"/>
      <point x="162" y="117"/>
      <point x="162" y="101" type="curve" smooth="yes"/>
      <point x="162" y="93"/>
      <point x="160" y="87"/>
      <point x="157" y="78" type="curve" smooth="yes"/>
      <point x="126" y="-18" type="line"/>
      <point x="124" y="-28"/>
      <point x="122" y="-35"/>
      <point x="122" y="-38" type="curve" smooth="yes"/>
      <point x="122" y="-46"/>
      <point x="131" y="-50"/>
      <point x="145" y="-50" type="curve" smooth="yes"/>
      <point x="160" y="-50"/>
      <point x="169" y="-43"/>
      <point x="187" y="-33" type="curve"/>
      <point x="259" y="22" type="line" smooth="yes"/>
      <point x="273" y="32"/>
      <point x="281" y="37"/>
      <point x="286" y="37" type="curve" smooth="yes"/>
      <point x="290" y="37"/>
      <point x="297" y="32"/>
      <point x="310" y="22" type="curve" smooth="yes"/>
      <point x="377" y="-30" type="line"/>
      <point x="393" y="-41"/>
      <point x="407" y="-48"/>
      <point x="420" y="-48" type="curve" smooth="yes"/>
      <point x="438" y="-48"/>
      <point x="441" y="-45"/>
      <point x="441" y="-37" type="curve" smooth="yes"/>
      <point x="441" y="-32"/>
      <point x="439" y="-19"/>
      <point x="432" y="-3" type="curve"/>
      <point x="427" y="-3" type="line"/>
      <point x="433" y="-3" type="line"/>
      <point x="408" y="73" type="line"/>
      <point x="403" y="86"/>
      <point x="400" y="94"/>
      <point x="400" y="102" type="curve" smooth="yes"/>
      <point x="400" y="119"/>
      <point x="409" y="126"/>
      <point x="431" y="142" type="curve" smooth="yes"/>
      <point x="442" y="151"/>
      <point x="453" y="160"/>
      <point x="465" y="169" type="curve" smooth="yes"/>
      <point x="473" y="175"/>
      <point x="523" y="213"/>
      <point x="523" y="218" type="curve" smooth="yes"/>
      <point x="523" y="224"/>
      <point x="511" y="229"/>
      <point x="479" y="229" type="curve" smooth="yes"/>
      <point x="388" y="229" type="line" smooth="yes"/>
      <point x="359" y="229"/>
      <point x="357" y="232"/>
      <point x="344" y="274" type="curve"/>
    </contour>
  </outline>
</glyph>
<glyph name="uni2051" format="2">
  <advance width="568"/>
  <unicode hex="2051"/>
  <outline>
    <contour>
      <point x="315" y="318" type="line" smooth="yes"/>
      <point x="309" y="336"/>
      <point x="297" y="344"/>
      <point x="282" y="344" type="curve" smooth="yes"/>
      <point x="264" y="344"/>
      <point x="256" y="334"/>
      <point x="250" y="315" type="curve" smooth="yes"/>
      <point x="240" y="285"/>
      <point x="229" y="254"/>
      <point x="218" y="224" type="curve" smooth="yes"/>
      <point x="207" y="194"/>
      <point x="202" y="189"/>
      <point x="175" y="189" type="curve" smooth="yes"/>
      <point x="89" y="189" type="line" smooth="yes"/>
      <point x="57" y="189"/>
      <point x="45" y="184"/>
      <point x="45" y="178" type="curve" smooth="yes"/>
      <point x="45" y="175"/>
      <point x="53" y="166"/>
      <point x="67" y="155" type="curve" smooth="yes"/>
      <point x="147" y="93" type="line" smooth="yes"/>
      <point x="158" y="85"/>
      <point x="162" y="77"/>
      <point x="162" y="61" type="curve" smooth="yes"/>
      <point x="162" y="53"/>
      <point x="160" y="47"/>
      <point x="157" y="38" type="curve" smooth="yes"/>
      <point x="126" y="-58" type="line"/>
      <point x="124" y="-68"/>
      <point x="122" y="-75"/>
      <point x="122" y="-78" type="curve" smooth="yes"/>
      <point x="122" y="-86"/>
      <point x="131" y="-90"/>
      <point x="145" y="-90" type="curve" smooth="yes"/>
      <point x="160" y="-90"/>
      <point x="169" y="-83"/>
      <point x="187" y="-73" type="curve"/>
      <point x="259" y="-18" type="line" smooth="yes"/>
      <point x="273" y="-8"/>
      <point x="281" y="-3"/>
      <point x="286" y="-3" type="curve" smooth="yes"/>
      <point x="290" y="-3"/>
      <point x="297" y="-8"/>
      <point x="310" y="-18" type="curve" smooth="yes"/>
      <point x="377" y="-70" type="line"/>
      <point x="393" y="-81"/>
      <point x="407" y="-88"/>
      <point x="420" y="-88" type="curve" smooth="yes"/>
      <point x="438" y="-88"/>
      <point x="441" y="-85"/>
      <point x="441" y="-77" type="curve" smooth="yes"/>
      <point x="441" y="-72"/>
      <point x="439" y="-59"/>
      <point x="432" y="-43" type="curve"/>
      <point x="427" y="-43" type="line"/>
      <point x="433" y="-43" type="line"/>
      <point x="408" y="33" type="line"/>
      <point x="403" y="46"/>
      <point x="400" y="54"/>
      <point x="400" y="62" type="curve" smooth="yes"/>
      <point x="400" y="79"/>
      <point x="409" y="86"/>
      <point x="431" y="102" type="curve" smooth="yes"/>
      <point x="442" y="111"/>
      <point x="453" y="120"/>
      <point x="465" y="129" type="curve" smooth="yes"/>
      <point x="473" y="135"/>
      <point x="523" y="173"/>
      <point x="523" y="178" type="curve" smooth="yes"/>
      <point x="523" y="184"/>
      <point x="511" y="189"/>
      <point x="479" y="189" type="curve" smooth="yes"/>
      <point x="388" y="189" type="line" smooth="yes"/>
      <point x="359" y="189"/>
      <point x="357" y="192"/>
      <point x="344" y="234" type="curve"/>
    </contour>
    <contour>
      <point x="315" y="783" type="line" smooth="yes"/>
      <point x="309" y="801"/>
      <point x="297" y="809"/>
      <point x="282" y="809" type="curve" smooth="yes"/>
      <point x="264" y="809"/>
      <point x="256" y="799"/>
      <point x="250" y="780" type="curve" smooth="yes"/>
      <point x="240" y="750"/>
      <point x="229" y="719"/>
      <point x="218" y="689" type="curve" smooth="yes"/>
      <point x="207" y="659"/>
      <point x="202" y="654"/>
      <point x="175" y="654" type="curve" smooth="yes"/>
      <point x="89" y="654" type="line" smooth="yes"/>
      <point x="57" y="654"/>
      <point x="45" y="649"/>
      <point x="45" y="643" type="curve" smooth="yes"/>
      <point x="45" y="640"/>
      <point x="53" y="631"/>
      <point x="67" y="620" type="curve" smooth="yes"/>
      <point x="147" y="558" type="line" smooth="yes"/>
      <point x="158" y="550"/>
      <point x="162" y="542"/>
      <point x="162" y="526" type="curve" smooth="yes"/>
      <point x="162" y="518"/>
      <point x="160" y="512"/>
      <point x="157" y="503" type="curve" smooth="yes"/>
      <point x="126" y="407" type="line"/>
      <point x="124" y="397"/>
      <point x="122" y="390"/>
      <point x="122" y="387" type="curve" smooth="yes"/>
      <point x="122" y="379"/>
      <point x="131" y="375"/>
      <point x="145" y="375" type="curve" smooth="yes"/>
      <point x="160" y="375"/>
      <point x="169" y="382"/>
      <point x="187" y="392" type="curve"/>
      <point x="259" y="447" type="line" smooth="yes"/>
      <point x="273" y="457"/>
      <point x="281" y="462"/>
      <point x="286" y="462" type="curve" smooth="yes"/>
      <point x="290" y="462"/>
      <point x="297" y="457"/>
      <point x="310" y="447" type="curve" smooth="yes"/>
      <point x="377" y="395" type="line"/>
      <point x="393" y="384"/>
      <point x="407" y="377"/>
      <point x="420" y="377" type="curve" smooth="yes"/>
      <point x="438" y="377"/>
      <point x="441" y="380"/>
      <point x="441" y="388" type="curve" smooth="yes"/>
      <point x="441" y="393"/>
      <point x="439" y="406"/>
      <point x="432" y="422" type="curve"/>
      <point x="427" y="422" type="line"/>
      <point x="433" y="422" type="line"/>
      <point x="408" y="498" type="line"/>
      <point x="403" y="511"/>
      <point x="400" y="519"/>
      <point x="400" y="527" type="curve" smooth="yes"/>
      <point x="400" y="544"/>
      <point x="409" y="551"/>
      <point x="431" y="567" type="curve" smooth="yes"/>
      <point x="442" y="576"/>
      <point x="453" y="585"/>
      <point x="465" y="594" type="curve" smooth="yes"/>
      <point x="473" y="600"/>
      <point x="523" y="638"/>
      <point x="523" y="643" type="curve" smooth="yes"/>
      <point x="523" y="649"/>
      <point x="511" y="654"/>
      <point x="479" y="654" type="curve" smooth="yes"/>
      <point x="388" y="654" type="line" smooth="yes"/>
      <point x="359" y="654"/>
      <point x="357" y="657"/>
      <point x="344" y="699" type="curve"/>
    </contour>
  </outline>
</glyph>
<glyph name="Euro" format="2">
  <advance width="594"/>
  <unicode hex="20AC"/>
  <outline>
    <contour>
      <point x="365" y="-16" type="curve" smooth="yes"/>
      <point x="212" y="-16"/>
      <point x="89" y="88"/>
      <point x="69" y="304" type="curve"/>
      <point x="17" y="304" type="line"/>
      <point x="22" y="338" type="line"/>
      <point x="67" y="338" type="line"/>
      <point x="66" y="344"/>
      <point x="66" y="353"/>
      <point x="66" y="365" type="curve" smooth="yes"/>
      <point x="66" y="378"/>
      <point x="66" y="389"/>
      <point x="67" y="397" type="curve"/>
      <point x="17" y="397" type="line"/>
      <point x="22" y="431" type="line"/>
      <point x="69" y="431" type="line"/>
      <point x="76" y="505"/>
      <point x="94" y="566"/>
      <point x="123" y="613" type="curve" smooth="yes"/>
      <point x="179" y="707"/>
      <point x="262" y="745"/>
      <point x="343" y="745" type="curve" smooth="yes"/>
      <point x="388" y="745"/>
      <point x="428" y="730"/>
      <point x="462" y="699" type="curve" smooth="yes"/>
      <point x="474" y="688"/>
      <point x="486" y="679"/>
      <point x="497" y="679" type="curve" smooth="yes"/>
      <point x="505" y="679"/>
      <point x="510" y="685"/>
      <point x="513" y="697" type="curve" smooth="yes"/>
      <point x="524" y="738" type="line"/>
      <point x="561" y="738" type="line"/>
      <point x="561" y="504" type="line"/>
      <point x="522" y="504" type="line"/>
      <point x="500" y="622"/>
      <point x="421" y="713"/>
      <point x="353" y="713" type="curve" smooth="yes"/>
      <point x="319" y="713"/>
      <point x="292" y="698"/>
      <point x="271" y="668" type="curve" smooth="yes"/>
      <point x="250" y="638"/>
      <point x="240" y="584"/>
      <point x="240" y="506" type="curve" smooth="yes"/>
      <point x="240" y="431" type="line"/>
      <point x="451" y="431" type="line"/>
      <point x="444" y="397" type="line"/>
      <point x="240" y="397" type="line"/>
      <point x="240" y="338" type="line"/>
      <point x="436" y="338" type="line"/>
      <point x="431" y="304" type="line"/>
      <point x="240" y="304" type="line"/>
      <point x="240" y="199" type="line" smooth="yes"/>
      <point x="240" y="128"/>
      <point x="254" y="79"/>
      <point x="281" y="54" type="curve" smooth="yes"/>
      <point x="308" y="29"/>
      <point x="338" y="16"/>
      <point x="373" y="16" type="curve" smooth="yes"/>
      <point x="414" y="16"/>
      <point x="448" y="33"/>
      <point x="475" y="66" type="curve" smooth="yes"/>
      <point x="502" y="99"/>
      <point x="518" y="137"/>
      <point x="524" y="181" type="curve"/>
      <point x="561" y="181" type="line"/>
      <point x="553" y="128"/>
      <point x="534" y="82"/>
      <point x="504" y="43" type="curve" smooth="yes"/>
      <point x="473" y="4"/>
      <point x="427" y="-16"/>
    </contour>
  </outline>
</glyph>
<glyph name="f.short" format="2">
  <advance width="375"/>
  <unicode hex="E865"/>
  <outline>
    <contour>
      <point x="109" y="85" type="line" smooth="yes"/>
      <point x="109" y="40"/>
      <point x="105" y="35"/>
      <point x="74" y="35" type="curve" smooth="yes"/>
      <point x="29" y="35" type="line"/>
      <point x="29" y="0" type="line"/>
      <point x="329" y="0" type="line"/>
      <point x="329" y="35" type="line"/>
      <point x="264" y="35" type="line" smooth="yes"/>
      <point x="233" y="35"/>
      <point x="229" y="40"/>
      <point x="229" y="85" type="curve" smooth="yes"/>
      <point x="229" y="415" type="line"/>
      <point x="326" y="415" type="line"/>
      <point x="326" y="450" type="line"/>
      <point x="229" y="450" type="line"/>
      <point x="229" y="599" type="line" smooth="yes"/>
      <point x="229" y="652"/>
      <point x="245" y="681"/>
      <point x="273" y="681" type="curve" smooth="yes"/>
      <point x="296" y="681"/>
      <point x="313" y="667"/>
      <point x="313" y="650" type="curve" smooth="yes"/>
      <point x="313" y="637"/>
      <point x="309" y="634"/>
      <point x="305" y="631" type="curve"/>
      <point x="303" y="629" type="line"/>
      <point x="288" y="618"/>
      <point x="270" y="605" name="hr01"/>
      <point x="270" y="584" type="curve" smooth="yes"/>
      <point x="270" y="550"/>
      <point x="300" y="528"/>
      <point x="337" y="528" type="curve" smooth="yes"/>
      <point x="385" y="528"/>
      <point x="411" y="562"/>
      <point x="411" y="600" type="curve" smooth="yes"/>
      <point x="411" y="667"/>
      <point x="341" y="710"/>
      <point x="270" y="710" type="curve" smooth="yes"/>
      <point x="182" y="710"/>
      <point x="109" y="643"/>
      <point x="109" y="545" type="curve" smooth="yes"/>
      <point x="109" y="450" type="line"/>
      <point x="25" y="450" type="line"/>
      <point x="25" y="415" type="line"/>
      <point x="109" y="415" type="line"/>
    </contour>
  </outline>
</glyph>
<glyph name="A.alt" format="2">
  <advance width="681"/>
  <unicode hex="E868"/>
  <anchor x="360" y="720" name="t.asciicircum_1"/>
  <anchor x="360" y="750" name="t.dieresis"/>
  <outline>
    <contour>
      <point x="255" y="35" type="line"/>
      <point x="199" y="35" type="line" smooth="yes"/>
      <point x="171" y="35"/>
      <point x="156" y="38"/>
      <point x="156" y="61" type="curve" smooth="yes"/>
      <point x="156" y="73"/>
      <point x="159" y="86"/>
      <point x="166" y="101" type="curve"/>
      <point x="173" y="120"/>
      <point x="201" y="197"/>
      <point x="210" y="217" type="curve"/>
      <point x="416" y="217" type="line"/>
      <point x="453" y="110" type="line"/>
      <point x="460" y="92"/>
      <point x="463" y="77"/>
      <point x="463" y="64" type="curve" smooth="yes"/>
      <point x="463" y="39"/>
      <point x="451" y="35"/>
      <point x="428" y="35" type="curve" smooth="yes"/>
      <point x="380" y="35" type="line"/>
      <point x="380" y="0" type="line"/>
      <point x="706" y="0" type="line"/>
      <point x="706" y="35" type="line"/>
      <point x="667" y="35" type="line" smooth="yes"/>
      <point x="631" y="35"/>
      <point x="625" y="37"/>
      <point x="600" y="106" type="curve" smooth="yes"/>
      <point x="391" y="692" type="line"/>
      <point x="324" y="692" type="line"/>
      <point x="92" y="96" type="line" smooth="yes"/>
      <point x="69" y="37"/>
      <point x="58" y="35"/>
      <point x="22" y="35" type="curve" smooth="yes"/>
      <point x="-25" y="35" type="line"/>
      <point x="-25" y="0" type="line"/>
      <point x="255" y="0" type="line"/>
    </contour>
    <contour>
      <point x="224" y="252" type="line"/>
      <point x="318" y="501" type="line"/>
      <point x="404" y="252" type="line"/>
      <point x="419" y="252" type="line"/>
    </contour>
  </outline>
</glyph>
<glyph name="B.alt" format="2">
  <advance width="638"/>
  <unicode hex="E869"/>
  <outline>
    <contour>
      <point x="15" y="680" type="line"/>
      <point x="15" y="645" type="line"/>
      <point x="70" y="645" type="line" smooth="yes"/>
      <point x="101" y="645"/>
      <point x="105" y="640"/>
      <point x="105" y="595" type="curve" smooth="yes"/>
      <point x="105" y="85" type="line" smooth="yes"/>
      <point x="105" y="40"/>
      <point x="101" y="35"/>
      <point x="70" y="35" type="curve" smooth="yes"/>
      <point x="15" y="35" type="line"/>
      <point x="15" y="0" type="line"/>
      <point x="322" y="0" type="line" smooth="yes"/>
      <point x="501" y="0"/>
      <point x="613" y="65"/>
      <point x="613" y="190" type="curve" smooth="yes"/>
      <point x="613" y="273"/>
      <point x="546" y="347"/>
      <point x="430" y="362" type="curve"/>
      <point x="429" y="362" type="line"/>
      <point x="443" y="362" type="line"/>
      <point x="443" y="376" type="line"/>
      <point x="431" y="376" type="line"/>
      <point x="529" y="398"/>
      <point x="568" y="454" name="hr01"/>
      <point x="568" y="514" type="curve" smooth="yes"/>
      <point x="568" y="619"/>
      <point x="482" y="680"/>
      <point x="312" y="680" type="curve" smooth="yes"/>
    </contour>
    <contour>
      <point x="300" y="36" type="line" smooth="yes"/>
      <point x="283" y="36"/>
      <point x="241" y="44"/>
      <point x="241" y="76" type="curve" smooth="yes"/>
      <point x="241" y="348" type="line"/>
      <point x="312" y="348" type="line" smooth="yes"/>
      <point x="400" y="348"/>
      <point x="460" y="300" name="hr02"/>
      <point x="460" y="190" type="curve" smooth="yes"/>
      <point x="460" y="80"/>
      <point x="400" y="36"/>
      <point x="312" y="36" type="curve" smooth="yes"/>
    </contour>
    <contour>
      <point x="302" y="384" type="curve" smooth="yes"/>
      <point x="241" y="384" type="line"/>
      <point x="241" y="604" type="line" smooth="yes"/>
      <point x="241" y="636"/>
      <point x="279" y="644"/>
      <point x="295" y="644" type="curve" smooth="yes"/>
      <point x="302" y="644" type="line" smooth="yes"/>
      <point x="370" y="644"/>
      <point x="415" y="609" name="hr03"/>
      <point x="415" y="514" type="curve" smooth="yes"/>
      <point x="415" y="419"/>
      <point x="370" y="384"/>
    </contour>
  </outline>
</glyph>
<glyph name="C.alt" format="2">
  <advance width="598"/>
  <unicode hex="E86A"/>
  <anchor x="323" y="730" name="t.asciicircum_1"/>
  <anchor x="323" y="750" name="t.dieresis"/>
  <outline>
    <contour>
      <point x="573" y="214" type="curve"/>
      <point x="505" y="214" type="line"/>
      <point x="488" y="102"/>
      <point x="419" y="30"/>
      <point x="328" y="30" type="curve" smooth="yes"/>
      <point x="250" y="30"/>
      <point x="187" y="90"/>
      <point x="187" y="340" type="curve" smooth="yes"/>
      <point x="187" y="590"/>
      <point x="244" y="656"/>
      <point x="323" y="656" type="curve" smooth="yes"/>
      <point x="393" y="656"/>
      <point x="468" y="609"/>
      <point x="495" y="436" type="curve"/>
      <point x="565" y="436" type="line"/>
      <point x="565" y="692" type="line"/>
      <point x="502" y="692" type="line"/>
      <point x="494" y="678" type="line" smooth="yes"/>
      <point x="483" y="658"/>
      <point x="477" y="649"/>
      <point x="473" y="649" type="curve" smooth="yes"/>
      <point x="468" y="649"/>
      <point x="456" y="654"/>
      <point x="438" y="664" type="curve" smooth="yes"/>
      <point x="411" y="678"/>
      <point x="383" y="692"/>
      <point x="323" y="692" type="curve" smooth="yes"/>
      <point x="137" y="692"/>
      <point x="25" y="535"/>
      <point x="25" y="340" type="curve" smooth="yes"/>
      <point x="25" y="121"/>
      <point x="154" y="-12"/>
      <point x="323" y="-12" type="curve" smooth="yes"/>
      <point x="447" y="-12"/>
      <point x="555" y="62"/>
    </contour>
  </outline>
</glyph>
